<svg width="40" height="40" viewBox="0 0 40 40" fill="none" xmlns="http://www.w3.org/2000/svg">
<path d="M0 19.2C0 12.4794 0 9.11905 1.30792 6.55211C2.4584 4.29417 4.29417 2.4584 6.55211 1.30792C9.11905 0 12.4794 0 19.2 0H20.8C27.5206 0 30.8809 0 33.4479 1.30792C35.7058 2.4584 37.5416 4.29417 38.6921 6.55211C40 9.11905 40 12.4794 40 19.2V20.8C40 27.5206 40 30.8809 38.6921 33.4479C37.5416 35.7058 35.7058 37.5416 33.4479 38.6921C30.8809 40 27.5206 40 20.8 40H19.2C12.4794 40 9.11905 40 6.55211 38.6921C4.29417 37.5416 2.4584 35.7058 1.30792 33.4479C0 30.8809 0 27.5206 0 20.8V19.2Z" fill="black" fill-opacity="0.04"/>
<path d="M15 18.75C15.6904 18.75 16.25 19.3096 16.25 20C16.25 20.6904 15.6904 21.25 15 21.25C14.3096 21.25 13.75 20.6904 13.75 20C13.75 19.3096 14.3096 18.75 15 18.75Z" fill="black"/>
<path d="M20 18.75C20.6904 18.75 21.25 19.3096 21.25 20C21.25 20.6904 20.6904 21.25 20 21.25C19.3096 21.25 18.75 20.6904 18.75 20C18.75 19.3096 19.3096 18.75 20 18.75Z" fill="black"/>
<path d="M26.25 20C26.25 19.3096 25.6904 18.75 25 18.75C24.3096 18.75 23.75 19.3096 23.75 20C23.75 20.6904 24.3096 21.25 25 21.25C25.6904 21.25 26.25 20.6904 26.25 20Z" fill="black"/>
</svg>
