<svg width="432" height="280" viewBox="0 0 432 280" fill="none" xmlns="http://www.w3.org/2000/svg">
<path d="M0 16C0 7.16344 7.16344 0 16 0H416C424.837 0 432 7.16344 432 16V264C432 272.837 424.837 280 416 280H16C7.16343 280 0 272.837 0 264V16Z" fill="#F9F9FA"/>
<path d="M24.5568 30.3643V28.8182H32.6804V30.3643H29.5334V39H27.7038V30.3643H24.5568ZM33.3739 39V31.3636H35.119V32.6364H35.1985C35.3377 32.1955 35.5763 31.8558 35.9144 31.6172C36.2558 31.3752 36.6452 31.2543 37.0827 31.2543C37.1822 31.2543 37.2932 31.2592 37.4158 31.2692C37.5418 31.2758 37.6462 31.2874 37.729 31.304V32.9595C37.6528 32.933 37.5318 32.9098 37.3661 32.8899C37.2037 32.8667 37.0463 32.8551 36.8938 32.8551C36.5657 32.8551 36.2707 32.9264 36.0089 33.0689C35.7504 33.2081 35.5465 33.402 35.3974 33.6506C35.2482 33.8991 35.1737 34.1858 35.1737 34.5107V39H33.3739ZM40.9854 39.1541C40.5015 39.1541 40.0657 39.0679 39.6779 38.8956C39.2934 38.7199 38.9885 38.4614 38.7631 38.12C38.5411 37.7786 38.43 37.3577 38.43 36.8572C38.43 36.4264 38.5096 36.0701 38.6687 35.7884C38.8278 35.5066 39.0449 35.2812 39.32 35.1122C39.5951 34.9432 39.9049 34.8156 40.2496 34.7294C40.5977 34.6399 40.9573 34.5753 41.3285 34.5355C41.7759 34.4891 42.1388 34.4477 42.4173 34.4112C42.6957 34.3714 42.8978 34.3118 43.0238 34.2322C43.1531 34.1494 43.2177 34.0218 43.2177 33.8494V33.8196C43.2177 33.4451 43.1067 33.1551 42.8846 32.9496C42.6625 32.7441 42.3427 32.6413 41.9251 32.6413C41.4843 32.6413 41.1346 32.7375 40.8761 32.9297C40.6209 33.1219 40.4485 33.349 40.359 33.6108L38.6786 33.3722C38.8112 32.9081 39.0299 32.5204 39.3349 32.2088C39.6398 31.8939 40.0127 31.6586 40.4535 31.5028C40.8943 31.3438 41.3815 31.2642 41.9151 31.2642C42.283 31.2642 42.6493 31.3073 43.0138 31.3935C43.3784 31.4796 43.7115 31.6222 44.0131 31.821C44.3147 32.0166 44.5567 32.2834 44.739 32.6214C44.9246 32.9595 45.0174 33.3821 45.0174 33.8892V39H43.2873V37.951H43.2276C43.1183 38.1631 42.9641 38.362 42.7653 38.5476C42.5697 38.7299 42.3228 38.8774 42.0245 38.9901C41.7295 39.0994 41.3832 39.1541 40.9854 39.1541ZM41.4528 37.8317C41.814 37.8317 42.1272 37.7604 42.3924 37.6179C42.6576 37.4721 42.8614 37.2798 43.0039 37.0412C43.1497 36.8026 43.2227 36.5424 43.2227 36.2607V35.3608C43.1663 35.4072 43.0702 35.4503 42.9343 35.4901C42.8017 35.5298 42.6526 35.5646 42.4869 35.5945C42.3211 35.6243 42.1571 35.6508 41.9947 35.674C41.8323 35.6972 41.6914 35.7171 41.5721 35.7337C41.3036 35.7701 41.0633 35.8298 40.8512 35.9126C40.6391 35.9955 40.4717 36.1115 40.3491 36.2607C40.2264 36.4065 40.1651 36.5954 40.1651 36.8274C40.1651 37.1589 40.2861 37.4091 40.5281 37.5781C40.77 37.7472 41.0782 37.8317 41.4528 37.8317ZM50.695 31.3636V32.7557H46.1808V31.3636H50.695ZM47.3093 39V30.6428C47.3093 30.129 47.4154 29.7015 47.6275 29.3601C47.8429 29.0187 48.1313 28.7635 48.4925 28.5945C48.8538 28.4254 49.2549 28.3409 49.6957 28.3409C50.0072 28.3409 50.284 28.3658 50.5259 28.4155C50.7679 28.4652 50.9469 28.5099 51.0629 28.5497L50.7049 29.9418C50.6287 29.9186 50.5326 29.8954 50.4165 29.8722C50.3005 29.8456 50.1713 29.8324 50.0288 29.8324C49.694 29.8324 49.457 29.9136 49.3178 30.076C49.1819 30.2351 49.114 30.4638 49.114 30.7621V39H47.3093ZM55.9723 31.3636V32.7557H51.4581V31.3636H55.9723ZM52.5866 39V30.6428C52.5866 30.129 52.6927 29.7015 52.9048 29.3601C53.1203 29.0187 53.4086 28.7635 53.7699 28.5945C54.1312 28.4254 54.5322 28.3409 54.973 28.3409C55.2846 28.3409 55.5613 28.3658 55.8033 28.4155C56.0452 28.4652 56.2242 28.5099 56.3402 28.5497L55.9822 29.9418C55.906 29.9186 55.8099 29.8954 55.6939 29.8722C55.5779 29.8456 55.4486 29.8324 55.3061 29.8324C54.9714 29.8324 54.7344 29.9136 54.5952 30.076C54.4593 30.2351 54.3913 30.4638 54.3913 30.7621V39H52.5866ZM57.3817 39V31.3636H59.1815V39H57.3817ZM58.2866 30.2798C58.0015 30.2798 57.7563 30.1854 57.5508 29.9964C57.3453 29.8042 57.2425 29.5739 57.2425 29.3054C57.2425 29.0336 57.3453 28.8033 57.5508 28.6143C57.7563 28.4221 58.0015 28.326 58.2866 28.326C58.5749 28.326 58.8202 28.4221 59.0224 28.6143C59.2279 28.8033 59.3306 29.0336 59.3306 29.3054C59.3306 29.5739 59.2279 29.8042 59.0224 29.9964C58.8202 30.1854 58.5749 30.2798 58.2866 30.2798ZM64.3631 39.1491C63.6008 39.1491 62.9462 38.9818 62.3993 38.647C61.8558 38.3123 61.4365 37.8499 61.1415 37.2599C60.8498 36.6667 60.704 35.9839 60.704 35.2116C60.704 34.4361 60.8532 33.7517 61.1515 33.1584C61.4498 32.5618 61.8707 32.0978 62.4142 31.7663C62.9611 31.4316 63.6074 31.2642 64.3532 31.2642C64.973 31.2642 65.5215 31.3786 65.9988 31.6072C66.4793 31.8326 66.8622 32.1525 67.1472 32.5668C67.4322 32.9777 67.5946 33.4583 67.6344 34.0085H65.9142C65.8446 33.6406 65.6789 33.334 65.4171 33.0888C65.1586 32.8402 64.8122 32.7159 64.378 32.7159C64.0101 32.7159 63.687 32.8153 63.4086 33.0142C63.1301 33.2098 62.9131 33.4915 62.7573 33.8594C62.6048 34.2273 62.5286 34.6681 62.5286 35.1818C62.5286 35.7022 62.6048 36.1496 62.7573 36.5241C62.9097 36.8954 63.1235 37.1821 63.3986 37.3842C63.677 37.5831 64.0035 37.6825 64.378 37.6825C64.6432 37.6825 64.8801 37.6328 65.089 37.5334C65.3011 37.4306 65.4784 37.2831 65.6209 37.0909C65.7634 36.8987 65.8612 36.665 65.9142 36.3899H67.6344C67.5913 36.9302 67.4322 37.4091 67.1571 37.8267C66.882 38.241 66.5075 38.5658 66.0336 38.8011C65.5596 39.0331 65.0028 39.1491 64.3631 39.1491ZM72.6644 39V28.8182H74.4641V32.6264H74.5387C74.6315 32.4408 74.7624 32.2436 74.9315 32.0348C75.1005 31.8227 75.3292 31.642 75.6175 31.4929C75.9059 31.3404 76.2738 31.2642 76.7212 31.2642C77.3112 31.2642 77.8432 31.415 78.3171 31.7166C78.7944 32.0149 79.1722 32.4574 79.4506 33.044C79.7324 33.6274 79.8732 34.3433 79.8732 35.1918C79.8732 36.0303 79.7357 36.7429 79.4606 37.3295C79.1855 37.9162 78.811 38.3636 78.337 38.6719C77.863 38.9801 77.3261 39.1342 76.7262 39.1342C76.2887 39.1342 75.9258 39.0613 75.6374 38.9155C75.3491 38.7696 75.1171 38.594 74.9414 38.3885C74.7691 38.1797 74.6348 37.9825 74.5387 37.7969H74.4343V39H72.6644ZM74.4293 35.1818C74.4293 35.6757 74.4989 36.1082 74.6381 36.4794C74.7807 36.8506 74.9845 37.1406 75.2496 37.3494C75.5181 37.5549 75.8429 37.6577 76.2241 37.6577C76.6218 37.6577 76.9549 37.5516 77.2234 37.3395C77.4918 37.1241 77.694 36.8307 77.8299 36.4595C77.9691 36.085 78.0387 35.6591 78.0387 35.1818C78.0387 34.7079 77.9708 34.2869 77.8349 33.919C77.699 33.5511 77.4968 33.2628 77.2283 33.054C76.9599 32.8452 76.6251 32.7408 76.2241 32.7408C75.8396 32.7408 75.5131 32.8419 75.2447 33.044C74.9762 33.2462 74.7724 33.5296 74.6332 33.8942C74.4973 34.2588 74.4293 34.688 74.4293 35.1818ZM82.2621 41.8636C82.0168 41.8636 81.7898 41.8438 81.581 41.804C81.3755 41.7675 81.2114 41.7244 81.0888 41.6747L81.5064 40.2727C81.7682 40.349 82.0019 40.3854 82.2074 40.3821C82.4129 40.3788 82.5935 40.3142 82.7493 40.1882C82.9084 40.0656 83.0426 39.8601 83.152 39.5717L83.3061 39.1591L80.5369 31.3636H82.446L84.206 37.1307H84.2855L86.0504 31.3636H87.9645L84.907 39.9247C84.7644 40.3291 84.5755 40.6754 84.3402 40.9638C84.1049 41.2554 83.8165 41.4775 83.4751 41.63C83.1371 41.7857 82.7327 41.8636 82.2621 41.8636ZM96.2124 39H92.7621V28.8182H96.282C97.2929 28.8182 98.1612 29.022 98.8871 29.4297C99.6162 29.834 100.176 30.4157 100.567 31.1747C100.959 31.9337 101.154 32.8419 101.154 33.8991C101.154 34.9598 100.957 35.8712 100.562 36.6335C100.171 37.3958 99.6063 37.9808 98.8672 38.3885C98.1314 38.7962 97.2464 39 96.2124 39ZM94.6065 37.4041H96.1229C96.8321 37.4041 97.4238 37.2749 97.8977 37.0163C98.3717 36.7545 98.728 36.3651 98.9666 35.848C99.2053 35.3277 99.3246 34.678 99.3246 33.8991C99.3246 33.1203 99.2053 32.474 98.9666 31.9602C98.728 31.4432 98.375 31.0571 97.9077 30.8018C97.4437 30.5433 96.867 30.4141 96.1776 30.4141H94.6065V37.4041ZM106.208 39.1491C105.442 39.1491 104.781 38.9901 104.224 38.6719C103.671 38.3504 103.245 37.8963 102.946 37.3097C102.648 36.7197 102.499 36.0253 102.499 35.2266C102.499 34.4411 102.648 33.7517 102.946 33.1584C103.248 32.5618 103.669 32.0978 104.209 31.7663C104.749 31.4316 105.384 31.2642 106.113 31.2642C106.584 31.2642 107.028 31.3404 107.446 31.4929C107.867 31.642 108.238 31.8741 108.559 32.1889C108.884 32.5038 109.139 32.9048 109.325 33.392C109.511 33.8759 109.603 34.4527 109.603 35.1222V35.674H103.344V34.4609H107.878C107.875 34.1162 107.8 33.8097 107.654 33.5412C107.509 33.2694 107.305 33.0556 107.043 32.8999C106.784 32.7441 106.483 32.6662 106.138 32.6662C105.77 32.6662 105.447 32.7557 105.169 32.9347C104.89 33.1103 104.673 33.3423 104.517 33.6307C104.365 33.9157 104.287 34.2289 104.284 34.5703V35.6293C104.284 36.0734 104.365 36.4545 104.527 36.7727C104.69 37.0876 104.917 37.3295 105.208 37.4986C105.5 37.6643 105.842 37.7472 106.233 37.7472C106.494 37.7472 106.731 37.7107 106.944 37.6378C107.156 37.5616 107.34 37.4505 107.495 37.3047C107.651 37.1589 107.769 36.9782 107.848 36.7628L109.529 36.9517C109.423 37.3958 109.221 37.7836 108.922 38.1151C108.627 38.4432 108.249 38.6984 107.789 38.8807C107.328 39.0597 106.801 39.1491 106.208 39.1491ZM117.728 31.3636L115.009 39H113.02L110.301 31.3636H112.22L113.975 37.0362H114.054L115.814 31.3636H117.728ZM118.974 39V31.3636H120.773V39H118.974ZM119.878 30.2798C119.593 30.2798 119.348 30.1854 119.143 29.9964C118.937 29.8042 118.834 29.5739 118.834 29.3054C118.834 29.0336 118.937 28.8033 119.143 28.6143C119.348 28.4221 119.593 28.326 119.878 28.326C120.167 28.326 120.412 28.4221 120.614 28.6143C120.82 28.8033 120.922 29.0336 120.922 29.3054C120.922 29.5739 120.82 29.8042 120.614 29.9964C120.412 30.1854 120.167 30.2798 119.878 30.2798ZM125.955 39.1491C125.193 39.1491 124.538 38.9818 123.991 38.647C123.448 38.3123 123.028 37.8499 122.733 37.2599C122.442 36.6667 122.296 35.9839 122.296 35.2116C122.296 34.4361 122.445 33.7517 122.743 33.1584C123.042 32.5618 123.462 32.0978 124.006 31.7663C124.553 31.4316 125.199 31.2642 125.945 31.2642C126.565 31.2642 127.113 31.3786 127.591 31.6072C128.071 31.8326 128.454 32.1525 128.739 32.5668C129.024 32.9777 129.186 33.4583 129.226 34.0085H127.506C127.436 33.6406 127.271 33.334 127.009 33.0888C126.75 32.8402 126.404 32.7159 125.97 32.7159C125.602 32.7159 125.279 32.8153 125 33.0142C124.722 33.2098 124.505 33.4915 124.349 33.8594C124.197 34.2273 124.12 34.6681 124.12 35.1818C124.12 35.7022 124.197 36.1496 124.349 36.5241C124.502 36.8954 124.715 37.1821 124.99 37.3842C125.269 37.5831 125.595 37.6825 125.97 37.6825C126.235 37.6825 126.472 37.6328 126.681 37.5334C126.893 37.4306 127.07 37.2831 127.213 37.0909C127.355 36.8987 127.453 36.665 127.506 36.3899H129.226C129.183 36.9302 129.024 37.4091 128.749 37.8267C128.474 38.241 128.099 38.5658 127.625 38.8011C127.151 39.0331 126.595 39.1491 125.955 39.1491ZM134.085 39.1491C133.319 39.1491 132.658 38.9901 132.101 38.6719C131.548 38.3504 131.122 37.8963 130.823 37.3097C130.525 36.7197 130.376 36.0253 130.376 35.2266C130.376 34.4411 130.525 33.7517 130.823 33.1584C131.125 32.5618 131.546 32.0978 132.086 31.7663C132.626 31.4316 133.261 31.2642 133.99 31.2642C134.461 31.2642 134.905 31.3404 135.323 31.4929C135.744 31.642 136.115 31.8741 136.436 32.1889C136.761 32.5038 137.016 32.9048 137.202 33.392C137.387 33.8759 137.48 34.4527 137.48 35.1222V35.674H131.221V34.4609H135.755C135.752 34.1162 135.677 33.8097 135.531 33.5412C135.386 33.2694 135.182 33.0556 134.92 32.8999C134.661 32.7441 134.36 32.6662 134.015 32.6662C133.647 32.6662 133.324 32.7557 133.046 32.9347C132.767 33.1103 132.55 33.3423 132.394 33.6307C132.242 33.9157 132.164 34.2289 132.161 34.5703V35.6293C132.161 36.0734 132.242 36.4545 132.404 36.7727C132.567 37.0876 132.794 37.3295 133.085 37.4986C133.377 37.6643 133.718 37.7472 134.11 37.7472C134.371 37.7472 134.608 37.7107 134.82 37.6378C135.033 37.5616 135.217 37.4505 135.372 37.3047C135.528 37.1589 135.646 36.9782 135.725 36.7628L137.406 36.9517C137.3 37.3958 137.097 37.7836 136.799 38.1151C136.504 38.4432 136.126 38.6984 135.666 38.8807C135.205 39.0597 134.678 39.1491 134.085 39.1491Z" fill="black"/>
<path d="M24.9038 86.8182H25.9776C26.0089 87.1136 26.1097 87.3636 26.2802 87.5682C26.4535 87.7699 26.6779 87.9233 26.9535 88.0284C27.229 88.1307 27.5344 88.1818 27.8697 88.1818C28.2333 88.1818 28.56 88.1207 28.8498 87.9986C29.1396 87.8764 29.3697 87.6946 29.5401 87.4531C29.7106 87.2088 29.7958 86.9062 29.7958 86.5455C29.7958 86.2301 29.7219 85.9375 29.5742 85.6676C29.4265 85.3949 29.1893 85.1747 28.8626 85.0071C28.5359 84.8395 28.1026 84.7557 27.5629 84.7557H26.864V83.9034L29.0458 81.2784V81.2102H25.3299V80.2727H30.4947V81.0398L28.1594 83.8693V83.9375C28.5344 83.9545 28.8839 84.0312 29.2077 84.1676C29.5344 84.304 29.8185 84.4886 30.06 84.7216C30.3043 84.9545 30.4947 85.2259 30.631 85.5355C30.7674 85.8452 30.8356 86.1818 30.8356 86.5455C30.8356 87.0426 30.7077 87.4858 30.4521 87.875C30.1992 88.2614 29.8484 88.5653 29.3995 88.7869C28.9535 89.0085 28.4379 89.1193 27.8526 89.1193C27.3356 89.1193 26.8597 89.0284 26.4251 88.8466C25.9904 88.6648 25.6367 88.402 25.364 88.0582C25.0913 87.7145 24.9379 87.3011 24.9038 86.8182ZM35.4219 89.1193C34.7798 89.1193 34.233 88.9446 33.7812 88.5952C33.3295 88.2429 32.9844 87.733 32.7457 87.0653C32.5071 86.3949 32.3878 85.5852 32.3878 84.6364C32.3878 83.6932 32.5071 82.8878 32.7457 82.2202C32.9872 81.5497 33.3338 81.0384 33.7855 80.6861C34.2401 80.331 34.7855 80.1534 35.4219 80.1534C36.0582 80.1534 36.6023 80.331 37.054 80.6861C37.5085 81.0384 37.8551 81.5497 38.0938 82.2202C38.3352 82.8878 38.456 83.6932 38.456 84.6364C38.456 85.5852 38.3366 86.3949 38.098 87.0653C37.8594 87.733 37.5142 88.2429 37.0625 88.5952C36.6108 88.9446 36.0639 89.1193 35.4219 89.1193ZM35.4219 88.1818C36.0582 88.1818 36.5526 87.875 36.9048 87.2614C37.2571 86.6477 37.4332 85.7727 37.4332 84.6364C37.4332 83.8807 37.3523 83.2372 37.1903 82.706C37.0313 82.1747 36.8011 81.7699 36.5 81.4915C36.2017 81.2131 35.8423 81.0739 35.4219 81.0739C34.7912 81.0739 34.2983 81.3849 33.9432 82.0071C33.5881 82.6264 33.4105 83.5028 33.4105 84.6364C33.4105 85.392 33.4901 86.0341 33.6491 86.5625C33.8082 87.0909 34.0369 87.4929 34.3352 87.7685C34.6364 88.044 34.9986 88.1818 35.4219 88.1818ZM40.2287 89V80.2727H41.2855V84.6023H41.3878L45.3082 80.2727H46.6889L43.0241 84.2102L46.6889 89H45.4105L42.3764 84.9432L41.2855 86.1705V89H40.2287Z" fill="black" fill-opacity="0.4"/>
<path d="M25.3097 138V137.233L28.1903 134.08C28.5284 133.71 28.8068 133.389 29.0256 133.116C29.2443 132.841 29.4063 132.582 29.5114 132.341C29.6193 132.097 29.6733 131.841 29.6733 131.574C29.6733 131.267 29.5994 131.001 29.4517 130.777C29.3068 130.553 29.108 130.379 28.8551 130.257C28.6023 130.135 28.3182 130.074 28.0028 130.074C27.6676 130.074 27.375 130.143 27.125 130.283C26.8778 130.419 26.6861 130.611 26.5497 130.858C26.4162 131.105 26.3494 131.395 26.3494 131.727H25.3438C25.3438 131.216 25.4616 130.767 25.6974 130.381C25.9332 129.994 26.2543 129.693 26.6605 129.477C27.0696 129.261 27.5284 129.153 28.0369 129.153C28.5483 129.153 29.0014 129.261 29.3963 129.477C29.7912 129.693 30.1009 129.984 30.3253 130.351C30.5497 130.717 30.6619 131.125 30.6619 131.574C30.6619 131.895 30.6037 132.209 30.4872 132.516C30.3736 132.82 30.1747 133.159 29.8906 133.534C29.6094 133.906 29.2188 134.361 28.7188 134.898L26.7585 136.994V137.062H30.8153V138H25.3097ZM35.4219 138.119C34.7798 138.119 34.233 137.945 33.7812 137.595C33.3295 137.243 32.9844 136.733 32.7457 136.065C32.5071 135.395 32.3878 134.585 32.3878 133.636C32.3878 132.693 32.5071 131.888 32.7457 131.22C32.9872 130.55 33.3338 130.038 33.7855 129.686C34.2401 129.331 34.7855 129.153 35.4219 129.153C36.0582 129.153 36.6023 129.331 37.054 129.686C37.5085 130.038 37.8551 130.55 38.0938 131.22C38.3352 131.888 38.456 132.693 38.456 133.636C38.456 134.585 38.3366 135.395 38.098 136.065C37.8594 136.733 37.5142 137.243 37.0625 137.595C36.6108 137.945 36.0639 138.119 35.4219 138.119ZM35.4219 137.182C36.0582 137.182 36.5526 136.875 36.9048 136.261C37.2571 135.648 37.4332 134.773 37.4332 133.636C37.4332 132.881 37.3523 132.237 37.1903 131.706C37.0313 131.175 36.8011 130.77 36.5 130.491C36.2017 130.213 35.8423 130.074 35.4219 130.074C34.7912 130.074 34.2983 130.385 33.9432 131.007C33.5881 131.626 33.4105 132.503 33.4105 133.636C33.4105 134.392 33.4901 135.034 33.6491 135.562C33.8082 136.091 34.0369 136.493 34.3352 136.768C34.6364 137.044 34.9986 137.182 35.4219 137.182ZM40.2287 138V129.273H41.2855V133.602H41.3878L45.3082 129.273H46.6889L43.0241 133.21L46.6889 138H45.4105L42.3764 133.943L41.2855 135.17V138H40.2287Z" fill="black" fill-opacity="0.4"/>
<path d="M30.0739 178.273V187H29.017V179.807H28.9489C28.9091 179.886 28.8068 179.977 28.642 180.08C28.4773 180.179 28.2642 180.267 28.0028 180.344C27.7415 180.418 27.4432 180.455 27.108 180.455V179.568C27.446 179.568 27.7386 179.507 27.9858 179.385C28.233 179.263 28.4389 179.119 28.6037 178.955C28.7713 178.79 28.8977 178.641 28.983 178.507C29.071 178.374 29.1222 178.295 29.1364 178.273H30.0739ZM35.4219 187.119C34.7798 187.119 34.233 186.945 33.7812 186.595C33.3295 186.243 32.9844 185.733 32.7457 185.065C32.5071 184.395 32.3878 183.585 32.3878 182.636C32.3878 181.693 32.5071 180.888 32.7457 180.22C32.9872 179.55 33.3338 179.038 33.7855 178.686C34.2401 178.331 34.7855 178.153 35.4219 178.153C36.0582 178.153 36.6023 178.331 37.054 178.686C37.5085 179.038 37.8551 179.55 38.0938 180.22C38.3352 180.888 38.456 181.693 38.456 182.636C38.456 183.585 38.3366 184.395 38.098 185.065C37.8594 185.733 37.5142 186.243 37.0625 186.595C36.6108 186.945 36.0639 187.119 35.4219 187.119ZM35.4219 186.182C36.0582 186.182 36.5526 185.875 36.9048 185.261C37.2571 184.648 37.4332 183.773 37.4332 182.636C37.4332 181.881 37.3523 181.237 37.1903 180.706C37.0313 180.175 36.8011 179.77 36.5 179.491C36.2017 179.213 35.8423 179.074 35.4219 179.074C34.7912 179.074 34.2983 179.385 33.9432 180.007C33.5881 180.626 33.4105 181.503 33.4105 182.636C33.4105 183.392 33.4901 184.034 33.6491 184.562C33.8082 185.091 34.0369 185.493 34.3352 185.768C34.6364 186.044 34.9986 186.182 35.4219 186.182ZM40.2287 187V178.273H41.2855V182.602H41.3878L45.3082 178.273H46.6889L43.0241 182.21L46.6889 187H45.4105L42.3764 182.943L41.2855 184.17V187H40.2287Z" fill="black" fill-opacity="0.4"/>
<path d="M43.25 236.119C42.608 236.119 42.0611 235.945 41.6094 235.595C41.1577 235.243 40.8125 234.733 40.5739 234.065C40.3352 233.395 40.2159 232.585 40.2159 231.636C40.2159 230.693 40.3352 229.888 40.5739 229.22C40.8153 228.55 41.1619 228.038 41.6136 227.686C42.0682 227.331 42.6136 227.153 43.25 227.153C43.8864 227.153 44.4304 227.331 44.8821 227.686C45.3366 228.038 45.6832 228.55 45.9219 229.22C46.1634 229.888 46.2841 230.693 46.2841 231.636C46.2841 232.585 46.1648 233.395 45.9261 234.065C45.6875 234.733 45.3423 235.243 44.8906 235.595C44.4389 235.945 43.892 236.119 43.25 236.119ZM43.25 235.182C43.8864 235.182 44.3807 234.875 44.733 234.261C45.0852 233.648 45.2614 232.773 45.2614 231.636C45.2614 230.881 45.1804 230.237 45.0185 229.706C44.8594 229.175 44.6293 228.77 44.3281 228.491C44.0298 228.213 43.6705 228.074 43.25 228.074C42.6193 228.074 42.1264 228.385 41.7713 229.007C41.4162 229.626 41.2386 230.503 41.2386 231.636C41.2386 232.392 41.3182 233.034 41.4773 233.562C41.6364 234.091 41.8651 234.493 42.1634 234.768C42.4645 235.044 42.8267 235.182 43.25 235.182Z" fill="black" fill-opacity="0.4"/>
<path d="M78 156.8C78 152.32 78 150.079 78.8719 148.368C79.6389 146.863 80.8628 145.639 82.3681 144.872C84.0794 144 86.3196 144 90.8 144H93.2C97.6804 144 99.9206 144 101.632 144.872C103.137 145.639 104.361 146.863 105.128 148.368C106 150.079 106 152.32 106 156.8V215.2C106 219.68 106 221.921 105.128 223.632C104.361 225.137 103.137 226.361 101.632 227.128C99.9206 228 97.6804 228 93.2 228H90.8C86.3196 228 84.0794 228 82.3681 227.128C80.8628 226.361 79.6389 225.137 78.8719 223.632C78 221.921 78 219.68 78 215.2V156.8Z" fill="#9F9FF8"/>
<path d="M135.5 93.8C135.5 89.3196 135.5 87.0794 136.372 85.3681C137.139 83.8628 138.363 82.6389 139.868 81.8719C141.579 81 143.82 81 148.3 81H150.7C155.18 81 157.421 81 159.132 81.8719C160.637 82.6389 161.861 83.8628 162.628 85.3681C163.5 87.0794 163.5 89.3196 163.5 93.8V215.2C163.5 219.68 163.5 221.921 162.628 223.632C161.861 225.137 160.637 226.361 159.132 227.128C157.421 228 155.18 228 150.7 228H148.3C143.82 228 141.579 228 139.868 227.128C138.363 226.361 137.139 225.137 136.372 223.632C135.5 221.921 135.5 219.68 135.5 215.2V93.8Z" fill="#96E2D6"/>
<path d="M193 135.8C193 131.32 193 129.079 193.872 127.368C194.639 125.863 195.863 124.639 197.368 123.872C199.079 123 201.32 123 205.8 123H208.2C212.68 123 214.921 123 216.632 123.872C218.137 124.639 219.361 125.863 220.128 127.368C221 129.079 221 131.32 221 135.8V215.2C221 219.68 221 221.921 220.128 223.632C219.361 225.137 218.137 226.361 216.632 227.128C214.921 228 212.68 228 208.2 228H205.8C201.32 228 199.079 228 197.368 227.128C195.863 226.361 194.639 225.137 193.872 223.632C193 221.921 193 219.68 193 215.2V135.8Z" fill="black"/>
<path d="M250.5 72.8C250.5 68.3196 250.5 66.0794 251.372 64.3681C252.139 62.8628 253.363 61.6389 254.868 60.8719C256.579 60 258.82 60 263.3 60H265.7C270.18 60 272.421 60 274.132 60.8719C275.637 61.6389 276.861 62.8628 277.628 64.3681C278.5 66.0794 278.5 68.3196 278.5 72.8V215.2C278.5 219.68 278.5 221.921 277.628 223.632C276.861 225.137 275.637 226.361 274.132 227.128C272.421 228 270.18 228 265.7 228H263.3C258.82 228 256.579 228 254.868 227.128C253.363 226.361 252.139 225.137 251.372 223.632C250.5 221.921 250.5 219.68 250.5 215.2V72.8Z" fill="#92BFFF"/>
<path d="M308 177.8C308 173.32 308 171.079 308.872 169.368C309.639 167.863 310.863 166.639 312.368 165.872C314.079 165 316.32 165 320.8 165H323.2C327.68 165 329.921 165 331.632 165.872C333.137 166.639 334.361 167.863 335.128 169.368C336 171.079 336 173.32 336 177.8V215.2C336 219.68 336 221.921 335.128 223.632C334.361 225.137 333.137 226.361 331.632 227.128C329.921 228 327.68 228 323.2 228H320.8C316.32 228 314.079 228 312.368 227.128C310.863 226.361 309.639 225.137 308.872 223.632C308 221.921 308 219.68 308 215.2V177.8Z" fill="#AEC7ED"/>
<path d="M365.5 114.8C365.5 110.32 365.5 108.079 366.372 106.368C367.139 104.863 368.363 103.639 369.868 102.872C371.579 102 373.82 102 378.3 102H380.7C385.18 102 387.421 102 389.132 102.872C390.637 103.639 391.861 104.863 392.628 106.368C393.5 108.079 393.5 110.32 393.5 114.8V215.2C393.5 219.68 393.5 221.921 392.628 223.632C391.861 225.137 390.637 226.361 389.132 227.128C387.421 228 385.18 228 380.7 228H378.3C373.82 228 371.579 228 369.868 227.128C368.363 226.361 367.139 225.137 366.372 223.632C365.5 221.921 365.5 219.68 365.5 215.2V114.8Z" fill="#94E9B8"/>
<path d="M77.7717 252V243.273H78.8285V251.062H82.8853V252H77.7717ZM84.3853 252V245.455H85.391V252H84.3853ZM84.8967 244.364C84.7006 244.364 84.5316 244.297 84.3896 244.163C84.2504 244.03 84.1808 243.869 84.1808 243.682C84.1808 243.494 84.2504 243.334 84.3896 243.2C84.5316 243.067 84.7006 243 84.8967 243C85.0927 243 85.2603 243.067 85.3995 243.2C85.5415 243.334 85.6126 243.494 85.6126 243.682C85.6126 243.869 85.5415 244.03 85.3995 244.163C85.2603 244.297 85.0927 244.364 84.8967 244.364ZM88.2386 248.062V252H87.233V245.455H88.2045V246.477H88.2898C88.4432 246.145 88.6761 245.878 88.9886 245.676C89.3011 245.472 89.7045 245.369 90.1989 245.369C90.642 245.369 91.0298 245.46 91.3622 245.642C91.6946 245.821 91.9531 246.094 92.1378 246.46C92.3224 246.824 92.4148 247.284 92.4148 247.841V252H91.4091V247.909C91.4091 247.395 91.2756 246.994 91.0085 246.707C90.7415 246.418 90.375 246.273 89.9091 246.273C89.5881 246.273 89.3011 246.342 89.0483 246.482C88.7983 246.621 88.6009 246.824 88.456 247.091C88.3111 247.358 88.2386 247.682 88.2386 248.062ZM98.3775 249.324V245.455H99.3832V252H98.3775V250.892H98.3093C98.1559 251.224 97.9173 251.507 97.5934 251.74C97.2695 251.97 96.8604 252.085 96.3661 252.085C95.957 252.085 95.5934 251.996 95.2752 251.817C94.957 251.635 94.707 251.362 94.5252 250.999C94.3434 250.632 94.2525 250.17 94.2525 249.614V245.455H95.2582V249.545C95.2582 250.023 95.3917 250.403 95.6587 250.688C95.9286 250.972 96.2724 251.114 96.69 251.114C96.94 251.114 97.1942 251.05 97.4528 250.922C97.7141 250.794 97.9329 250.598 98.109 250.334C98.288 250.07 98.3775 249.733 98.3775 249.324ZM101.975 245.455L103.543 248.131L105.112 245.455H106.271L104.157 248.727L106.271 252H105.112L103.543 249.46L101.975 252H100.816L102.896 248.727L100.816 245.455H101.975Z" fill="black" fill-opacity="0.4"/>
<path d="M138.237 243.273H139.498L142.464 250.517H142.566L145.532 243.273H146.793V252H145.805V245.369H145.719L142.992 252H142.038L139.31 245.369H139.225V252H138.237V243.273ZM150.702 252.153C150.287 252.153 149.911 252.075 149.573 251.919C149.235 251.76 148.966 251.531 148.767 251.233C148.569 250.932 148.469 250.568 148.469 250.142C148.469 249.767 148.543 249.463 148.691 249.23C148.838 248.994 149.036 248.81 149.283 248.676C149.53 248.543 149.803 248.443 150.101 248.378C150.402 248.31 150.705 248.256 151.009 248.216C151.407 248.165 151.729 248.126 151.976 248.101C152.226 248.072 152.408 248.026 152.522 247.96C152.638 247.895 152.696 247.781 152.696 247.619V247.585C152.696 247.165 152.581 246.838 152.351 246.605C152.124 246.372 151.779 246.256 151.316 246.256C150.836 246.256 150.459 246.361 150.186 246.571C149.914 246.781 149.722 247.006 149.611 247.244L148.657 246.903C148.827 246.506 149.054 246.196 149.338 245.974C149.625 245.75 149.938 245.594 150.276 245.506C150.617 245.415 150.952 245.369 151.282 245.369C151.492 245.369 151.733 245.395 152.006 245.446C152.282 245.494 152.547 245.595 152.803 245.749C153.061 245.902 153.276 246.134 153.446 246.443C153.617 246.753 153.702 247.168 153.702 247.688V252H152.696V251.114H152.645C152.577 251.256 152.463 251.408 152.304 251.57C152.145 251.732 151.934 251.869 151.669 251.983C151.405 252.097 151.083 252.153 150.702 252.153ZM150.855 251.25C151.253 251.25 151.588 251.172 151.861 251.016C152.137 250.859 152.344 250.658 152.483 250.411C152.625 250.163 152.696 249.903 152.696 249.631V248.71C152.654 248.761 152.56 248.808 152.415 248.851C152.273 248.891 152.108 248.926 151.921 248.957C151.736 248.986 151.556 249.011 151.38 249.034C151.206 249.054 151.066 249.071 150.958 249.085C150.696 249.119 150.452 249.175 150.225 249.251C150 249.325 149.819 249.437 149.679 249.588C149.543 249.736 149.475 249.937 149.475 250.193C149.475 250.543 149.604 250.807 149.863 250.986C150.124 251.162 150.455 251.25 150.855 251.25ZM158.197 252.136C157.583 252.136 157.055 251.991 156.612 251.702C156.168 251.412 155.827 251.013 155.589 250.504C155.35 249.996 155.231 249.415 155.231 248.761C155.231 248.097 155.353 247.51 155.597 247.001C155.844 246.49 156.188 246.091 156.629 245.804C157.072 245.514 157.589 245.369 158.18 245.369C158.64 245.369 159.055 245.455 159.424 245.625C159.793 245.795 160.096 246.034 160.332 246.341C160.567 246.648 160.714 247.006 160.771 247.415H159.765C159.688 247.116 159.518 246.852 159.254 246.622C158.992 246.389 158.64 246.273 158.197 246.273C157.805 246.273 157.461 246.375 157.165 246.58C156.873 246.781 156.644 247.067 156.479 247.436C156.317 247.803 156.237 248.233 156.237 248.727C156.237 249.233 156.316 249.673 156.475 250.048C156.637 250.423 156.864 250.714 157.157 250.922C157.452 251.129 157.799 251.233 158.197 251.233C158.458 251.233 158.695 251.188 158.908 251.097C159.121 251.006 159.302 250.875 159.45 250.705C159.597 250.534 159.702 250.33 159.765 250.091H160.771C160.714 250.477 160.573 250.825 160.349 251.135C160.127 251.442 159.833 251.686 159.467 251.868C159.103 252.047 158.68 252.136 158.197 252.136Z" fill="black" fill-opacity="0.4"/>
<path d="M197.85 252V245.455H198.856V252H197.85ZM198.362 244.364C198.165 244.364 197.996 244.297 197.854 244.163C197.715 244.03 197.646 243.869 197.646 243.682C197.646 243.494 197.715 243.334 197.854 243.2C197.996 243.067 198.165 243 198.362 243C198.558 243 198.725 243.067 198.864 243.2C199.006 243.334 199.077 243.494 199.077 243.682C199.077 243.869 199.006 244.03 198.864 244.163C198.725 244.297 198.558 244.364 198.362 244.364ZM208.198 247.636C208.198 248.557 208.032 249.352 207.699 250.023C207.367 250.693 206.911 251.21 206.331 251.574C205.752 251.938 205.09 252.119 204.346 252.119C203.601 252.119 202.939 251.938 202.36 251.574C201.78 251.21 201.324 250.693 200.992 250.023C200.659 249.352 200.493 248.557 200.493 247.636C200.493 246.716 200.659 245.92 200.992 245.25C201.324 244.58 201.78 244.062 202.36 243.699C202.939 243.335 203.601 243.153 204.346 243.153C205.09 243.153 205.752 243.335 206.331 243.699C206.911 244.062 207.367 244.58 207.699 245.25C208.032 245.92 208.198 246.716 208.198 247.636ZM207.175 247.636C207.175 246.881 207.049 246.243 206.796 245.723C206.546 245.203 206.206 244.81 205.777 244.543C205.351 244.276 204.874 244.142 204.346 244.142C203.817 244.142 203.338 244.276 202.909 244.543C202.483 244.81 202.144 245.203 201.891 245.723C201.641 246.243 201.516 246.881 201.516 247.636C201.516 248.392 201.641 249.03 201.891 249.55C202.144 250.07 202.483 250.463 202.909 250.73C203.338 250.997 203.817 251.131 204.346 251.131C204.874 251.131 205.351 250.997 205.777 250.73C206.206 250.463 206.546 250.07 206.796 249.55C207.049 249.03 207.175 248.392 207.175 247.636ZM214.748 245.455C214.696 245.023 214.489 244.688 214.125 244.449C213.762 244.21 213.316 244.091 212.787 244.091C212.401 244.091 212.063 244.153 211.773 244.278C211.486 244.403 211.262 244.575 211.1 244.794C210.941 245.013 210.861 245.261 210.861 245.54C210.861 245.773 210.917 245.973 211.027 246.141C211.141 246.305 211.286 246.443 211.462 246.554C211.638 246.662 211.823 246.751 212.016 246.822C212.209 246.891 212.387 246.946 212.549 246.989L213.435 247.227C213.662 247.287 213.915 247.369 214.194 247.474C214.475 247.58 214.743 247.723 214.999 247.905C215.257 248.084 215.471 248.314 215.638 248.595C215.806 248.876 215.89 249.222 215.89 249.631C215.89 250.102 215.766 250.528 215.519 250.909C215.275 251.29 214.917 251.592 214.445 251.817C213.976 252.041 213.407 252.153 212.736 252.153C212.111 252.153 211.57 252.053 211.113 251.851C210.658 251.649 210.3 251.368 210.039 251.007C209.78 250.646 209.634 250.227 209.6 249.75H210.691C210.719 250.08 210.83 250.352 211.023 250.568C211.219 250.781 211.466 250.94 211.765 251.045C212.066 251.148 212.39 251.199 212.736 251.199C213.14 251.199 213.502 251.134 213.823 251.003C214.144 250.869 214.398 250.685 214.586 250.449C214.773 250.21 214.867 249.932 214.867 249.614C214.867 249.324 214.786 249.088 214.624 248.906C214.462 248.724 214.249 248.577 213.985 248.463C213.721 248.349 213.435 248.25 213.128 248.165L212.054 247.858C211.373 247.662 210.833 247.382 210.435 247.018C210.037 246.655 209.838 246.179 209.838 245.591C209.838 245.102 209.971 244.676 210.235 244.312C210.502 243.946 210.86 243.662 211.309 243.46C211.76 243.256 212.265 243.153 212.821 243.153C213.384 243.153 213.884 243.254 214.321 243.456C214.759 243.655 215.105 243.928 215.361 244.274C215.62 244.621 215.756 245.014 215.77 245.455H214.748Z" fill="black" fill-opacity="0.4"/>
<path d="M241.058 252L238.672 243.273H239.746L241.569 250.381H241.655L243.513 243.273H244.706L246.564 250.381H246.649L248.473 243.273H249.547L247.16 252H246.069L244.143 245.045H244.075L242.149 252H241.058ZM250.727 252V245.455H251.733V252H250.727ZM251.238 244.364C251.042 244.364 250.873 244.297 250.731 244.163C250.592 244.03 250.523 243.869 250.523 243.682C250.523 243.494 250.592 243.334 250.731 243.2C250.873 243.067 251.042 243 251.238 243C251.434 243 251.602 243.067 251.741 243.2C251.883 243.334 251.954 243.494 251.954 243.682C251.954 243.869 251.883 244.03 251.741 244.163C251.602 244.297 251.434 244.364 251.238 244.364ZM254.58 248.062V252H253.575V245.455H254.546V246.477H254.632C254.785 246.145 255.018 245.878 255.33 245.676C255.643 245.472 256.046 245.369 256.541 245.369C256.984 245.369 257.372 245.46 257.704 245.642C258.036 245.821 258.295 246.094 258.48 246.46C258.664 246.824 258.757 247.284 258.757 247.841V252H257.751V247.909C257.751 247.395 257.617 246.994 257.35 246.707C257.083 246.418 256.717 246.273 256.251 246.273C255.93 246.273 255.643 246.342 255.39 246.482C255.14 246.621 254.943 246.824 254.798 247.091C254.653 247.358 254.58 247.682 254.58 248.062ZM263.066 252.136C262.52 252.136 262.039 251.999 261.621 251.723C261.204 251.445 260.877 251.053 260.641 250.547C260.405 250.038 260.287 249.438 260.287 248.744C260.287 248.057 260.405 247.46 260.641 246.955C260.877 246.449 261.205 246.058 261.626 245.783C262.046 245.507 262.532 245.369 263.083 245.369C263.509 245.369 263.846 245.44 264.093 245.582C264.343 245.722 264.533 245.881 264.664 246.06C264.797 246.236 264.901 246.381 264.975 246.494H265.06V243.273H266.066V252H265.094V250.994H264.975C264.901 251.114 264.796 251.264 264.66 251.446C264.523 251.625 264.329 251.786 264.076 251.928C263.823 252.067 263.486 252.136 263.066 252.136ZM263.202 251.233C263.606 251.233 263.947 251.128 264.225 250.918C264.503 250.705 264.715 250.411 264.86 250.036C265.005 249.658 265.077 249.222 265.077 248.727C265.077 248.239 265.006 247.811 264.864 247.445C264.722 247.075 264.512 246.788 264.233 246.584C263.955 246.376 263.611 246.273 263.202 246.273C262.776 246.273 262.421 246.382 262.137 246.601C261.856 246.817 261.644 247.111 261.502 247.483C261.363 247.852 261.293 248.267 261.293 248.727C261.293 249.193 261.364 249.616 261.506 249.997C261.651 250.375 261.864 250.676 262.145 250.901C262.43 251.122 262.782 251.233 263.202 251.233ZM270.706 252.136C270.116 252.136 269.597 251.996 269.151 251.714C268.708 251.433 268.361 251.04 268.111 250.534C267.864 250.028 267.741 249.437 267.741 248.761C267.741 248.08 267.864 247.484 268.111 246.976C268.361 246.467 268.708 246.072 269.151 245.791C269.597 245.51 270.116 245.369 270.706 245.369C271.297 245.369 271.814 245.51 272.258 245.791C272.704 246.072 273.05 246.467 273.297 246.976C273.547 247.484 273.672 248.08 273.672 248.761C273.672 249.437 273.547 250.028 273.297 250.534C273.05 251.04 272.704 251.433 272.258 251.714C271.814 251.996 271.297 252.136 270.706 252.136ZM270.706 251.233C271.155 251.233 271.525 251.118 271.814 250.888C272.104 250.658 272.319 250.355 272.458 249.98C272.597 249.605 272.667 249.199 272.667 248.761C272.667 248.324 272.597 247.916 272.458 247.538C272.319 247.161 272.104 246.855 271.814 246.622C271.525 246.389 271.155 246.273 270.706 246.273C270.258 246.273 269.888 246.389 269.599 246.622C269.309 246.855 269.094 247.161 268.955 247.538C268.816 247.916 268.746 248.324 268.746 248.761C268.746 249.199 268.816 249.605 268.955 249.98C269.094 250.355 269.309 250.658 269.599 250.888C269.888 251.118 270.258 251.233 270.706 251.233ZM276.468 252L274.474 245.455H275.53L276.945 250.466H277.013L278.411 245.455H279.485L280.866 250.449H280.934L282.349 245.455H283.405L281.411 252H280.422L278.991 246.972H278.888L277.456 252H276.468ZM289.371 246.92L288.468 247.176C288.411 247.026 288.327 246.879 288.216 246.737C288.108 246.592 287.961 246.473 287.773 246.379C287.586 246.286 287.346 246.239 287.053 246.239C286.653 246.239 286.319 246.331 286.052 246.516C285.787 246.697 285.655 246.929 285.655 247.21C285.655 247.46 285.746 247.658 285.928 247.803C286.11 247.947 286.394 248.068 286.78 248.165L287.752 248.403C288.337 248.545 288.773 248.763 289.06 249.055C289.347 249.345 289.491 249.719 289.491 250.176C289.491 250.551 289.383 250.886 289.167 251.182C288.954 251.477 288.655 251.71 288.272 251.881C287.888 252.051 287.442 252.136 286.934 252.136C286.266 252.136 285.714 251.991 285.276 251.702C284.839 251.412 284.562 250.989 284.445 250.432L285.4 250.193C285.491 250.545 285.662 250.81 285.915 250.986C286.171 251.162 286.505 251.25 286.917 251.25C287.385 251.25 287.758 251.151 288.033 250.952C288.312 250.75 288.451 250.509 288.451 250.227C288.451 250 288.371 249.81 288.212 249.656C288.053 249.5 287.809 249.384 287.479 249.307L286.388 249.051C285.789 248.909 285.349 248.689 285.067 248.391C284.789 248.089 284.65 247.713 284.65 247.261C284.65 246.892 284.753 246.565 284.961 246.281C285.171 245.997 285.456 245.774 285.817 245.612C286.181 245.45 286.593 245.369 287.053 245.369C287.701 245.369 288.209 245.511 288.579 245.795C288.951 246.08 289.215 246.455 289.371 246.92Z" fill="black" fill-opacity="0.4"/>
<path d="M301.01 252H299.903L303.107 243.273H304.198L307.403 252H306.295L303.687 244.653H303.618L301.01 252ZM301.42 248.591H305.885V249.528H301.42V248.591ZM309.631 248.062V252H308.626V245.455H309.597V246.477H309.682C309.836 246.145 310.069 245.878 310.381 245.676C310.694 245.472 311.097 245.369 311.591 245.369C312.035 245.369 312.422 245.46 312.755 245.642C313.087 245.821 313.346 246.094 313.53 246.46C313.715 246.824 313.807 247.284 313.807 247.841V252H312.802V247.909C312.802 247.395 312.668 246.994 312.401 246.707C312.134 246.418 311.768 246.273 311.302 246.273C310.981 246.273 310.694 246.342 310.441 246.482C310.191 246.621 309.993 246.824 309.849 247.091C309.704 247.358 309.631 247.682 309.631 248.062ZM318.117 252.136C317.571 252.136 317.09 251.999 316.672 251.723C316.254 251.445 315.928 251.053 315.692 250.547C315.456 250.038 315.338 249.438 315.338 248.744C315.338 248.057 315.456 247.46 315.692 246.955C315.928 246.449 316.256 246.058 316.676 245.783C317.097 245.507 317.583 245.369 318.134 245.369C318.56 245.369 318.896 245.44 319.144 245.582C319.394 245.722 319.584 245.881 319.715 246.06C319.848 246.236 319.952 246.381 320.026 246.494H320.111V243.273H321.117V252H320.145V250.994H320.026C319.952 251.114 319.847 251.264 319.71 251.446C319.574 251.625 319.379 251.786 319.127 251.928C318.874 252.067 318.537 252.136 318.117 252.136ZM318.253 251.233C318.656 251.233 318.997 251.128 319.276 250.918C319.554 250.705 319.766 250.411 319.911 250.036C320.056 249.658 320.128 249.222 320.128 248.727C320.128 248.239 320.057 247.811 319.915 247.445C319.773 247.075 319.563 246.788 319.284 246.584C319.006 246.376 318.662 246.273 318.253 246.273C317.827 246.273 317.472 246.382 317.188 246.601C316.906 246.817 316.695 247.111 316.553 247.483C316.414 247.852 316.344 248.267 316.344 248.727C316.344 249.193 316.415 249.616 316.557 249.997C316.702 250.375 316.915 250.676 317.196 250.901C317.48 251.122 317.833 251.233 318.253 251.233ZM323.098 252V245.455H324.07V246.443H324.138C324.257 246.119 324.473 245.857 324.786 245.655C325.098 245.453 325.45 245.352 325.843 245.352C325.916 245.352 326.009 245.354 326.119 245.357C326.23 245.359 326.314 245.364 326.371 245.369V246.392C326.337 246.384 326.259 246.371 326.137 246.354C326.017 246.334 325.891 246.324 325.757 246.324C325.439 246.324 325.155 246.391 324.905 246.524C324.658 246.655 324.462 246.837 324.317 247.07C324.175 247.3 324.104 247.562 324.104 247.858V252H323.098ZM330.023 252.136C329.432 252.136 328.914 251.996 328.468 251.714C328.024 251.433 327.678 251.04 327.428 250.534C327.181 250.028 327.057 249.437 327.057 248.761C327.057 248.08 327.181 247.484 327.428 246.976C327.678 246.467 328.024 246.072 328.468 245.791C328.914 245.51 329.432 245.369 330.023 245.369C330.614 245.369 331.131 245.51 331.574 245.791C332.02 246.072 332.367 246.467 332.614 246.976C332.864 247.484 332.989 248.08 332.989 248.761C332.989 249.437 332.864 250.028 332.614 250.534C332.367 251.04 332.02 251.433 331.574 251.714C331.131 251.996 330.614 252.136 330.023 252.136ZM330.023 251.233C330.472 251.233 330.841 251.118 331.131 250.888C331.421 250.658 331.635 250.355 331.774 249.98C331.914 249.605 331.983 249.199 331.983 248.761C331.983 248.324 331.914 247.916 331.774 247.538C331.635 247.161 331.421 246.855 331.131 246.622C330.841 246.389 330.472 246.273 330.023 246.273C329.574 246.273 329.205 246.389 328.915 246.622C328.625 246.855 328.411 247.161 328.271 247.538C328.132 247.916 328.063 248.324 328.063 248.761C328.063 249.199 328.132 249.605 328.271 249.98C328.411 250.355 328.625 250.658 328.915 250.888C329.205 251.118 329.574 251.233 330.023 251.233ZM334.524 252V245.455H335.53V252H334.524ZM335.035 244.364C334.839 244.364 334.67 244.297 334.528 244.163C334.389 244.03 334.319 243.869 334.319 243.682C334.319 243.494 334.389 243.334 334.528 243.2C334.67 243.067 334.839 243 335.035 243C335.231 243 335.399 243.067 335.538 243.2C335.68 243.334 335.751 243.494 335.751 243.682C335.751 243.869 335.68 244.03 335.538 244.163C335.399 244.297 335.231 244.364 335.035 244.364ZM339.843 252.136C339.298 252.136 338.816 251.999 338.399 251.723C337.981 251.445 337.654 251.053 337.419 250.547C337.183 250.038 337.065 249.438 337.065 248.744C337.065 248.057 337.183 247.46 337.419 246.955C337.654 246.449 337.982 246.058 338.403 245.783C338.823 245.507 339.309 245.369 339.86 245.369C340.286 245.369 340.623 245.44 340.87 245.582C341.12 245.722 341.311 245.881 341.441 246.06C341.575 246.236 341.678 246.381 341.752 246.494H341.838V243.273H342.843V252H341.872V250.994H341.752C341.678 251.114 341.573 251.264 341.437 251.446C341.301 251.625 341.106 251.786 340.853 251.928C340.6 252.067 340.264 252.136 339.843 252.136ZM339.98 251.233C340.383 251.233 340.724 251.128 341.002 250.918C341.281 250.705 341.492 250.411 341.637 250.036C341.782 249.658 341.855 249.222 341.855 248.727C341.855 248.239 341.784 247.811 341.642 247.445C341.499 247.075 341.289 246.788 341.011 246.584C340.732 246.376 340.389 246.273 339.98 246.273C339.553 246.273 339.198 246.382 338.914 246.601C338.633 246.817 338.421 247.111 338.279 247.483C338.14 247.852 338.07 248.267 338.07 248.727C338.07 249.193 338.142 249.616 338.284 249.997C338.428 250.375 338.642 250.676 338.923 250.901C339.207 251.122 339.559 251.233 339.98 251.233Z" fill="black" fill-opacity="0.4"/>
<path d="M371.581 247.636C371.581 248.557 371.414 249.352 371.082 250.023C370.75 250.693 370.294 251.21 369.714 251.574C369.135 251.938 368.473 252.119 367.728 252.119C366.984 252.119 366.322 251.938 365.743 251.574C365.163 251.21 364.707 250.693 364.375 250.023C364.042 249.352 363.876 248.557 363.876 247.636C363.876 246.716 364.042 245.92 364.375 245.25C364.707 244.58 365.163 244.062 365.743 243.699C366.322 243.335 366.984 243.153 367.728 243.153C368.473 243.153 369.135 243.335 369.714 243.699C370.294 244.062 370.75 244.58 371.082 245.25C371.414 245.92 371.581 246.716 371.581 247.636ZM370.558 247.636C370.558 246.881 370.431 246.243 370.179 245.723C369.929 245.203 369.589 244.81 369.16 244.543C368.734 244.276 368.257 244.142 367.728 244.142C367.2 244.142 366.721 244.276 366.292 244.543C365.866 244.81 365.527 245.203 365.274 245.723C365.024 246.243 364.899 246.881 364.899 247.636C364.899 248.392 365.024 249.03 365.274 249.55C365.527 250.07 365.866 250.463 366.292 250.73C366.721 250.997 367.2 251.131 367.728 251.131C368.257 251.131 368.734 250.997 369.16 250.73C369.589 250.463 369.929 250.07 370.179 249.55C370.431 249.03 370.558 248.392 370.558 247.636ZM376.068 245.455V246.307H372.676V245.455H376.068ZM373.664 243.886H374.67V250.125C374.67 250.409 374.711 250.622 374.794 250.764C374.879 250.903 374.987 250.997 375.118 251.045C375.251 251.091 375.392 251.114 375.539 251.114C375.65 251.114 375.741 251.108 375.812 251.097C375.883 251.082 375.94 251.071 375.983 251.062L376.187 251.966C376.119 251.991 376.024 252.017 375.902 252.043C375.779 252.071 375.625 252.085 375.437 252.085C375.153 252.085 374.875 252.024 374.602 251.902C374.332 251.78 374.108 251.594 373.929 251.344C373.752 251.094 373.664 250.778 373.664 250.398V243.886ZM378.727 248.062V252H377.721V243.273H378.727V246.477H378.812C378.966 246.139 379.196 245.871 379.502 245.672C379.812 245.47 380.224 245.369 380.738 245.369C381.184 245.369 381.575 245.459 381.91 245.638C382.245 245.814 382.505 246.085 382.69 246.452C382.877 246.815 382.971 247.278 382.971 247.841V252H381.966V247.909C381.966 247.389 381.831 246.987 381.561 246.703C381.294 246.416 380.923 246.273 380.449 246.273C380.119 246.273 379.824 246.342 379.562 246.482C379.304 246.621 379.099 246.824 378.949 247.091C378.801 247.358 378.727 247.682 378.727 248.062ZM387.555 252.136C386.925 252.136 386.381 251.997 385.923 251.719C385.469 251.438 385.118 251.045 384.871 250.543C384.626 250.037 384.504 249.449 384.504 248.778C384.504 248.108 384.626 247.517 384.871 247.006C385.118 246.491 385.462 246.091 385.902 245.804C386.345 245.514 386.862 245.369 387.453 245.369C387.794 245.369 388.131 245.426 388.463 245.54C388.795 245.653 389.098 245.838 389.371 246.094C389.643 246.347 389.861 246.682 390.023 247.099C390.185 247.517 390.266 248.031 390.266 248.642V249.068H385.22V248.199H389.243C389.243 247.83 389.169 247.5 389.021 247.21C388.876 246.92 388.669 246.692 388.399 246.524C388.132 246.357 387.817 246.273 387.453 246.273C387.053 246.273 386.706 246.372 386.413 246.571C386.124 246.767 385.901 247.023 385.744 247.338C385.588 247.653 385.51 247.991 385.51 248.352V248.932C385.51 249.426 385.595 249.845 385.766 250.189C385.939 250.53 386.179 250.79 386.486 250.969C386.793 251.145 387.149 251.233 387.555 251.233C387.82 251.233 388.058 251.196 388.271 251.122C388.487 251.045 388.673 250.932 388.83 250.781C388.986 250.628 389.107 250.437 389.192 250.21L390.163 250.483C390.061 250.812 389.889 251.102 389.648 251.352C389.406 251.599 389.108 251.793 388.753 251.932C388.398 252.068 387.999 252.136 387.555 252.136ZM391.795 252V245.455H392.767V246.443H392.835C392.955 246.119 393.17 245.857 393.483 245.655C393.795 245.453 394.148 245.352 394.54 245.352C394.614 245.352 394.706 245.354 394.817 245.357C394.928 245.359 395.011 245.364 395.068 245.369V246.392C395.034 246.384 394.956 246.371 394.834 246.354C394.714 246.334 394.588 246.324 394.455 246.324C394.136 246.324 393.852 246.391 393.602 246.524C393.355 246.655 393.159 246.837 393.014 247.07C392.872 247.3 392.801 247.562 392.801 247.858V252H391.795Z" fill="black" fill-opacity="0.4"/>
</svg>
