<svg width="662" height="330" viewBox="0 0 662 330" fill="none" xmlns="http://www.w3.org/2000/svg">
<path d="M0 16C0 7.16345 7.16344 0 16 0H646C654.837 0 662 7.16344 662 16V314C662 322.837 654.837 330 646 330H16C7.16346 330 0 322.837 0 314V16Z" fill="#F9F9FA"/>
<path d="M24.5568 30.3643V28.8182H32.6804V30.3643H29.5334V39H27.7038V30.3643H24.5568ZM36.3904 39.1491C35.6447 39.1491 34.9984 38.9851 34.4515 38.657C33.9047 38.3288 33.4804 37.8698 33.1788 37.2798C32.8805 36.6899 32.7314 36.0005 32.7314 35.2116C32.7314 34.4228 32.8805 33.7318 33.1788 33.1385C33.4804 32.5452 33.9047 32.0845 34.4515 31.7564C34.9984 31.4283 35.6447 31.2642 36.3904 31.2642C37.1362 31.2642 37.7825 31.4283 38.3294 31.7564C38.8762 32.0845 39.2988 32.5452 39.5971 33.1385C39.8987 33.7318 40.0495 34.4228 40.0495 35.2116C40.0495 36.0005 39.8987 36.6899 39.5971 37.2798C39.2988 37.8698 38.8762 38.3288 38.3294 38.657C37.7825 38.9851 37.1362 39.1491 36.3904 39.1491ZM36.4004 37.7074C36.8047 37.7074 37.1428 37.5964 37.4146 37.3743C37.6864 37.1489 37.8886 36.8473 38.0211 36.4695C38.157 36.0916 38.225 35.6707 38.225 35.2067C38.225 34.7393 38.157 34.3168 38.0211 33.9389C37.8886 33.5578 37.6864 33.2545 37.4146 33.0291C37.1428 32.8037 36.8047 32.6911 36.4004 32.6911C35.9861 32.6911 35.6414 32.8037 35.3663 33.0291C35.0945 33.2545 34.8907 33.5578 34.7548 33.9389C34.6222 34.3168 34.5559 34.7393 34.5559 35.2067C34.5559 35.6707 34.6222 36.0916 34.7548 36.4695C34.8907 36.8473 35.0945 37.1489 35.3663 37.3743C35.6414 37.5964 35.9861 37.7074 36.4004 37.7074ZM45.3903 31.3636V32.7557H41.0004V31.3636H45.3903ZM42.0842 29.5341H43.8839V36.7031C43.8839 36.9451 43.9203 37.1307 43.9933 37.2599C44.0695 37.3859 44.1689 37.4721 44.2915 37.5185C44.4142 37.5649 44.5501 37.5881 44.6992 37.5881C44.8119 37.5881 44.9147 37.5798 45.0075 37.5632C45.1036 37.5466 45.1765 37.5317 45.2262 37.5185L45.5295 38.9254C45.4334 38.9586 45.2958 38.995 45.1168 39.0348C44.9412 39.0746 44.7257 39.0978 44.4705 39.1044C44.0198 39.1177 43.6138 39.0497 43.2525 38.9006C42.8912 38.7481 42.6045 38.5128 42.3924 38.1946C42.1836 37.8764 42.0808 37.4787 42.0842 37.0014V29.5341ZM49.0929 39.1541C48.609 39.1541 48.1731 39.0679 47.7853 38.8956C47.4009 38.7199 47.0959 38.4614 46.8706 38.12C46.6485 37.7786 46.5375 37.3577 46.5375 36.8572C46.5375 36.4264 46.617 36.0701 46.7761 35.7884C46.9352 35.5066 47.1523 35.2812 47.4274 35.1122C47.7025 34.9432 48.0124 34.8156 48.3571 34.7294C48.7051 34.6399 49.0647 34.5753 49.4359 34.5355C49.8833 34.4891 50.2463 34.4477 50.5247 34.4112C50.8031 34.3714 51.0053 34.3118 51.1312 34.2322C51.2605 34.1494 51.3251 34.0218 51.3251 33.8494V33.8196C51.3251 33.4451 51.2141 33.1551 50.992 32.9496C50.7699 32.7441 50.4501 32.6413 50.0325 32.6413C49.5917 32.6413 49.242 32.7375 48.9835 32.9297C48.7283 33.1219 48.5559 33.349 48.4664 33.6108L46.786 33.3722C46.9186 32.9081 47.1374 32.5204 47.4423 32.2088C47.7472 31.8939 48.1201 31.6586 48.5609 31.5028C49.0017 31.3438 49.4889 31.2642 50.0225 31.2642C50.3904 31.2642 50.7567 31.3073 51.1213 31.3935C51.4859 31.4796 51.819 31.6222 52.1206 31.821C52.4222 32.0166 52.6641 32.2834 52.8464 32.6214C53.032 32.9595 53.1248 33.3821 53.1248 33.8892V39H51.3947V37.951H51.335C51.2257 38.1631 51.0716 38.362 50.8727 38.5476C50.6771 38.7299 50.4302 38.8774 50.1319 38.9901C49.8369 39.0994 49.4906 39.1541 49.0929 39.1541ZM49.5602 37.8317C49.9215 37.8317 50.2347 37.7604 50.4998 37.6179C50.765 37.4721 50.9688 37.2798 51.1113 37.0412C51.2572 36.8026 51.3301 36.5424 51.3301 36.2607V35.3608C51.2737 35.4072 51.1776 35.4503 51.0417 35.4901C50.9092 35.5298 50.76 35.5646 50.5943 35.5945C50.4286 35.6243 50.2645 35.6508 50.1021 35.674C49.9397 35.6972 49.7988 35.7171 49.6795 35.7337C49.411 35.7701 49.1708 35.8298 48.9586 35.9126C48.7465 35.9955 48.5791 36.1115 48.4565 36.2607C48.3339 36.4065 48.2725 36.5954 48.2725 36.8274C48.2725 37.1589 48.3935 37.4091 48.6355 37.5781C48.8774 37.7472 49.1857 37.8317 49.5602 37.8317ZM56.7342 28.8182V39H54.9345V28.8182H56.7342ZM68.5554 28.8182H70.3999V35.4702C70.3999 36.1993 70.2275 36.8407 69.8828 37.3942C69.5414 37.9477 69.0608 38.3802 68.4411 38.6918C67.8213 39 67.0971 39.1541 66.2685 39.1541C65.4366 39.1541 64.7107 39 64.0909 38.6918C63.4711 38.3802 62.9905 37.9477 62.6491 37.3942C62.3078 36.8407 62.1371 36.1993 62.1371 35.4702V28.8182H63.9815V35.3161C63.9815 35.7403 64.0743 36.1181 64.2599 36.4496C64.4489 36.781 64.714 37.0412 65.0554 37.2301C65.3968 37.4157 65.8011 37.5085 66.2685 37.5085C66.7358 37.5085 67.1402 37.4157 67.4815 37.2301C67.8262 37.0412 68.0914 36.781 68.277 36.4496C68.4626 36.1181 68.5554 35.7403 68.5554 35.3161V28.8182ZM78.3606 33.3821L76.72 33.5611C76.6736 33.3954 76.5924 33.2396 76.4764 33.0938C76.3637 32.9479 76.2112 32.8303 76.019 32.7408C75.8268 32.6513 75.5914 32.6065 75.313 32.6065C74.9385 32.6065 74.6236 32.6877 74.3684 32.8501C74.1165 33.0125 73.9922 33.223 73.9956 33.4815C73.9922 33.7036 74.0734 33.8842 74.2392 34.0234C74.4082 34.1626 74.6866 34.277 75.0744 34.3665L76.377 34.6449C77.0995 34.8007 77.6364 35.0476 77.9877 35.3857C78.3424 35.7237 78.5214 36.1662 78.5247 36.7131C78.5214 37.1937 78.3805 37.6179 78.1021 37.9858C77.827 38.3504 77.4442 38.6354 76.9537 38.8409C76.4631 39.0464 75.8997 39.1491 75.2633 39.1491C74.3287 39.1491 73.5763 38.9536 73.0062 38.5625C72.4361 38.1681 72.0964 37.6196 71.987 36.9169L73.742 36.7479C73.8216 37.0926 73.9906 37.3527 74.2491 37.5284C74.5076 37.7041 74.844 37.7919 75.2583 37.7919C75.6859 37.7919 76.0289 37.7041 76.2875 37.5284C76.5493 37.3527 76.6802 37.1357 76.6802 36.8771C76.6802 36.6584 76.5957 36.4777 76.4267 36.3352C76.2609 36.1927 76.0024 36.0833 75.6511 36.0071L74.3485 35.7337C73.6161 35.5812 73.0742 35.3243 72.7228 34.9631C72.3715 34.5985 72.1975 34.1378 72.2008 33.581C72.1975 33.1103 72.3251 32.7027 72.5836 32.358C72.8455 32.0099 73.2084 31.7415 73.6724 31.5526C74.1397 31.3603 74.6783 31.2642 75.2882 31.2642C76.1831 31.2642 76.8874 31.4548 77.4011 31.8359C77.9181 32.2171 78.238 32.7325 78.3606 33.3821ZM83.3894 39.1491C82.6238 39.1491 81.9625 38.9901 81.4057 38.6719C80.8522 38.3504 80.4263 37.8963 80.128 37.3097C79.8297 36.7197 79.6806 36.0253 79.6806 35.2266C79.6806 34.4411 79.8297 33.7517 80.128 33.1584C80.4296 32.5618 80.8506 32.0978 81.3908 31.7663C81.931 31.4316 82.5658 31.2642 83.2949 31.2642C83.7656 31.2642 84.2097 31.3404 84.6273 31.4929C85.0482 31.642 85.4194 31.8741 85.7409 32.1889C86.0658 32.5038 86.321 32.9048 86.5066 33.392C86.6922 33.8759 86.785 34.4527 86.785 35.1222V35.674H80.5257V34.4609H85.0598C85.0565 34.1162 84.9819 33.8097 84.8361 33.5412C84.6903 33.2694 84.4864 33.0556 84.2246 32.8999C83.9661 32.7441 83.6645 32.6662 83.3198 32.6662C82.9519 32.6662 82.6287 32.7557 82.3503 32.9347C82.0719 33.1103 81.8548 33.3423 81.699 33.6307C81.5466 33.9157 81.4687 34.2289 81.4654 34.5703V35.6293C81.4654 36.0734 81.5466 36.4545 81.709 36.7727C81.8714 37.0876 82.0984 37.3295 82.3901 37.4986C82.6818 37.6643 83.0231 37.7472 83.4142 37.7472C83.6761 37.7472 83.9131 37.7107 84.1252 37.6378C84.3373 37.5616 84.5212 37.4505 84.677 37.3047C84.8328 37.1589 84.9505 36.9782 85.03 36.7628L86.7104 36.9517C86.6043 37.3958 86.4022 37.7836 86.1039 38.1151C85.8089 38.4432 85.431 38.6984 84.9703 38.8807C84.5096 39.0597 83.9827 39.1491 83.3894 39.1491ZM88.3075 39V31.3636H90.0526V32.6364H90.1321C90.2713 32.1955 90.5099 31.8558 90.848 31.6172C91.1894 31.3752 91.5788 31.2543 92.0163 31.2543C92.1158 31.2543 92.2268 31.2592 92.3494 31.2692C92.4754 31.2758 92.5798 31.2874 92.6626 31.304V32.9595C92.5864 32.933 92.4654 32.9098 92.2997 32.8899C92.1373 32.8667 91.9799 32.8551 91.8274 32.8551C91.4993 32.8551 91.2043 32.9264 90.9425 33.0689C90.6839 33.2081 90.4801 33.402 90.331 33.6506C90.1818 33.8991 90.1072 34.1858 90.1072 34.5107V39H88.3075ZM99.8938 33.3821L98.2532 33.5611C98.2068 33.3954 98.1256 33.2396 98.0096 33.0938C97.8969 32.9479 97.7444 32.8303 97.5522 32.7408C97.36 32.6513 97.1246 32.6065 96.8462 32.6065C96.4717 32.6065 96.1568 32.6877 95.9016 32.8501C95.6497 33.0125 95.5254 33.223 95.5288 33.4815C95.5254 33.7036 95.6067 33.8842 95.7724 34.0234C95.9414 34.1626 96.2198 34.277 96.6076 34.3665L97.9102 34.6449C98.6327 34.8007 99.1696 35.0476 99.521 35.3857C99.8756 35.7237 100.055 36.1662 100.058 36.7131C100.055 37.1937 99.9137 37.6179 99.6353 37.9858C99.3602 38.3504 98.9774 38.6354 98.4869 38.8409C97.9963 39.0464 97.4329 39.1491 96.7965 39.1491C95.8619 39.1491 95.1095 38.9536 94.5394 38.5625C93.9693 38.1681 93.6296 37.6196 93.5202 36.9169L95.2752 36.7479C95.3548 37.0926 95.5238 37.3527 95.7823 37.5284C96.0408 37.7041 96.3772 37.7919 96.7915 37.7919C97.2191 37.7919 97.5621 37.7041 97.8207 37.5284C98.0825 37.3527 98.2134 37.1357 98.2134 36.8771C98.2134 36.6584 98.1289 36.4777 97.9599 36.3352C97.7942 36.1927 97.5356 36.0833 97.1843 36.0071L95.8817 35.7337C95.1493 35.5812 94.6074 35.3243 94.256 34.9631C93.9047 34.5985 93.7307 34.1378 93.734 33.581C93.7307 33.1103 93.8583 32.7027 94.1168 32.358C94.3787 32.0099 94.7416 31.7415 95.2056 31.5526C95.6729 31.3603 96.2115 31.2642 96.8214 31.2642C97.7163 31.2642 98.4206 31.4548 98.9343 31.8359C99.4513 32.2171 99.7712 32.7325 99.8938 33.3821Z" fill="black"/>
<path d="M117.676 29.9119V28.8182H125.312V29.9119H122.111V39H120.878V29.9119H117.676ZM129.051 39.1591C128.362 39.1591 127.757 38.995 127.237 38.6669C126.719 38.3388 126.315 37.8797 126.023 37.2898C125.735 36.6998 125.591 36.0104 125.591 35.2216C125.591 34.4261 125.735 33.7318 126.023 33.1385C126.315 32.5452 126.719 32.0845 127.237 31.7564C127.757 31.4283 128.362 31.2642 129.051 31.2642C129.741 31.2642 130.344 31.4283 130.861 31.7564C131.381 32.0845 131.786 32.5452 132.074 33.1385C132.366 33.7318 132.511 34.4261 132.511 35.2216C132.511 36.0104 132.366 36.6998 132.074 37.2898C131.786 37.8797 131.381 38.3388 130.861 38.6669C130.344 38.995 129.741 39.1591 129.051 39.1591ZM129.051 38.1051C129.575 38.1051 130.006 37.9709 130.344 37.7024C130.682 37.4339 130.932 37.081 131.094 36.6435C131.257 36.206 131.338 35.732 131.338 35.2216C131.338 34.7112 131.257 34.2356 131.094 33.7947C130.932 33.3539 130.682 32.9976 130.344 32.7259C130.006 32.4541 129.575 32.3182 129.051 32.3182C128.527 32.3182 128.097 32.4541 127.759 32.7259C127.42 32.9976 127.17 33.3539 127.008 33.7947C126.845 34.2356 126.764 34.7112 126.764 35.2216C126.764 35.732 126.845 36.206 127.008 36.6435C127.17 37.081 127.42 37.4339 127.759 37.7024C128.097 37.9709 128.527 38.1051 129.051 38.1051ZM137.623 31.3636V32.358H133.666V31.3636H137.623ZM134.819 29.5341H135.993V36.8125C135.993 37.1439 136.041 37.3925 136.137 37.5582C136.236 37.7206 136.362 37.83 136.515 37.8864C136.671 37.9394 136.835 37.9659 137.007 37.9659C137.136 37.9659 137.242 37.9593 137.325 37.946C137.408 37.9295 137.474 37.9162 137.524 37.9062L137.763 38.9602C137.683 38.9901 137.572 39.0199 137.43 39.0497C137.287 39.0829 137.106 39.0994 136.888 39.0994C136.556 39.0994 136.231 39.0282 135.913 38.8857C135.598 38.7431 135.336 38.526 135.128 38.2344C134.922 37.9427 134.819 37.5748 134.819 37.1307V29.5341ZM141.635 39.179C141.152 39.179 140.712 39.0878 140.318 38.9055C139.924 38.7199 139.61 38.4531 139.378 38.1051C139.146 37.7538 139.03 37.3295 139.03 36.8324C139.03 36.3949 139.117 36.0402 139.289 35.7685C139.461 35.4934 139.692 35.2779 139.98 35.1222C140.268 34.9664 140.586 34.8504 140.934 34.7741C141.286 34.6946 141.639 34.6316 141.993 34.5852C142.457 34.5256 142.834 34.4808 143.122 34.451C143.414 34.4179 143.626 34.3632 143.758 34.2869C143.894 34.2107 143.962 34.0781 143.962 33.8892V33.8494C143.962 33.3589 143.828 32.9777 143.559 32.706C143.294 32.4342 142.892 32.2983 142.351 32.2983C141.791 32.2983 141.352 32.4209 141.034 32.6662C140.716 32.9115 140.492 33.1733 140.363 33.4517L139.249 33.054C139.448 32.59 139.713 32.2287 140.045 31.9702C140.379 31.7083 140.744 31.526 141.138 31.4233C141.536 31.3172 141.927 31.2642 142.312 31.2642C142.557 31.2642 142.839 31.294 143.157 31.3537C143.478 31.41 143.788 31.5277 144.086 31.7067C144.388 31.8857 144.638 32.1558 144.837 32.517C145.036 32.8783 145.135 33.3622 145.135 33.9688V39H143.962V37.9659H143.903C143.823 38.1316 143.69 38.3089 143.505 38.4979C143.319 38.6868 143.072 38.8475 142.764 38.9801C142.456 39.1127 142.08 39.179 141.635 39.179ZM141.814 38.125C142.278 38.125 142.67 38.0339 142.988 37.8516C143.309 37.6693 143.551 37.4339 143.714 37.1456C143.879 36.8572 143.962 36.554 143.962 36.2358V35.1619C143.912 35.2216 143.803 35.2763 143.634 35.326C143.468 35.3724 143.276 35.4138 143.057 35.4503C142.842 35.4834 142.631 35.5133 142.426 35.5398C142.224 35.563 142.06 35.5829 141.934 35.5994C141.629 35.6392 141.344 35.7038 141.079 35.7933C140.817 35.8795 140.605 36.0104 140.442 36.1861C140.283 36.3584 140.204 36.5937 140.204 36.892C140.204 37.2997 140.354 37.608 140.656 37.8168C140.961 38.0223 141.347 38.125 141.814 38.125ZM148.45 28.8182V39H147.277V28.8182H148.45ZM154.696 39V28.8182H155.929V37.9062H160.662V39H154.696ZM162.412 39V31.3636H163.585V39H162.412ZM163.008 30.0909C162.78 30.0909 162.582 30.013 162.417 29.8572C162.254 29.7015 162.173 29.5142 162.173 29.2955C162.173 29.0767 162.254 28.8894 162.417 28.7337C162.582 28.5779 162.78 28.5 163.008 28.5C163.237 28.5 163.433 28.5779 163.595 28.7337C163.761 28.8894 163.844 29.0767 163.844 29.2955C163.844 29.5142 163.761 29.7015 163.595 29.8572C163.433 30.013 163.237 30.0909 163.008 30.0909ZM171.143 33.0739L170.089 33.3722C170.023 33.1965 169.925 33.0258 169.796 32.8601C169.67 32.6911 169.498 32.5518 169.279 32.4425C169.06 32.3331 168.78 32.2784 168.439 32.2784C167.971 32.2784 167.582 32.3861 167.27 32.6016C166.962 32.8137 166.808 33.0838 166.808 33.4119C166.808 33.7036 166.914 33.9339 167.126 34.103C167.338 34.272 167.67 34.4129 168.12 34.5256L169.254 34.804C169.937 34.9697 170.445 35.2232 170.78 35.5646C171.115 35.9027 171.282 36.3385 171.282 36.8722C171.282 37.3097 171.156 37.7008 170.904 38.0455C170.656 38.3902 170.308 38.6619 169.86 38.8608C169.413 39.0597 168.893 39.1591 168.299 39.1591C167.52 39.1591 166.876 38.9901 166.365 38.652C165.855 38.3139 165.532 37.8201 165.396 37.1705L166.51 36.892C166.616 37.303 166.816 37.6113 167.111 37.8168C167.409 38.0223 167.799 38.125 168.279 38.125C168.826 38.125 169.261 38.009 169.582 37.777C169.907 37.5417 170.069 37.2599 170.069 36.9318C170.069 36.6667 169.976 36.4446 169.791 36.2656C169.605 36.0833 169.32 35.9474 168.936 35.858L167.663 35.5597C166.964 35.3939 166.45 35.1371 166.122 34.7891C165.797 34.4377 165.635 33.9986 165.635 33.4716C165.635 33.0407 165.756 32.6596 165.998 32.3281C166.243 31.9967 166.576 31.7365 166.997 31.5476C167.421 31.3587 167.902 31.2642 168.439 31.2642C169.194 31.2642 169.788 31.4299 170.218 31.7614C170.653 32.0928 170.961 32.5303 171.143 33.0739ZM176.369 31.3636V32.358H172.412V31.3636H176.369ZM173.566 29.5341H174.739V36.8125C174.739 37.1439 174.787 37.3925 174.883 37.5582C174.982 37.7206 175.108 37.83 175.261 37.8864C175.417 37.9394 175.581 37.9659 175.753 37.9659C175.882 37.9659 175.988 37.9593 176.071 37.946C176.154 37.9295 176.22 37.9162 176.27 37.9062L176.509 38.9602C176.429 38.9901 176.318 39.0199 176.176 39.0497C176.033 39.0829 175.852 39.0994 175.634 39.0994C175.302 39.0994 174.977 39.0282 174.659 38.8857C174.344 38.7431 174.083 38.526 173.874 38.2344C173.668 37.9427 173.566 37.5748 173.566 37.1307V29.5341ZM178.134 39V31.3636H179.308V39H178.134ZM178.731 30.0909C178.502 30.0909 178.305 30.013 178.139 29.8572C177.977 29.7015 177.896 29.5142 177.896 29.2955C177.896 29.0767 177.977 28.8894 178.139 28.7337C178.305 28.5779 178.502 28.5 178.731 28.5C178.96 28.5 179.155 28.5779 179.318 28.7337C179.483 28.8894 179.566 29.0767 179.566 29.2955C179.566 29.5142 179.483 29.7015 179.318 29.8572C179.155 30.013 178.96 30.0909 178.731 30.0909ZM182.63 34.4062V39H181.457V31.3636H182.59V32.5568H182.69C182.869 32.169 183.14 31.8575 183.505 31.6222C183.87 31.3835 184.34 31.2642 184.917 31.2642C185.434 31.2642 185.886 31.3703 186.274 31.5824C186.662 31.7912 186.964 32.1094 187.179 32.5369C187.394 32.9612 187.502 33.4981 187.502 34.1477V39H186.329V34.2273C186.329 33.6274 186.173 33.16 185.862 32.8253C185.55 32.4872 185.122 32.3182 184.579 32.3182C184.204 32.3182 183.87 32.3994 183.575 32.5618C183.283 32.7242 183.053 32.9612 182.884 33.2727C182.714 33.5843 182.63 33.9621 182.63 34.4062ZM192.729 42.0227C192.162 42.0227 191.675 41.9498 191.267 41.804C190.859 41.6615 190.519 41.4725 190.248 41.2372C189.979 41.0052 189.765 40.7566 189.606 40.4915L190.541 39.8352C190.647 39.9744 190.781 40.1335 190.944 40.3125C191.106 40.4948 191.328 40.6522 191.61 40.7848C191.895 40.9207 192.268 40.9886 192.729 40.9886C193.345 40.9886 193.854 40.8395 194.255 40.5412C194.656 40.2429 194.856 39.7756 194.856 39.1392V37.5881H194.757C194.671 37.7273 194.548 37.8996 194.389 38.1051C194.233 38.3073 194.008 38.4879 193.713 38.647C193.421 38.8028 193.027 38.8807 192.53 38.8807C191.913 38.8807 191.36 38.7348 190.869 38.4432C190.382 38.1515 189.996 37.7273 189.711 37.1705C189.429 36.6136 189.288 35.9375 189.288 35.142C189.288 34.3598 189.426 33.6787 189.701 33.0987C189.976 32.5154 190.359 32.0646 190.849 31.7464C191.34 31.425 191.907 31.2642 192.55 31.2642C193.047 31.2642 193.441 31.3471 193.733 31.5128C194.028 31.6752 194.253 31.8608 194.409 32.0696C194.568 32.2751 194.691 32.4441 194.777 32.5767H194.896V31.3636H196.03V39.2188C196.03 39.875 195.881 40.4086 195.582 40.8196C195.287 41.2339 194.89 41.5372 194.389 41.7294C193.892 41.925 193.338 42.0227 192.729 42.0227ZM192.689 37.8267C193.159 37.8267 193.557 37.719 193.882 37.5036C194.207 37.2881 194.454 36.9782 194.623 36.5739C194.792 36.1695 194.876 35.6856 194.876 35.1222C194.876 34.572 194.793 34.0864 194.628 33.6655C194.462 33.2446 194.217 32.9148 193.892 32.6761C193.567 32.4375 193.166 32.3182 192.689 32.3182C192.192 32.3182 191.777 32.4441 191.446 32.696C191.118 32.9479 190.871 33.286 190.705 33.7102C190.543 34.1345 190.461 34.6051 190.461 35.1222C190.461 35.6525 190.544 36.1214 190.71 36.5291C190.879 36.9335 191.128 37.2517 191.456 37.4837C191.787 37.7124 192.198 37.8267 192.689 37.8267ZM203.586 33.0739L202.532 33.3722C202.466 33.1965 202.368 33.0258 202.239 32.8601C202.113 32.6911 201.941 32.5518 201.722 32.4425C201.503 32.3331 201.223 32.2784 200.882 32.2784C200.415 32.2784 200.025 32.3861 199.714 32.6016C199.405 32.8137 199.251 33.0838 199.251 33.4119C199.251 33.7036 199.357 33.9339 199.569 34.103C199.782 34.272 200.113 34.4129 200.564 34.5256L201.697 34.804C202.38 34.9697 202.889 35.2232 203.224 35.5646C203.558 35.9027 203.726 36.3385 203.726 36.8722C203.726 37.3097 203.6 37.7008 203.348 38.0455C203.099 38.3902 202.751 38.6619 202.304 38.8608C201.856 39.0597 201.336 39.1591 200.743 39.1591C199.964 39.1591 199.319 38.9901 198.809 38.652C198.298 38.3139 197.975 37.8201 197.839 37.1705L198.953 36.892C199.059 37.303 199.26 37.6113 199.555 37.8168C199.853 38.0223 200.242 38.125 200.723 38.125C201.27 38.125 201.704 38.009 202.025 37.777C202.35 37.5417 202.513 37.2599 202.513 36.9318C202.513 36.6667 202.42 36.4446 202.234 36.2656C202.049 36.0833 201.764 35.9474 201.379 35.858L200.106 35.5597C199.407 35.3939 198.893 35.1371 198.565 34.7891C198.24 34.4377 198.078 33.9986 198.078 33.4716C198.078 33.0407 198.199 32.6596 198.441 32.3281C198.686 31.9967 199.019 31.7365 199.44 31.5476C199.864 31.3587 200.345 31.2642 200.882 31.2642C201.638 31.2642 202.231 31.4299 202.662 31.7614C203.096 32.0928 203.404 32.5303 203.586 33.0739Z" fill="black" fill-opacity="0.4"/>
<path d="M223.784 25.5369V42.2812H222.79V25.5369H223.784Z" fill="black" fill-opacity="0.2"/>
<path d="M257 34C257 35.6569 255.657 37 254 37C252.343 37 251 35.6569 251 34C251 32.3431 252.343 31 254 31C255.657 31 257 32.3431 257 34Z" fill="black"/>
<path d="M262.58 30.2102V29.2727H269.125V30.2102H266.381V38H265.324V30.2102H262.58ZM272.33 38.1364C271.739 38.1364 271.22 37.9957 270.774 37.7145C270.331 37.4332 269.984 37.0398 269.734 36.5341C269.487 36.0284 269.364 35.4375 269.364 34.7614C269.364 34.0795 269.487 33.4844 269.734 32.9759C269.984 32.4673 270.331 32.0724 270.774 31.7912C271.22 31.5099 271.739 31.3693 272.33 31.3693C272.92 31.3693 273.438 31.5099 273.881 31.7912C274.327 32.0724 274.673 32.4673 274.92 32.9759C275.17 33.4844 275.295 34.0795 275.295 34.7614C275.295 35.4375 275.17 36.0284 274.92 36.5341C274.673 37.0398 274.327 37.4332 273.881 37.7145C273.438 37.9957 272.92 38.1364 272.33 38.1364ZM272.33 37.233C272.778 37.233 273.148 37.1179 273.438 36.8878C273.727 36.6577 273.942 36.3551 274.081 35.9801C274.22 35.6051 274.29 35.1989 274.29 34.7614C274.29 34.3239 274.22 33.9162 274.081 33.5384C273.942 33.1605 273.727 32.8551 273.438 32.6222C273.148 32.3892 272.778 32.2727 272.33 32.2727C271.881 32.2727 271.511 32.3892 271.222 32.6222C270.932 32.8551 270.717 33.1605 270.578 33.5384C270.439 33.9162 270.369 34.3239 270.369 34.7614C270.369 35.1989 270.439 35.6051 270.578 35.9801C270.717 36.3551 270.932 36.6577 271.222 36.8878C271.511 37.1179 271.881 37.233 272.33 37.233ZM279.302 38.1364C278.757 38.1364 278.275 37.9986 277.858 37.723C277.44 37.4446 277.113 37.0526 276.877 36.5469C276.642 36.0384 276.524 35.4375 276.524 34.7443C276.524 34.0568 276.642 33.4602 276.877 32.9545C277.113 32.4489 277.441 32.0582 277.862 31.7827C278.282 31.5071 278.768 31.3693 279.319 31.3693C279.745 31.3693 280.082 31.4403 280.329 31.5824C280.579 31.7216 280.77 31.8807 280.9 32.0597C281.034 32.2358 281.137 32.3807 281.211 32.4943H281.297V29.2727H282.302V38H281.331V36.9943H281.211C281.137 37.1136 281.032 37.2642 280.896 37.446C280.76 37.625 280.565 37.7855 280.312 37.9276C280.059 38.0668 279.723 38.1364 279.302 38.1364ZM279.439 37.233C279.842 37.233 280.183 37.1278 280.461 36.9176C280.74 36.7045 280.951 36.4105 281.096 36.0355C281.241 35.6577 281.314 35.2216 281.314 34.7273C281.314 34.2386 281.243 33.8111 281.1 33.4446C280.958 33.0753 280.748 32.7884 280.47 32.5838C280.191 32.3764 279.848 32.2727 279.439 32.2727C279.012 32.2727 278.657 32.3821 278.373 32.6009C278.092 32.8168 277.88 33.1108 277.738 33.483C277.599 33.8523 277.529 34.267 277.529 34.7273C277.529 35.1932 277.6 35.6165 277.743 35.9972C277.887 36.375 278.1 36.6761 278.382 36.9006C278.666 37.1222 279.018 37.233 279.439 37.233ZM286.21 38.1534C285.795 38.1534 285.419 38.0753 285.081 37.919C284.743 37.7599 284.474 37.5312 284.275 37.233C284.076 36.9318 283.977 36.5682 283.977 36.142C283.977 35.767 284.051 35.4631 284.199 35.2301C284.346 34.9943 284.544 34.8097 284.791 34.6761C285.038 34.5426 285.311 34.4432 285.609 34.3778C285.91 34.3097 286.213 34.2557 286.517 34.2159C286.914 34.1648 287.237 34.1264 287.484 34.1009C287.734 34.0724 287.916 34.0256 288.029 33.9602C288.146 33.8949 288.204 33.7812 288.204 33.6193V33.5852C288.204 33.1648 288.089 32.8381 287.859 32.6051C287.632 32.3722 287.287 32.2557 286.824 32.2557C286.343 32.2557 285.967 32.3608 285.694 32.571C285.422 32.7812 285.23 33.0057 285.119 33.2443L284.164 32.9034C284.335 32.5057 284.562 32.196 284.846 31.9744C285.133 31.75 285.446 31.5937 285.784 31.5057C286.125 31.4148 286.46 31.3693 286.789 31.3693C287 31.3693 287.241 31.3949 287.514 31.446C287.789 31.4943 288.055 31.5952 288.311 31.7486C288.569 31.902 288.784 32.1335 288.954 32.4432C289.125 32.7528 289.21 33.1676 289.21 33.6875V38H288.204V37.1136H288.153C288.085 37.2557 287.971 37.4077 287.812 37.5696C287.653 37.7315 287.441 37.8693 287.177 37.983C286.913 38.0966 286.591 38.1534 286.21 38.1534ZM286.363 37.25C286.761 37.25 287.096 37.1719 287.369 37.0156C287.645 36.8594 287.852 36.6577 287.991 36.4105C288.133 36.1634 288.204 35.9034 288.204 35.6307V34.7102C288.162 34.7614 288.068 34.8082 287.923 34.8509C287.781 34.8906 287.616 34.9261 287.429 34.9574C287.244 34.9858 287.064 35.0114 286.887 35.0341C286.714 35.054 286.574 35.071 286.466 35.0852C286.204 35.1193 285.96 35.1747 285.733 35.2514C285.508 35.3253 285.326 35.4375 285.187 35.5881C285.051 35.7358 284.983 35.9375 284.983 36.1932C284.983 36.5426 285.112 36.8068 285.37 36.9858C285.632 37.1619 285.963 37.25 286.363 37.25ZM291.459 40.4545C291.288 40.4545 291.136 40.4403 291.003 40.4119C290.869 40.3864 290.777 40.3608 290.726 40.3352L290.982 39.4489C291.226 39.5114 291.442 39.5341 291.629 39.517C291.817 39.5 291.983 39.4162 292.128 39.2656C292.276 39.1179 292.411 38.8778 292.533 38.5455L292.72 38.0341L290.3 31.4545H291.391L293.197 36.6705H293.266L295.072 31.4545H296.163L293.385 38.9545C293.26 39.2926 293.105 39.5724 292.92 39.794C292.736 40.0185 292.521 40.1847 292.277 40.2926C292.036 40.4006 291.763 40.4545 291.459 40.4545Z" fill="black"/>
<path d="M336 34C336 35.6569 334.657 37 333 37C331.343 37 330 35.6569 330 34C330 32.3431 331.343 31 333 31C334.657 31 336 32.3431 336 34Z" fill="#AEC7ED"/>
<path d="M341.58 30.2102V29.2727H348.125V30.2102H345.381V38H344.324V30.2102H341.58ZM350.625 34.0625V38H349.62V29.2727H350.625V32.4773H350.711C350.864 32.1392 351.094 31.8707 351.401 31.6719C351.711 31.4702 352.123 31.3693 352.637 31.3693C353.083 31.3693 353.473 31.4588 353.809 31.6378C354.144 31.8139 354.404 32.0852 354.588 32.4517C354.776 32.8153 354.87 33.2784 354.87 33.8409V38H353.864V33.9091C353.864 33.3892 353.729 32.9872 353.459 32.7031C353.192 32.4162 352.821 32.2727 352.347 32.2727C352.017 32.2727 351.722 32.3423 351.461 32.4815C351.202 32.6207 350.998 32.8239 350.847 33.0909C350.699 33.358 350.625 33.6818 350.625 34.0625ZM356.71 38V31.4545H357.715V38H356.71ZM357.221 30.3636C357.025 30.3636 356.856 30.2969 356.714 30.1634C356.575 30.0298 356.505 29.8693 356.505 29.6818C356.505 29.4943 356.575 29.3338 356.714 29.2003C356.856 29.0668 357.025 29 357.221 29C357.417 29 357.585 29.0668 357.724 29.2003C357.866 29.3338 357.937 29.4943 357.937 29.6818C357.937 29.8693 357.866 30.0298 357.724 30.1634C357.585 30.2969 357.417 30.3636 357.221 30.3636ZM364.194 32.9205L363.29 33.1761C363.233 33.0256 363.15 32.8793 363.039 32.7372C362.931 32.5923 362.783 32.473 362.596 32.3793C362.408 32.2855 362.168 32.2386 361.875 32.2386C361.475 32.2386 361.141 32.331 360.874 32.5156C360.61 32.6974 360.478 32.929 360.478 33.2102C360.478 33.4602 360.569 33.6577 360.75 33.8026C360.932 33.9474 361.216 34.0682 361.603 34.1648L362.574 34.4034C363.159 34.5455 363.596 34.7628 363.882 35.0554C364.169 35.3452 364.313 35.7187 364.313 36.1761C364.313 36.5511 364.205 36.8864 363.989 37.1818C363.776 37.4773 363.478 37.7102 363.094 37.8807C362.711 38.0511 362.265 38.1364 361.756 38.1364C361.088 38.1364 360.536 37.9915 360.098 37.7017C359.661 37.4119 359.384 36.9886 359.267 36.4318L360.222 36.1932C360.313 36.5455 360.485 36.8097 360.738 36.9858C360.993 37.1619 361.327 37.25 361.739 37.25C362.208 37.25 362.58 37.1506 362.855 36.9517C363.134 36.75 363.273 36.5085 363.273 36.2273C363.273 36 363.194 35.8097 363.034 35.6562C362.875 35.5 362.631 35.3835 362.301 35.3068L361.211 35.0511C360.611 34.9091 360.171 34.6889 359.89 34.3906C359.611 34.0895 359.472 33.7131 359.472 33.2614C359.472 32.892 359.576 32.5653 359.783 32.2812C359.993 31.9972 360.279 31.7741 360.64 31.6122C361.003 31.4503 361.415 31.3693 361.875 31.3693C362.523 31.3693 363.032 31.5114 363.401 31.7955C363.773 32.0795 364.037 32.4545 364.194 32.9205ZM369.202 38V31.4545H370.173V32.4773H370.259C370.395 32.1278 370.615 31.8565 370.919 31.6634C371.223 31.4673 371.588 31.3693 372.014 31.3693C372.446 31.3693 372.805 31.4673 373.092 31.6634C373.382 31.8565 373.608 32.1278 373.77 32.4773H373.838C374.006 32.1392 374.257 31.8707 374.592 31.6719C374.928 31.4702 375.33 31.3693 375.798 31.3693C376.384 31.3693 376.862 31.5526 377.234 31.919C377.607 32.2827 377.793 32.8494 377.793 33.6193V38H376.787V33.6193C376.787 33.1364 376.655 32.7912 376.391 32.5838C376.126 32.3764 375.815 32.2727 375.457 32.2727C374.997 32.2727 374.641 32.4119 374.388 32.6903C374.135 32.9659 374.009 33.3153 374.009 33.7386V38H372.986V33.517C372.986 33.1449 372.865 32.8452 372.624 32.6179C372.382 32.3878 372.071 32.2727 371.69 32.2727C371.429 32.2727 371.185 32.3423 370.957 32.4815C370.733 32.6207 370.551 32.8139 370.412 33.0611C370.276 33.3054 370.207 33.5881 370.207 33.9091V38H369.202ZM382.29 38.1364C381.7 38.1364 381.181 37.9957 380.735 37.7145C380.292 37.4332 379.945 37.0398 379.695 36.5341C379.448 36.0284 379.325 35.4375 379.325 34.7614C379.325 34.0795 379.448 33.4844 379.695 32.9759C379.945 32.4673 380.292 32.0724 380.735 31.7912C381.181 31.5099 381.7 31.3693 382.29 31.3693C382.881 31.3693 383.398 31.5099 383.842 31.7912C384.288 32.0724 384.634 32.4673 384.881 32.9759C385.131 33.4844 385.256 34.0795 385.256 34.7614C385.256 35.4375 385.131 36.0284 384.881 36.5341C384.634 37.0398 384.288 37.4332 383.842 37.7145C383.398 37.9957 382.881 38.1364 382.29 38.1364ZM382.29 37.233C382.739 37.233 383.109 37.1179 383.398 36.8878C383.688 36.6577 383.903 36.3551 384.042 35.9801C384.181 35.6051 384.251 35.1989 384.251 34.7614C384.251 34.3239 384.181 33.9162 384.042 33.5384C383.903 33.1605 383.688 32.8551 383.398 32.6222C383.109 32.3892 382.739 32.2727 382.29 32.2727C381.842 32.2727 381.472 32.3892 381.183 32.6222C380.893 32.8551 380.678 33.1605 380.539 33.5384C380.4 33.9162 380.33 34.3239 380.33 34.7614C380.33 35.1989 380.4 35.6051 380.539 35.9801C380.678 36.3551 380.893 36.6577 381.183 36.8878C381.472 37.1179 381.842 37.233 382.29 37.233ZM387.797 34.0625V38H386.792V31.4545H387.763V32.4773H387.848C388.002 32.1449 388.235 31.8778 388.547 31.6761C388.86 31.4716 389.263 31.3693 389.757 31.3693C390.201 31.3693 390.588 31.4602 390.921 31.642C391.253 31.821 391.512 32.0938 391.696 32.4602C391.881 32.8239 391.973 33.2841 391.973 33.8409V38H390.968V33.9091C390.968 33.3949 390.834 32.9943 390.567 32.7074C390.3 32.4176 389.934 32.2727 389.468 32.2727C389.147 32.2727 388.86 32.3423 388.607 32.4815C388.357 32.6207 388.159 32.8239 388.015 33.0909C387.87 33.358 387.797 33.6818 387.797 34.0625ZM396.658 31.4545V32.3068H393.266V31.4545H396.658ZM394.254 29.8864H395.26V36.125C395.26 36.4091 395.301 36.6222 395.384 36.7642C395.469 36.9034 395.577 36.9972 395.707 37.0455C395.841 37.0909 395.982 37.1136 396.129 37.1136C396.24 37.1136 396.331 37.108 396.402 37.0966C396.473 37.0824 396.53 37.071 396.572 37.0625L396.777 37.9659C396.709 37.9915 396.614 38.017 396.491 38.0426C396.369 38.071 396.214 38.0852 396.027 38.0852C395.743 38.0852 395.464 38.0241 395.192 37.902C394.922 37.7798 394.697 37.5938 394.518 37.3438C394.342 37.0938 394.254 36.7784 394.254 36.3977V29.8864ZM399.317 34.0625V38H398.311V29.2727H399.317V32.4773H399.402C399.555 32.1392 399.786 31.8707 400.092 31.6719C400.402 31.4702 400.814 31.3693 401.328 31.3693C401.774 31.3693 402.165 31.4588 402.5 31.6378C402.835 31.8139 403.095 32.0852 403.28 32.4517C403.467 32.8153 403.561 33.2784 403.561 33.8409V38H402.555V33.9091C402.555 33.3892 402.42 32.9872 402.151 32.7031C401.884 32.4162 401.513 32.2727 401.038 32.2727C400.709 32.2727 400.413 32.3423 400.152 32.4815C399.893 32.6207 399.689 32.8239 399.538 33.0909C399.391 33.358 399.317 33.6818 399.317 34.0625Z" fill="black"/>
<path d="M24.9038 92.8182H25.9776C26.0089 93.1136 26.1097 93.3636 26.2802 93.5682C26.4535 93.7699 26.6779 93.9233 26.9535 94.0284C27.229 94.1307 27.5344 94.1818 27.8697 94.1818C28.2333 94.1818 28.56 94.1207 28.8498 93.9986C29.1396 93.8764 29.3697 93.6946 29.5401 93.4531C29.7106 93.2088 29.7958 92.9062 29.7958 92.5455C29.7958 92.2301 29.7219 91.9375 29.5742 91.6676C29.4265 91.3949 29.1893 91.1747 28.8626 91.0071C28.5359 90.8395 28.1026 90.7557 27.5629 90.7557H26.864V89.9034L29.0458 87.2784V87.2102H25.3299V86.2727H30.4947V87.0398L28.1594 89.8693V89.9375C28.5344 89.9545 28.8839 90.0312 29.2077 90.1676C29.5344 90.304 29.8185 90.4886 30.06 90.7216C30.3043 90.9545 30.4947 91.2259 30.631 91.5355C30.7674 91.8452 30.8356 92.1818 30.8356 92.5455C30.8356 93.0426 30.7077 93.4858 30.4521 93.875C30.1992 94.2614 29.8484 94.5653 29.3995 94.7869C28.9535 95.0085 28.4379 95.1193 27.8526 95.1193C27.3356 95.1193 26.8597 95.0284 26.4251 94.8466C25.9904 94.6648 25.6367 94.402 25.364 94.0582C25.0913 93.7145 24.9379 93.3011 24.9038 92.8182ZM35.4219 95.1193C34.7798 95.1193 34.233 94.9446 33.7812 94.5952C33.3295 94.2429 32.9844 93.733 32.7457 93.0653C32.5071 92.3949 32.3878 91.5852 32.3878 90.6364C32.3878 89.6932 32.5071 88.8878 32.7457 88.2202C32.9872 87.5497 33.3338 87.0384 33.7855 86.6861C34.2401 86.331 34.7855 86.1534 35.4219 86.1534C36.0582 86.1534 36.6023 86.331 37.054 86.6861C37.5085 87.0384 37.8551 87.5497 38.0938 88.2202C38.3352 88.8878 38.456 89.6932 38.456 90.6364C38.456 91.5852 38.3366 92.3949 38.098 93.0653C37.8594 93.733 37.5142 94.2429 37.0625 94.5952C36.6108 94.9446 36.0639 95.1193 35.4219 95.1193ZM35.4219 94.1818C36.0582 94.1818 36.5526 93.875 36.9048 93.2614C37.2571 92.6477 37.4332 91.7727 37.4332 90.6364C37.4332 89.8807 37.3523 89.2372 37.1903 88.706C37.0313 88.1747 36.8011 87.7699 36.5 87.4915C36.2017 87.2131 35.8423 87.0739 35.4219 87.0739C34.7912 87.0739 34.2983 87.3849 33.9432 88.0071C33.5881 88.6264 33.4105 89.5028 33.4105 90.6364C33.4105 91.392 33.4901 92.0341 33.6491 92.5625C33.8082 93.0909 34.0369 93.4929 34.3352 93.7685C34.6364 94.044 34.9986 94.1818 35.4219 94.1818ZM40.2287 95V86.2727H41.2855V90.6023H41.3878L45.3082 86.2727H46.6889L43.0241 90.2102L46.6889 95H45.4105L42.3764 90.9432L41.2855 92.1705V95H40.2287Z" fill="black" fill-opacity="0.4"/>
<path d="M25.3097 156.5V155.733L28.1903 152.58C28.5284 152.21 28.8068 151.889 29.0256 151.616C29.2443 151.341 29.4063 151.082 29.5114 150.841C29.6193 150.597 29.6733 150.341 29.6733 150.074C29.6733 149.767 29.5994 149.501 29.4517 149.277C29.3068 149.053 29.108 148.879 28.8551 148.757C28.6023 148.635 28.3182 148.574 28.0028 148.574C27.6676 148.574 27.375 148.643 27.125 148.783C26.8778 148.919 26.6861 149.111 26.5497 149.358C26.4162 149.605 26.3494 149.895 26.3494 150.227H25.3438C25.3438 149.716 25.4616 149.267 25.6974 148.881C25.9332 148.494 26.2543 148.193 26.6605 147.977C27.0696 147.761 27.5284 147.653 28.0369 147.653C28.5483 147.653 29.0014 147.761 29.3963 147.977C29.7912 148.193 30.1009 148.484 30.3253 148.851C30.5497 149.217 30.6619 149.625 30.6619 150.074C30.6619 150.395 30.6037 150.709 30.4872 151.016C30.3736 151.32 30.1747 151.659 29.8906 152.034C29.6094 152.406 29.2188 152.861 28.7188 153.398L26.7585 155.494V155.562H30.8153V156.5H25.3097ZM35.4219 156.619C34.7798 156.619 34.233 156.445 33.7812 156.095C33.3295 155.743 32.9844 155.233 32.7457 154.565C32.5071 153.895 32.3878 153.085 32.3878 152.136C32.3878 151.193 32.5071 150.388 32.7457 149.72C32.9872 149.05 33.3338 148.538 33.7855 148.186C34.2401 147.831 34.7855 147.653 35.4219 147.653C36.0582 147.653 36.6023 147.831 37.054 148.186C37.5085 148.538 37.8551 149.05 38.0938 149.72C38.3352 150.388 38.456 151.193 38.456 152.136C38.456 153.085 38.3366 153.895 38.098 154.565C37.8594 155.233 37.5142 155.743 37.0625 156.095C36.6108 156.445 36.0639 156.619 35.4219 156.619ZM35.4219 155.682C36.0582 155.682 36.5526 155.375 36.9048 154.761C37.2571 154.148 37.4332 153.273 37.4332 152.136C37.4332 151.381 37.3523 150.737 37.1903 150.206C37.0313 149.675 36.8011 149.27 36.5 148.991C36.2017 148.713 35.8423 148.574 35.4219 148.574C34.7912 148.574 34.2983 148.885 33.9432 149.507C33.5881 150.126 33.4105 151.003 33.4105 152.136C33.4105 152.892 33.4901 153.534 33.6491 154.062C33.8082 154.591 34.0369 154.993 34.3352 155.268C34.6364 155.544 34.9986 155.682 35.4219 155.682ZM40.2287 156.5V147.773H41.2855V152.102H41.3878L45.3082 147.773H46.6889L43.0241 151.71L46.6889 156.5H45.4105L42.3764 152.443L41.2855 153.67V156.5H40.2287Z" fill="black" fill-opacity="0.4"/>
<path d="M30.0739 209.273V218H29.017V210.807H28.9489C28.9091 210.886 28.8068 210.977 28.642 211.08C28.4773 211.179 28.2642 211.267 28.0028 211.344C27.7415 211.418 27.4432 211.455 27.108 211.455V210.568C27.446 210.568 27.7386 210.507 27.9858 210.385C28.233 210.263 28.4389 210.119 28.6037 209.955C28.7713 209.79 28.8977 209.641 28.983 209.507C29.071 209.374 29.1222 209.295 29.1364 209.273H30.0739ZM35.4219 218.119C34.7798 218.119 34.233 217.945 33.7812 217.595C33.3295 217.243 32.9844 216.733 32.7457 216.065C32.5071 215.395 32.3878 214.585 32.3878 213.636C32.3878 212.693 32.5071 211.888 32.7457 211.22C32.9872 210.55 33.3338 210.038 33.7855 209.686C34.2401 209.331 34.7855 209.153 35.4219 209.153C36.0582 209.153 36.6023 209.331 37.054 209.686C37.5085 210.038 37.8551 210.55 38.0938 211.22C38.3352 211.888 38.456 212.693 38.456 213.636C38.456 214.585 38.3366 215.395 38.098 216.065C37.8594 216.733 37.5142 217.243 37.0625 217.595C36.6108 217.945 36.0639 218.119 35.4219 218.119ZM35.4219 217.182C36.0582 217.182 36.5526 216.875 36.9048 216.261C37.2571 215.648 37.4332 214.773 37.4332 213.636C37.4332 212.881 37.3523 212.237 37.1903 211.706C37.0313 211.175 36.8011 210.77 36.5 210.491C36.2017 210.213 35.8423 210.074 35.4219 210.074C34.7912 210.074 34.2983 210.385 33.9432 211.007C33.5881 211.626 33.4105 212.503 33.4105 213.636C33.4105 214.392 33.4901 215.034 33.6491 215.562C33.8082 216.091 34.0369 216.493 34.3352 216.768C34.6364 217.044 34.9986 217.182 35.4219 217.182ZM40.2287 218V209.273H41.2855V213.602H41.3878L45.3082 209.273H46.6889L43.0241 213.21L46.6889 218H45.4105L42.3764 213.943L41.2855 215.17V218H40.2287Z" fill="black" fill-opacity="0.4"/>
<path d="M43.25 279.619C42.608 279.619 42.0611 279.445 41.6094 279.095C41.1577 278.743 40.8125 278.233 40.5739 277.565C40.3352 276.895 40.2159 276.085 40.2159 275.136C40.2159 274.193 40.3352 273.388 40.5739 272.72C40.8153 272.05 41.1619 271.538 41.6136 271.186C42.0682 270.831 42.6136 270.653 43.25 270.653C43.8864 270.653 44.4304 270.831 44.8821 271.186C45.3366 271.538 45.6832 272.05 45.9219 272.72C46.1634 273.388 46.2841 274.193 46.2841 275.136C46.2841 276.085 46.1648 276.895 45.9261 277.565C45.6875 278.233 45.3423 278.743 44.8906 279.095C44.4389 279.445 43.892 279.619 43.25 279.619ZM43.25 278.682C43.8864 278.682 44.3807 278.375 44.733 277.761C45.0852 277.148 45.2614 276.273 45.2614 275.136C45.2614 274.381 45.1804 273.737 45.0185 273.206C44.8594 272.675 44.6293 272.27 44.3281 271.991C44.0298 271.713 43.6705 271.574 43.25 271.574C42.6193 271.574 42.1264 271.885 41.7713 272.507C41.4162 273.126 41.2386 274.003 41.2386 275.136C41.2386 275.892 41.3182 276.534 41.4773 277.062C41.6364 277.591 41.8651 277.993 42.1634 278.268C42.4645 278.544 42.8267 278.682 43.25 278.682Z" fill="black" fill-opacity="0.4"/>
<mask id="mask0_1_5313" style="mask-type:alpha" maskUnits="userSpaceOnUse" x="63" y="60" width="575" height="246">
<rect x="63" y="60" width="575" height="246" fill="black"/>
</mask>
<g mask="url(#mask0_1_5313)">
<path d="M63 245.525L99.2917 200.641C103.289 195.698 109.398 192.949 115.748 193.236L154.177 194.975L197.846 198.79C202.92 199.233 207.971 197.724 211.971 194.571L267.376 150.884C272.384 146.935 279.759 148.62 282.555 154.353L315.568 222.042C318.65 228.361 324.824 232.597 331.829 233.201L377.19 237.106C384.38 237.725 391.346 234.423 395.417 228.465L418.866 194.155C424.107 186.486 433.939 183.435 442.602 186.79L467.528 196.445C478.845 200.828 491.425 194.204 494.216 182.394L504.95 136.962C506.934 128.567 514.077 122.39 522.67 121.637L569.782 117.513C572.321 117.291 574.795 116.585 577.069 115.435L638 84.6" stroke="#AEC7ED" stroke-linecap="round" stroke-dasharray="2 4"/>
</g>
<mask id="mask1_1_5313" style="mask-type:alpha" maskUnits="userSpaceOnUse" x="63" y="60" width="575" height="246">
<rect x="63" y="60" width="575" height="246" fill="black"/>
</mask>
<g mask="url(#mask1_1_5313)">
<mask id="mask2_1_5313" style="mask-type:alpha" maskUnits="userSpaceOnUse" x="63" y="100" width="575" height="206">
<path d="M87.7221 193.624L63 204.357V306H638V128.789L601.945 133.838C597.943 134.398 594.205 136.158 591.223 138.884L568.065 160.058C560.241 167.211 548.195 167.017 540.606 159.615L524.887 144.285C515.445 135.077 501.097 133.115 489.53 139.451L478.958 145.241C471.28 149.446 461.646 146.21 458.065 138.221L444.99 109.056C440.193 98.3563 425.526 97.0505 418.914 106.735L417.841 108.306C409.275 120.853 394.341 127.465 379.294 125.371L363.618 123.19C355.401 122.047 347.332 126.095 343.336 133.365L316.851 181.543C312.951 188.637 305.16 192.681 297.114 191.786L262.999 187.993C250.501 186.603 238.076 191.172 229.456 200.328L226.518 203.448C214.223 216.506 197.897 225.055 180.161 227.72L167.906 229.562C163.069 230.289 158.407 231.897 154.15 234.305L152.193 235.413C141.967 241.2 128.979 236.967 124.127 226.265L113.903 203.711C109.394 193.765 97.7394 189.275 87.7221 193.624Z" fill="url(#paint0_radial_1_5313)"/>
</mask>
<g mask="url(#mask2_1_5313)">
<path opacity="0.6" d="M87.7221 193.624L63 204.357V306H638V128.789L601.945 133.838C597.943 134.398 594.206 136.158 591.223 138.884L568.065 160.058C560.241 167.211 548.195 167.017 540.606 159.615L524.887 144.285C515.445 135.077 501.097 133.115 489.53 139.451L478.958 145.241C471.28 149.446 461.646 146.21 458.065 138.221L444.99 109.056C440.193 98.3563 425.526 97.0505 418.914 106.735L417.841 108.306C409.275 120.853 394.341 127.465 379.294 125.371L363.618 123.19C355.401 122.047 347.332 126.095 343.336 133.365L316.851 181.543C312.951 188.637 305.16 192.681 297.114 191.786L262.999 187.993C250.501 186.603 238.076 191.172 229.456 200.328L226.518 203.448C214.223 216.506 197.897 225.055 180.161 227.72L167.906 229.562C163.069 230.289 158.407 231.897 154.15 234.305L152.193 235.413C141.967 241.2 128.979 236.967 124.127 226.265L113.903 203.711C109.394 193.765 97.7394 189.275 87.7221 193.624Z" fill="black"/>
</g>
<path d="M63 203.868L77.0382 197.798C87.0685 193.461 92.0836 191.293 96.7817 191.546C100.994 191.774 105.026 193.328 108.302 195.985C111.956 198.949 114.22 203.922 118.747 213.868L123.41 224.111C124.069 225.559 124.399 226.283 124.71 226.862C129.769 236.282 141.343 240.056 150.983 235.429C151.576 235.145 152.269 234.754 153.655 233.973V233.973C154.163 233.687 154.417 233.544 154.671 233.405C158.611 231.259 162.884 229.791 167.311 229.063C167.597 229.016 167.885 228.973 168.461 228.887L177.751 227.496C180.192 227.131 181.413 226.948 182.597 226.734C198.588 223.847 213.322 216.157 224.836 204.69C225.688 203.84 226.536 202.944 228.231 201.15V201.15C229.439 199.873 230.043 199.234 230.642 198.651C238.791 190.722 249.93 186.636 261.274 187.414C262.108 187.472 262.981 187.568 264.729 187.762L289.187 190.47C296.856 191.32 300.691 191.744 304.153 190.887C307.214 190.129 310.051 188.659 312.435 186.596C315.132 184.261 316.997 180.884 320.725 174.129L340.582 138.154C343.222 133.372 344.542 130.981 346.255 129.154C349.509 125.687 353.89 123.492 358.615 122.963C361.105 122.684 363.81 123.059 369.22 123.809L378.44 125.086C379.328 125.209 379.771 125.271 380.184 125.319C394.644 127.017 408.884 120.725 417.364 108.89C417.606 108.552 417.86 108.182 418.366 107.443V107.443C418.856 106.728 419.101 106.371 419.28 106.132C425.96 97.1729 439.739 98.4023 444.728 108.402C444.861 108.669 445.038 109.064 445.394 109.855L455.956 133.318C457.9 137.637 458.873 139.796 460.118 141.323C463.769 145.8 469.667 147.782 475.281 146.419C477.195 145.955 479.275 144.82 483.433 142.552V142.552C489.31 139.346 492.249 137.743 495.147 136.853C503.571 134.266 512.706 135.514 520.128 140.265C522.681 141.899 525.082 144.232 529.885 148.896L533.381 152.292C540.184 158.899 543.585 162.203 547.428 163.671C551.819 165.35 556.661 165.428 561.104 163.892C564.992 162.547 568.498 159.355 575.51 152.97L588.482 141.159C591.202 138.682 592.561 137.444 594.092 136.487C595.451 135.638 596.906 134.956 598.428 134.454C600.142 133.888 601.963 133.634 605.606 133.126L638 128.608" stroke="url(#paint1_linear_1_5313)" stroke-linecap="round"/>
<path d="M63 203.868L77.0382 197.798C87.0685 193.461 92.0836 191.293 96.7817 191.546C100.994 191.774 105.026 193.328 108.302 195.985C111.956 198.949 114.22 203.922 118.747 213.868L123.41 224.111C124.069 225.559 124.399 226.283 124.71 226.862C129.769 236.282 141.343 240.056 150.983 235.429C151.576 235.145 152.269 234.754 153.655 233.973V233.973C154.163 233.687 154.417 233.544 154.671 233.405C158.611 231.259 162.884 229.791 167.311 229.063C167.597 229.016 167.885 228.973 168.461 228.887L177.751 227.496C180.192 227.131 181.413 226.948 182.597 226.734C198.588 223.847 213.322 216.157 224.836 204.69C225.688 203.84 226.536 202.944 228.231 201.15V201.15C229.439 199.873 230.043 199.234 230.642 198.651C238.791 190.722 249.93 186.636 261.274 187.414C262.108 187.472 262.981 187.568 264.729 187.762L289.187 190.47C296.856 191.32 300.691 191.744 304.153 190.887C307.214 190.129 310.051 188.659 312.435 186.596C315.132 184.261 316.997 180.884 320.725 174.129L340.582 138.154C343.222 133.372 344.542 130.981 346.255 129.154C349.509 125.687 353.89 123.492 358.615 122.963C361.105 122.684 363.81 123.059 369.22 123.809L378.44 125.086C379.328 125.209 379.771 125.271 380.184 125.319C394.644 127.017 408.884 120.725 417.364 108.89C417.606 108.552 417.86 108.182 418.366 107.443V107.443C418.856 106.728 419.101 106.371 419.28 106.132C425.96 97.1729 439.739 98.4023 444.728 108.402C444.861 108.669 445.038 109.064 445.394 109.855L455.956 133.318C457.9 137.637 458.873 139.796 460.118 141.323C463.769 145.8 469.667 147.782 475.281 146.419C477.195 145.955 479.275 144.82 483.433 142.552V142.552C489.31 139.346 492.249 137.743 495.147 136.853C503.571 134.266 512.706 135.514 520.128 140.265C522.681 141.899 525.082 144.232 529.885 148.896L533.381 152.292C540.184 158.899 543.585 162.203 547.428 163.671C551.819 165.35 556.661 165.428 561.104 163.892C564.992 162.547 568.498 159.355 575.51 152.97L588.482 141.159C591.202 138.682 592.561 137.444 594.092 136.487C595.451 135.638 596.906 134.956 598.428 134.454C600.142 133.888 601.963 133.634 605.606 133.126L638 128.608" stroke="black" stroke-linecap="round" style="mix-blend-mode:screen"/>
</g>
<path d="M98.3207 293.273H99.3775V299.511C99.3775 300.068 99.2753 300.541 99.0707 300.93C98.8662 301.32 98.5778 301.615 98.2057 301.817C97.8335 302.018 97.3946 302.119 96.8889 302.119C96.4116 302.119 95.9869 302.033 95.6148 301.859C95.2426 301.683 94.95 301.433 94.7369 301.109C94.5238 300.786 94.4173 300.401 94.4173 299.955H95.4571C95.4571 300.202 95.5182 300.418 95.6403 300.602C95.7653 300.784 95.9358 300.926 96.1517 301.028C96.3676 301.131 96.6133 301.182 96.8889 301.182C97.1929 301.182 97.4514 301.118 97.6645 300.99C97.8775 300.862 98.0395 300.675 98.1503 300.428C98.2639 300.178 98.3207 299.872 98.3207 299.511V293.273ZM103.285 302.153C102.87 302.153 102.494 302.075 102.156 301.919C101.818 301.76 101.549 301.531 101.351 301.233C101.152 300.932 101.052 300.568 101.052 300.142C101.052 299.767 101.126 299.463 101.274 299.23C101.422 298.994 101.619 298.81 101.866 298.676C102.113 298.543 102.386 298.443 102.684 298.378C102.985 298.31 103.288 298.256 103.592 298.216C103.99 298.165 104.312 298.126 104.559 298.101C104.809 298.072 104.991 298.026 105.105 297.96C105.221 297.895 105.28 297.781 105.28 297.619V297.585C105.28 297.165 105.164 296.838 104.934 296.605C104.707 296.372 104.362 296.256 103.899 296.256C103.419 296.256 103.042 296.361 102.77 296.571C102.497 296.781 102.305 297.006 102.194 297.244L101.24 296.903C101.41 296.506 101.637 296.196 101.922 295.974C102.209 295.75 102.521 295.594 102.859 295.506C103.2 295.415 103.535 295.369 103.865 295.369C104.075 295.369 104.316 295.395 104.589 295.446C104.865 295.494 105.13 295.595 105.386 295.749C105.645 295.902 105.859 296.134 106.03 296.443C106.2 296.753 106.285 297.168 106.285 297.688V302H105.28V301.114H105.228C105.16 301.256 105.047 301.408 104.887 301.57C104.728 301.732 104.517 301.869 104.253 301.983C103.988 302.097 103.666 302.153 103.285 302.153ZM103.439 301.25C103.836 301.25 104.172 301.172 104.444 301.016C104.72 300.859 104.927 300.658 105.066 300.411C105.209 300.163 105.28 299.903 105.28 299.631V298.71C105.237 298.761 105.143 298.808 104.998 298.851C104.856 298.891 104.691 298.926 104.504 298.957C104.319 298.986 104.139 299.011 103.963 299.034C103.789 299.054 103.649 299.071 103.541 299.085C103.28 299.119 103.035 299.175 102.808 299.251C102.584 299.325 102.402 299.437 102.262 299.588C102.126 299.736 102.058 299.937 102.058 300.193C102.058 300.543 102.187 300.807 102.446 300.986C102.707 301.162 103.038 301.25 103.439 301.25ZM109.126 298.062V302H108.121V295.455H109.092V296.477H109.178C109.331 296.145 109.564 295.878 109.876 295.676C110.189 295.472 110.592 295.369 111.087 295.369C111.53 295.369 111.918 295.46 112.25 295.642C112.582 295.821 112.841 296.094 113.026 296.46C113.21 296.824 113.303 297.284 113.303 297.841V302H112.297V297.909C112.297 297.395 112.163 296.994 111.896 296.707C111.629 296.418 111.263 296.273 110.797 296.273C110.476 296.273 110.189 296.342 109.936 296.482C109.686 296.621 109.489 296.824 109.344 297.091C109.199 297.358 109.126 297.682 109.126 298.062Z" fill="black" fill-opacity="0.4"/>
<path d="M176.771 302V293.273H182.004V294.21H177.828V297.159H181.612V298.097H177.828V302H176.771ZM185.942 302.136C185.311 302.136 184.767 301.997 184.309 301.719C183.855 301.438 183.504 301.045 183.257 300.543C183.013 300.037 182.89 299.449 182.89 298.778C182.89 298.108 183.013 297.517 183.257 297.006C183.504 296.491 183.848 296.091 184.288 295.804C184.731 295.514 185.248 295.369 185.839 295.369C186.18 295.369 186.517 295.426 186.849 295.54C187.182 295.653 187.484 295.838 187.757 296.094C188.03 296.347 188.247 296.682 188.409 297.099C188.571 297.517 188.652 298.031 188.652 298.642V299.068H183.606V298.199H187.629C187.629 297.83 187.555 297.5 187.407 297.21C187.263 296.92 187.055 296.692 186.785 296.524C186.518 296.357 186.203 296.273 185.839 296.273C185.439 296.273 185.092 296.372 184.8 296.571C184.51 296.767 184.287 297.023 184.13 297.338C183.974 297.653 183.896 297.991 183.896 298.352V298.932C183.896 299.426 183.981 299.845 184.152 300.189C184.325 300.53 184.565 300.79 184.872 300.969C185.179 301.145 185.535 301.233 185.942 301.233C186.206 301.233 186.444 301.196 186.657 301.122C186.873 301.045 187.059 300.932 187.216 300.781C187.372 300.628 187.493 300.437 187.578 300.21L188.55 300.483C188.447 300.812 188.275 301.102 188.034 301.352C187.792 301.599 187.494 301.793 187.139 301.932C186.784 302.068 186.385 302.136 185.942 302.136ZM190.318 302V293.273H191.324V296.494H191.409C191.483 296.381 191.585 296.236 191.716 296.06C191.849 295.881 192.04 295.722 192.287 295.582C192.537 295.44 192.875 295.369 193.301 295.369C193.852 295.369 194.338 295.507 194.758 295.783C195.179 296.058 195.507 296.449 195.743 296.955C195.978 297.46 196.096 298.057 196.096 298.744C196.096 299.438 195.978 300.038 195.743 300.547C195.507 301.053 195.18 301.445 194.763 301.723C194.345 301.999 193.863 302.136 193.318 302.136C192.898 302.136 192.561 302.067 192.308 301.928C192.055 301.786 191.861 301.625 191.724 301.446C191.588 301.264 191.483 301.114 191.409 300.994H191.29V302H190.318ZM191.307 298.727C191.307 299.222 191.379 299.658 191.524 300.036C191.669 300.411 191.88 300.705 192.159 300.918C192.437 301.128 192.778 301.233 193.182 301.233C193.602 301.233 193.953 301.122 194.234 300.901C194.518 300.676 194.731 300.375 194.873 299.997C195.018 299.616 195.091 299.193 195.091 298.727C195.091 298.267 195.02 297.852 194.878 297.483C194.738 297.111 194.527 296.817 194.243 296.601C193.961 296.382 193.608 296.273 193.182 296.273C192.773 296.273 192.429 296.376 192.15 296.584C191.872 296.788 191.662 297.075 191.52 297.445C191.378 297.811 191.307 298.239 191.307 298.727Z" fill="black" fill-opacity="0.4"/>
<path d="M258.463 293.273H259.724L262.69 300.517H262.792L265.758 293.273H267.02V302H266.031V295.369H265.946L263.218 302H262.264L259.537 295.369H259.451V302H258.463V293.273ZM270.928 302.153C270.514 302.153 270.137 302.075 269.799 301.919C269.461 301.76 269.193 301.531 268.994 301.233C268.795 300.932 268.695 300.568 268.695 300.142C268.695 299.767 268.769 299.463 268.917 299.23C269.065 298.994 269.262 298.81 269.509 298.676C269.756 298.543 270.029 298.443 270.327 298.378C270.629 298.31 270.931 298.256 271.235 298.216C271.633 298.165 271.955 298.126 272.202 298.101C272.452 298.072 272.634 298.026 272.748 297.96C272.864 297.895 272.923 297.781 272.923 297.619V297.585C272.923 297.165 272.808 296.838 272.577 296.605C272.35 296.372 272.005 296.256 271.542 296.256C271.062 296.256 270.685 296.361 270.413 296.571C270.14 296.781 269.948 297.006 269.837 297.244L268.883 296.903C269.053 296.506 269.281 296.196 269.565 295.974C269.852 295.75 270.164 295.594 270.502 295.506C270.843 295.415 271.178 295.369 271.508 295.369C271.718 295.369 271.96 295.395 272.232 295.446C272.508 295.494 272.774 295.595 273.029 295.749C273.288 295.902 273.502 296.134 273.673 296.443C273.843 296.753 273.928 297.168 273.928 297.688V302H272.923V301.114H272.872C272.803 301.256 272.69 301.408 272.531 301.57C272.372 301.732 272.16 301.869 271.896 301.983C271.631 302.097 271.309 302.153 270.928 302.153ZM271.082 301.25C271.479 301.25 271.815 301.172 272.087 301.016C272.363 300.859 272.57 300.658 272.71 300.411C272.852 300.163 272.923 299.903 272.923 299.631V298.71C272.88 298.761 272.786 298.808 272.641 298.851C272.499 298.891 272.335 298.926 272.147 298.957C271.962 298.986 271.782 299.011 271.606 299.034C271.433 299.054 271.292 299.071 271.184 299.085C270.923 299.119 270.678 299.175 270.451 299.251C270.227 299.325 270.045 299.437 269.906 299.588C269.769 299.736 269.701 299.937 269.701 300.193C269.701 300.543 269.83 300.807 270.089 300.986C270.35 301.162 270.681 301.25 271.082 301.25ZM275.764 302V295.455H276.736V296.443H276.804C276.923 296.119 277.139 295.857 277.451 295.655C277.764 295.453 278.116 295.352 278.508 295.352C278.582 295.352 278.674 295.354 278.785 295.357C278.896 295.359 278.98 295.364 279.037 295.369V296.392C279.003 296.384 278.924 296.371 278.802 296.354C278.683 296.334 278.557 296.324 278.423 296.324C278.105 296.324 277.821 296.391 277.571 296.524C277.324 296.655 277.128 296.837 276.983 297.07C276.841 297.3 276.77 297.562 276.77 297.858V302H275.764Z" fill="black" fill-opacity="0.4"/>
<path d="M341.971 302H340.863L344.068 293.273H345.159L348.363 302H347.256L344.648 294.653H344.579L341.971 302ZM342.381 298.591H346.846V299.528H342.381V298.591ZM349.586 304.455V295.455H350.558V296.494H350.677C350.751 296.381 350.854 296.236 350.984 296.06C351.118 295.881 351.308 295.722 351.555 295.582C351.805 295.44 352.143 295.369 352.569 295.369C353.121 295.369 353.606 295.507 354.027 295.783C354.447 296.058 354.775 296.449 355.011 296.955C355.247 297.46 355.365 298.057 355.365 298.744C355.365 299.438 355.247 300.038 355.011 300.547C354.775 301.053 354.449 301.445 354.031 301.723C353.613 301.999 353.132 302.136 352.586 302.136C352.166 302.136 351.829 302.067 351.577 301.928C351.324 301.786 351.129 301.625 350.993 301.446C350.856 301.264 350.751 301.114 350.677 300.994H350.592V304.455H349.586ZM350.575 298.727C350.575 299.222 350.648 299.658 350.792 300.036C350.937 300.411 351.149 300.705 351.427 300.918C351.706 301.128 352.047 301.233 352.45 301.233C352.871 301.233 353.221 301.122 353.503 300.901C353.787 300.676 354 300.375 354.142 299.997C354.287 299.616 354.359 299.193 354.359 298.727C354.359 298.267 354.288 297.852 354.146 297.483C354.007 297.111 353.795 296.817 353.511 296.601C353.23 296.382 352.876 296.273 352.45 296.273C352.041 296.273 351.697 296.376 351.419 296.584C351.14 296.788 350.93 297.075 350.788 297.445C350.646 297.811 350.575 298.239 350.575 298.727ZM356.899 302V295.455H357.871V296.443H357.939C358.058 296.119 358.274 295.857 358.586 295.655C358.899 295.453 359.251 295.352 359.643 295.352C359.717 295.352 359.81 295.354 359.92 295.357C360.031 295.359 360.115 295.364 360.172 295.369V296.392C360.138 296.384 360.06 296.371 359.937 296.354C359.818 296.334 359.692 296.324 359.558 296.324C359.24 296.324 358.956 296.391 358.706 296.524C358.459 296.655 358.263 296.837 358.118 297.07C357.976 297.3 357.905 297.562 357.905 297.858V302H356.899Z" fill="black" fill-opacity="0.4"/>
<path d="M421.758 293.273H423.02L425.986 300.517H426.088L429.054 293.273H430.315V302H429.326V295.369H429.241L426.514 302H425.559L422.832 295.369H422.747V302H421.758V293.273ZM434.224 302.153C433.809 302.153 433.433 302.075 433.095 301.919C432.756 301.76 432.488 301.531 432.289 301.233C432.09 300.932 431.991 300.568 431.991 300.142C431.991 299.767 432.065 299.463 432.212 299.23C432.36 298.994 432.558 298.81 432.805 298.676C433.052 298.543 433.325 298.443 433.623 298.378C433.924 298.31 434.227 298.256 434.531 298.216C434.928 298.165 435.251 298.126 435.498 298.101C435.748 298.072 435.93 298.026 436.043 297.96C436.16 297.895 436.218 297.781 436.218 297.619V297.585C436.218 297.165 436.103 296.838 435.873 296.605C435.646 296.372 435.301 296.256 434.837 296.256C434.357 296.256 433.981 296.361 433.708 296.571C433.435 296.781 433.244 297.006 433.133 297.244L432.178 296.903C432.349 296.506 432.576 296.196 432.86 295.974C433.147 295.75 433.46 295.594 433.798 295.506C434.139 295.415 434.474 295.369 434.803 295.369C435.014 295.369 435.255 295.395 435.528 295.446C435.803 295.494 436.069 295.595 436.325 295.749C436.583 295.902 436.798 296.134 436.968 296.443C437.139 296.753 437.224 297.168 437.224 297.688V302H436.218V301.114H436.167C436.099 301.256 435.985 301.408 435.826 301.57C435.667 301.732 435.455 301.869 435.191 301.983C434.927 302.097 434.604 302.153 434.224 302.153ZM434.377 301.25C434.775 301.25 435.11 301.172 435.383 301.016C435.658 300.859 435.866 300.658 436.005 300.411C436.147 300.163 436.218 299.903 436.218 299.631V298.71C436.176 298.761 436.082 298.808 435.937 298.851C435.795 298.891 435.63 298.926 435.443 298.957C435.258 298.986 435.078 299.011 434.901 299.034C434.728 299.054 434.587 299.071 434.479 299.085C434.218 299.119 433.974 299.175 433.747 299.251C433.522 299.325 433.34 299.437 433.201 299.588C433.065 299.736 432.997 299.937 432.997 300.193C432.997 300.543 433.126 300.807 433.384 300.986C433.646 301.162 433.977 301.25 434.377 301.25ZM439.473 304.455C439.302 304.455 439.15 304.44 439.017 304.412C438.883 304.386 438.791 304.361 438.74 304.335L438.995 303.449C439.24 303.511 439.456 303.534 439.643 303.517C439.831 303.5 439.997 303.416 440.142 303.266C440.29 303.118 440.424 302.878 440.547 302.545L440.734 302.034L438.314 295.455H439.405L441.211 300.67H441.28L443.086 295.455H444.177L441.399 302.955C441.274 303.293 441.119 303.572 440.934 303.794C440.75 304.018 440.535 304.185 440.291 304.293C440.049 304.401 439.777 304.455 439.473 304.455Z" fill="black" fill-opacity="0.4"/>
<path d="M508.93 293.273H509.986V299.511C509.986 300.068 509.884 300.541 509.68 300.93C509.475 301.32 509.187 301.615 508.814 301.817C508.442 302.018 508.003 302.119 507.498 302.119C507.02 302.119 506.596 302.033 506.224 301.859C505.851 301.683 505.559 301.433 505.346 301.109C505.133 300.786 505.026 300.401 505.026 299.955H506.066C506.066 300.202 506.127 300.418 506.249 300.602C506.374 300.784 506.545 300.926 506.761 301.028C506.976 301.131 507.222 301.182 507.498 301.182C507.802 301.182 508.06 301.118 508.273 300.99C508.486 300.862 508.648 300.675 508.759 300.428C508.873 300.178 508.93 299.872 508.93 299.511V293.273ZM516.093 299.324V295.455H517.099V302H516.093V300.892H516.025C515.871 301.224 515.633 301.507 515.309 301.74C514.985 301.97 514.576 302.085 514.082 302.085C513.672 302.085 513.309 301.996 512.991 301.817C512.672 301.635 512.422 301.362 512.241 300.999C512.059 300.632 511.968 300.17 511.968 299.614V295.455H512.974V299.545C512.974 300.023 513.107 300.403 513.374 300.688C513.644 300.972 513.988 301.114 514.405 301.114C514.655 301.114 514.91 301.05 515.168 300.922C515.43 300.794 515.648 300.598 515.824 300.334C516.003 300.07 516.093 299.733 516.093 299.324ZM519.946 298.062V302H518.941V295.455H519.912V296.477H519.997C520.151 296.145 520.384 295.878 520.696 295.676C521.009 295.472 521.412 295.369 521.906 295.369C522.35 295.369 522.737 295.46 523.07 295.642C523.402 295.821 523.661 296.094 523.845 296.46C524.03 296.824 524.122 297.284 524.122 297.841V302H523.117V297.909C523.117 297.395 522.983 296.994 522.716 296.707C522.449 296.418 522.083 296.273 521.617 296.273C521.296 296.273 521.009 296.342 520.756 296.482C520.506 296.621 520.308 296.824 520.164 297.091C520.019 297.358 519.946 297.682 519.946 298.062Z" fill="black" fill-opacity="0.4"/>
<path d="M593.158 293.273H594.215V299.511C594.215 300.068 594.113 300.541 593.908 300.93C593.704 301.32 593.415 301.615 593.043 301.817C592.671 302.018 592.232 302.119 591.727 302.119C591.249 302.119 590.825 302.033 590.452 301.859C590.08 301.683 589.788 301.433 589.575 301.109C589.361 300.786 589.255 300.401 589.255 299.955H590.295C590.295 300.202 590.356 300.418 590.478 300.602C590.603 300.784 590.773 300.926 590.989 301.028C591.205 301.131 591.451 301.182 591.727 301.182C592.031 301.182 592.289 301.118 592.502 300.99C592.715 300.862 592.877 300.675 592.988 300.428C593.102 300.178 593.158 299.872 593.158 299.511V293.273ZM600.322 299.324V295.455H601.327V302H600.322V300.892H600.254C600.1 301.224 599.861 301.507 599.538 301.74C599.214 301.97 598.805 302.085 598.31 302.085C597.901 302.085 597.538 301.996 597.219 301.817C596.901 301.635 596.651 301.362 596.469 300.999C596.288 300.632 596.197 300.17 596.197 299.614V295.455H597.202V299.545C597.202 300.023 597.336 300.403 597.603 300.688C597.873 300.972 598.217 301.114 598.634 301.114C598.884 301.114 599.138 301.05 599.397 300.922C599.658 300.794 599.877 300.598 600.053 300.334C600.232 300.07 600.322 299.733 600.322 299.324ZM604.175 293.273V302H603.169V293.273H604.175Z" fill="black" fill-opacity="0.4"/>
<defs>
<radialGradient id="paint0_radial_1_5313" cx="0" cy="0" r="1" gradientUnits="userSpaceOnUse" gradientTransform="translate(350.499 125.27) rotate(90) scale(151.518 287.499)">
<stop stop-opacity="0.1"/>
<stop offset="1" stop-opacity="0"/>
</radialGradient>
<linearGradient id="paint1_linear_1_5313" x1="65.7104" y1="263.691" x2="638" y2="263.691" gradientUnits="userSpaceOnUse">
<stop stop-opacity="0.4"/>
<stop offset="1"/>
</linearGradient>
</defs>
</svg>
