<svg width="432" height="280" viewBox="0 0 432 280" fill="none" xmlns="http://www.w3.org/2000/svg">
<path d="M0 16C0 7.16344 7.16344 0 16 0H416C424.837 0 432 7.16344 432 16V264C432 272.837 424.837 280 416 280H16C7.16343 280 0 272.837 0 264V16Z" fill="#F9F9FA"/>
<path d="M24.5568 30.3643V28.8182H32.6804V30.3643H29.5334V39H27.7038V30.3643H24.5568ZM33.3739 39V31.3636H35.119V32.6364H35.1985C35.3377 32.1955 35.5763 31.8558 35.9144 31.6172C36.2558 31.3752 36.6452 31.2543 37.0827 31.2543C37.1822 31.2543 37.2932 31.2592 37.4158 31.2692C37.5418 31.2758 37.6462 31.2874 37.729 31.304V32.9595C37.6528 32.933 37.5318 32.9098 37.3661 32.8899C37.2037 32.8667 37.0463 32.8551 36.8938 32.8551C36.5657 32.8551 36.2707 32.9264 36.0089 33.0689C35.7504 33.2081 35.5465 33.402 35.3974 33.6506C35.2482 33.8991 35.1737 34.1858 35.1737 34.5107V39H33.3739ZM40.9854 39.1541C40.5015 39.1541 40.0657 39.0679 39.6779 38.8956C39.2934 38.7199 38.9885 38.4614 38.7631 38.12C38.5411 37.7786 38.43 37.3577 38.43 36.8572C38.43 36.4264 38.5096 36.0701 38.6687 35.7884C38.8278 35.5066 39.0449 35.2812 39.32 35.1122C39.5951 34.9432 39.9049 34.8156 40.2496 34.7294C40.5977 34.6399 40.9573 34.5753 41.3285 34.5355C41.7759 34.4891 42.1388 34.4477 42.4173 34.4112C42.6957 34.3714 42.8978 34.3118 43.0238 34.2322C43.1531 34.1494 43.2177 34.0218 43.2177 33.8494V33.8196C43.2177 33.4451 43.1067 33.1551 42.8846 32.9496C42.6625 32.7441 42.3427 32.6413 41.9251 32.6413C41.4843 32.6413 41.1346 32.7375 40.8761 32.9297C40.6209 33.1219 40.4485 33.349 40.359 33.6108L38.6786 33.3722C38.8112 32.9081 39.0299 32.5204 39.3349 32.2088C39.6398 31.8939 40.0127 31.6586 40.4535 31.5028C40.8943 31.3438 41.3815 31.2642 41.9151 31.2642C42.283 31.2642 42.6493 31.3073 43.0138 31.3935C43.3784 31.4796 43.7115 31.6222 44.0131 31.821C44.3147 32.0166 44.5567 32.2834 44.739 32.6214C44.9246 32.9595 45.0174 33.3821 45.0174 33.8892V39H43.2873V37.951H43.2276C43.1183 38.1631 42.9641 38.362 42.7653 38.5476C42.5697 38.7299 42.3228 38.8774 42.0245 38.9901C41.7295 39.0994 41.3832 39.1541 40.9854 39.1541ZM41.4528 37.8317C41.814 37.8317 42.1272 37.7604 42.3924 37.6179C42.6576 37.4721 42.8614 37.2798 43.0039 37.0412C43.1497 36.8026 43.2227 36.5424 43.2227 36.2607V35.3608C43.1663 35.4072 43.0702 35.4503 42.9343 35.4901C42.8017 35.5298 42.6526 35.5646 42.4869 35.5945C42.3211 35.6243 42.1571 35.6508 41.9947 35.674C41.8323 35.6972 41.6914 35.7171 41.5721 35.7337C41.3036 35.7701 41.0633 35.8298 40.8512 35.9126C40.6391 35.9955 40.4717 36.1115 40.3491 36.2607C40.2264 36.4065 40.1651 36.5954 40.1651 36.8274C40.1651 37.1589 40.2861 37.4091 40.5281 37.5781C40.77 37.7472 41.0782 37.8317 41.4528 37.8317ZM50.695 31.3636V32.7557H46.1808V31.3636H50.695ZM47.3093 39V30.6428C47.3093 30.129 47.4154 29.7015 47.6275 29.3601C47.8429 29.0187 48.1313 28.7635 48.4925 28.5945C48.8538 28.4254 49.2549 28.3409 49.6957 28.3409C50.0072 28.3409 50.284 28.3658 50.5259 28.4155C50.7679 28.4652 50.9469 28.5099 51.0629 28.5497L50.7049 29.9418C50.6287 29.9186 50.5326 29.8954 50.4165 29.8722C50.3005 29.8456 50.1713 29.8324 50.0288 29.8324C49.694 29.8324 49.457 29.9136 49.3178 30.076C49.1819 30.2351 49.114 30.4638 49.114 30.7621V39H47.3093ZM55.9723 31.3636V32.7557H51.4581V31.3636H55.9723ZM52.5866 39V30.6428C52.5866 30.129 52.6927 29.7015 52.9048 29.3601C53.1203 29.0187 53.4086 28.7635 53.7699 28.5945C54.1312 28.4254 54.5322 28.3409 54.973 28.3409C55.2846 28.3409 55.5613 28.3658 55.8033 28.4155C56.0452 28.4652 56.2242 28.5099 56.3402 28.5497L55.9822 29.9418C55.906 29.9186 55.8099 29.8954 55.6939 29.8722C55.5779 29.8456 55.4486 29.8324 55.3061 29.8324C54.9714 29.8324 54.7344 29.9136 54.5952 30.076C54.4593 30.2351 54.3913 30.4638 54.3913 30.7621V39H52.5866ZM57.3817 39V31.3636H59.1815V39H57.3817ZM58.2866 30.2798C58.0015 30.2798 57.7563 30.1854 57.5508 29.9964C57.3453 29.8042 57.2425 29.5739 57.2425 29.3054C57.2425 29.0336 57.3453 28.8033 57.5508 28.6143C57.7563 28.4221 58.0015 28.326 58.2866 28.326C58.5749 28.326 58.8202 28.4221 59.0224 28.6143C59.2279 28.8033 59.3306 29.0336 59.3306 29.3054C59.3306 29.5739 59.2279 29.8042 59.0224 29.9964C58.8202 30.1854 58.5749 30.2798 58.2866 30.2798ZM64.3631 39.1491C63.6008 39.1491 62.9462 38.9818 62.3993 38.647C61.8558 38.3123 61.4365 37.8499 61.1415 37.2599C60.8498 36.6667 60.704 35.9839 60.704 35.2116C60.704 34.4361 60.8532 33.7517 61.1515 33.1584C61.4498 32.5618 61.8707 32.0978 62.4142 31.7663C62.9611 31.4316 63.6074 31.2642 64.3532 31.2642C64.973 31.2642 65.5215 31.3786 65.9988 31.6072C66.4793 31.8326 66.8622 32.1525 67.1472 32.5668C67.4322 32.9777 67.5946 33.4583 67.6344 34.0085H65.9142C65.8446 33.6406 65.6789 33.334 65.4171 33.0888C65.1586 32.8402 64.8122 32.7159 64.378 32.7159C64.0101 32.7159 63.687 32.8153 63.4086 33.0142C63.1301 33.2098 62.9131 33.4915 62.7573 33.8594C62.6048 34.2273 62.5286 34.6681 62.5286 35.1818C62.5286 35.7022 62.6048 36.1496 62.7573 36.5241C62.9097 36.8954 63.1235 37.1821 63.3986 37.3842C63.677 37.5831 64.0035 37.6825 64.378 37.6825C64.6432 37.6825 64.8801 37.6328 65.089 37.5334C65.3011 37.4306 65.4784 37.2831 65.6209 37.0909C65.7634 36.8987 65.8612 36.665 65.9142 36.3899H67.6344C67.5913 36.9302 67.4322 37.4091 67.1571 37.8267C66.882 38.241 66.5075 38.5658 66.0336 38.8011C65.5596 39.0331 65.0028 39.1491 64.3631 39.1491ZM72.6644 39V28.8182H74.4641V32.6264H74.5387C74.6315 32.4408 74.7624 32.2436 74.9315 32.0348C75.1005 31.8227 75.3292 31.642 75.6175 31.4929C75.9059 31.3404 76.2738 31.2642 76.7212 31.2642C77.3112 31.2642 77.8432 31.415 78.3171 31.7166C78.7944 32.0149 79.1722 32.4574 79.4506 33.044C79.7324 33.6274 79.8732 34.3433 79.8732 35.1918C79.8732 36.0303 79.7357 36.7429 79.4606 37.3295C79.1855 37.9162 78.811 38.3636 78.337 38.6719C77.863 38.9801 77.3261 39.1342 76.7262 39.1342C76.2887 39.1342 75.9258 39.0613 75.6374 38.9155C75.3491 38.7696 75.1171 38.594 74.9414 38.3885C74.7691 38.1797 74.6348 37.9825 74.5387 37.7969H74.4343V39H72.6644ZM74.4293 35.1818C74.4293 35.6757 74.4989 36.1082 74.6381 36.4794C74.7807 36.8506 74.9845 37.1406 75.2496 37.3494C75.5181 37.5549 75.8429 37.6577 76.2241 37.6577C76.6218 37.6577 76.9549 37.5516 77.2234 37.3395C77.4918 37.1241 77.694 36.8307 77.8299 36.4595C77.9691 36.085 78.0387 35.6591 78.0387 35.1818C78.0387 34.7079 77.9708 34.2869 77.8349 33.919C77.699 33.5511 77.4968 33.2628 77.2283 33.054C76.9599 32.8452 76.6251 32.7408 76.2241 32.7408C75.8396 32.7408 75.5131 32.8419 75.2447 33.044C74.9762 33.2462 74.7724 33.5296 74.6332 33.8942C74.4973 34.2588 74.4293 34.688 74.4293 35.1818ZM82.2621 41.8636C82.0168 41.8636 81.7898 41.8438 81.581 41.804C81.3755 41.7675 81.2114 41.7244 81.0888 41.6747L81.5064 40.2727C81.7682 40.349 82.0019 40.3854 82.2074 40.3821C82.4129 40.3788 82.5935 40.3142 82.7493 40.1882C82.9084 40.0656 83.0426 39.8601 83.152 39.5717L83.3061 39.1591L80.5369 31.3636H82.446L84.206 37.1307H84.2855L86.0504 31.3636H87.9645L84.907 39.9247C84.7644 40.3291 84.5755 40.6754 84.3402 40.9638C84.1049 41.2554 83.8165 41.4775 83.4751 41.63C83.1371 41.7857 82.7327 41.8636 82.2621 41.8636ZM92.7621 39V28.8182H94.6065V37.4538H99.0909V39H92.7621ZM103.943 39.1491C103.197 39.1491 102.551 38.9851 102.004 38.657C101.457 38.3288 101.033 37.8698 100.732 37.2798C100.433 36.6899 100.284 36.0005 100.284 35.2116C100.284 34.4228 100.433 33.7318 100.732 33.1385C101.033 32.5452 101.457 32.0845 102.004 31.7564C102.551 31.4283 103.197 31.2642 103.943 31.2642C104.689 31.2642 105.335 31.4283 105.882 31.7564C106.429 32.0845 106.852 32.5452 107.15 33.1385C107.451 33.7318 107.602 34.4228 107.602 35.2116C107.602 36.0005 107.451 36.6899 107.15 37.2798C106.852 37.8698 106.429 38.3288 105.882 38.657C105.335 38.9851 104.689 39.1491 103.943 39.1491ZM103.953 37.7074C104.357 37.7074 104.696 37.5964 104.967 37.3743C105.239 37.1489 105.441 36.8473 105.574 36.4695C105.71 36.0916 105.778 35.6707 105.778 35.2067C105.778 34.7393 105.71 34.3168 105.574 33.9389C105.441 33.5578 105.239 33.2545 104.967 33.0291C104.696 32.8037 104.357 32.6911 103.953 32.6911C103.539 32.6911 103.194 32.8037 102.919 33.0291C102.647 33.2545 102.443 33.5578 102.308 33.9389C102.175 34.3168 102.109 34.7393 102.109 35.2067C102.109 35.6707 102.175 36.0916 102.308 36.4695C102.443 36.8473 102.647 37.1489 102.919 37.3743C103.194 37.5964 103.539 37.7074 103.953 37.7074ZM112.461 39.1491C111.698 39.1491 111.044 38.9818 110.497 38.647C109.953 38.3123 109.534 37.8499 109.239 37.2599C108.948 36.6667 108.802 35.9839 108.802 35.2116C108.802 34.4361 108.951 33.7517 109.249 33.1584C109.547 32.5618 109.968 32.0978 110.512 31.7663C111.059 31.4316 111.705 31.2642 112.451 31.2642C113.071 31.2642 113.619 31.3786 114.096 31.6072C114.577 31.8326 114.96 32.1525 115.245 32.5668C115.53 32.9777 115.692 33.4583 115.732 34.0085H114.012C113.942 33.6406 113.777 33.334 113.515 33.0888C113.256 32.8402 112.91 32.7159 112.476 32.7159C112.108 32.7159 111.785 32.8153 111.506 33.0142C111.228 33.2098 111.011 33.4915 110.855 33.8594C110.702 34.2273 110.626 34.6681 110.626 35.1818C110.626 35.7022 110.702 36.1496 110.855 36.5241C111.007 36.8954 111.221 37.1821 111.496 37.3842C111.775 37.5831 112.101 37.6825 112.476 37.6825C112.741 37.6825 112.978 37.6328 113.187 37.5334C113.399 37.4306 113.576 37.2831 113.719 37.0909C113.861 36.8987 113.959 36.665 114.012 36.3899H115.732C115.689 36.9302 115.53 37.4091 115.255 37.8267C114.98 38.241 114.605 38.5658 114.131 38.8011C113.657 39.0331 113.1 39.1491 112.461 39.1491ZM119.407 39.1541C118.923 39.1541 118.488 39.0679 118.1 38.8956C117.715 38.7199 117.41 38.4614 117.185 38.12C116.963 37.7786 116.852 37.3577 116.852 36.8572C116.852 36.4264 116.931 36.0701 117.091 35.7884C117.25 35.5066 117.467 35.2812 117.742 35.1122C118.017 34.9432 118.327 34.8156 118.672 34.7294C119.02 34.6399 119.379 34.5753 119.75 34.5355C120.198 34.4891 120.561 34.4477 120.839 34.4112C121.118 34.3714 121.32 34.3118 121.446 34.2322C121.575 34.1494 121.64 34.0218 121.64 33.8494V33.8196C121.64 33.4451 121.529 33.1551 121.306 32.9496C121.084 32.7441 120.765 32.6413 120.347 32.6413C119.906 32.6413 119.556 32.7375 119.298 32.9297C119.043 33.1219 118.87 33.349 118.781 33.6108L117.1 33.3722C117.233 32.9081 117.452 32.5204 117.757 32.2088C118.062 31.8939 118.435 31.6586 118.875 31.5028C119.316 31.3438 119.803 31.2642 120.337 31.2642C120.705 31.2642 121.071 31.3073 121.436 31.3935C121.8 31.4796 122.133 31.6222 122.435 31.821C122.737 32.0166 122.979 32.2834 123.161 32.6214C123.346 32.9595 123.439 33.3821 123.439 33.8892V39H121.709V37.951H121.65C121.54 38.1631 121.386 38.362 121.187 38.5476C120.992 38.7299 120.745 38.8774 120.446 38.9901C120.151 39.0994 119.805 39.1541 119.407 39.1541ZM119.875 37.8317C120.236 37.8317 120.549 37.7604 120.814 37.6179C121.079 37.4721 121.283 37.2798 121.426 37.0412C121.572 36.8026 121.645 36.5424 121.645 36.2607V35.3608C121.588 35.4072 121.492 35.4503 121.356 35.4901C121.224 35.5298 121.074 35.5646 120.909 35.5945C120.743 35.6243 120.579 35.6508 120.417 35.674C120.254 35.6972 120.113 35.7171 119.994 35.7337C119.725 35.7701 119.485 35.8298 119.273 35.9126C119.061 35.9955 118.894 36.1115 118.771 36.2607C118.648 36.4065 118.587 36.5954 118.587 36.8274C118.587 37.1589 118.708 37.4091 118.95 37.5781C119.192 37.7472 119.5 37.8317 119.875 37.8317ZM129.062 31.3636V32.7557H124.672V31.3636H129.062ZM125.756 29.5341H127.556V36.7031C127.556 36.9451 127.592 37.1307 127.665 37.2599C127.741 37.3859 127.841 37.4721 127.963 37.5185C128.086 37.5649 128.222 37.5881 128.371 37.5881C128.484 37.5881 128.587 37.5798 128.679 37.5632C128.775 37.5466 128.848 37.5317 128.898 37.5185L129.201 38.9254C129.105 38.9586 128.968 38.995 128.789 39.0348C128.613 39.0746 128.398 39.0978 128.142 39.1044C127.692 39.1177 127.286 39.0497 126.924 38.9006C126.563 38.7481 126.276 38.5128 126.064 38.1946C125.855 37.8764 125.753 37.4787 125.756 37.0014V29.5341ZM130.567 39V31.3636H132.367V39H130.567ZM131.472 30.2798C131.187 30.2798 130.942 30.1854 130.736 29.9964C130.531 29.8042 130.428 29.5739 130.428 29.3054C130.428 29.0336 130.531 28.8033 130.736 28.6143C130.942 28.4221 131.187 28.326 131.472 28.326C131.76 28.326 132.006 28.4221 132.208 28.6143C132.413 28.8033 132.516 29.0336 132.516 29.3054C132.516 29.5739 132.413 29.8042 132.208 29.9964C132.006 30.1854 131.76 30.2798 131.472 30.2798ZM137.549 39.1491C136.803 39.1491 136.157 38.9851 135.61 38.657C135.063 38.3288 134.639 37.8698 134.337 37.2798C134.039 36.6899 133.89 36.0005 133.89 35.2116C133.89 34.4228 134.039 33.7318 134.337 33.1385C134.639 32.5452 135.063 32.0845 135.61 31.7564C136.157 31.4283 136.803 31.2642 137.549 31.2642C138.294 31.2642 138.941 31.4283 139.488 31.7564C140.034 32.0845 140.457 32.5452 140.755 33.1385C141.057 33.7318 141.208 34.4228 141.208 35.2116C141.208 36.0005 141.057 36.6899 140.755 37.2798C140.457 37.8698 140.034 38.3288 139.488 38.657C138.941 38.9851 138.294 39.1491 137.549 39.1491ZM137.559 37.7074C137.963 37.7074 138.301 37.5964 138.573 37.3743C138.845 37.1489 139.047 36.8473 139.179 36.4695C139.315 36.0916 139.383 35.6707 139.383 35.2067C139.383 34.7393 139.315 34.3168 139.179 33.9389C139.047 33.5578 138.845 33.2545 138.573 33.0291C138.301 32.8037 137.963 32.6911 137.559 32.6911C137.144 32.6911 136.8 32.8037 136.525 33.0291C136.253 33.2545 136.049 33.5578 135.913 33.9389C135.78 34.3168 135.714 34.7393 135.714 35.2067C135.714 35.6707 135.78 36.0916 135.913 36.4695C136.049 36.8473 136.253 37.1489 136.525 37.3743C136.8 37.5964 137.144 37.7074 137.559 37.7074ZM144.535 34.5256V39H142.735V31.3636H144.455V32.6612H144.545C144.721 32.2337 145.001 31.8939 145.385 31.642C145.773 31.3902 146.252 31.2642 146.822 31.2642C147.349 31.2642 147.808 31.3769 148.199 31.6023C148.593 31.8277 148.898 32.1541 149.114 32.5817C149.333 33.0092 149.44 33.5279 149.437 34.1378V39H147.637V34.4162C147.637 33.9058 147.505 33.5064 147.24 33.218C146.978 32.9297 146.615 32.7855 146.151 32.7855C145.836 32.7855 145.556 32.8551 145.311 32.9943C145.069 33.1302 144.878 33.3274 144.739 33.5859C144.603 33.8445 144.535 34.1577 144.535 34.5256Z" fill="black"/>
<mask id="mask0_1_5324" style="mask-type:alpha" maskUnits="userSpaceOnUse" x="90" y="98" width="74" height="120">
<path fill-rule="evenodd" clip-rule="evenodd" d="M90.4832 213.29C90.0477 214.916 91.0329 216.589 92.6858 216.904C96.3467 217.602 100.126 217.967 103.99 217.967C137.127 217.967 163.99 191.104 163.99 157.967C163.99 126.546 139.837 100.766 109.085 98.1806C107.395 98.0385 105.99 99.4045 105.99 101.1L105.99 125.224C105.99 126.804 107.22 128.097 108.781 128.348C123.072 130.641 133.99 143.029 133.99 157.967C133.99 174.536 120.558 187.967 103.99 187.967C102.737 187.967 101.502 187.89 100.289 187.741C98.6952 187.545 97.1317 188.478 96.716 190.029L90.4832 213.29Z" fill="url(#paint0_linear_1_5324)"/>
</mask>
<g mask="url(#mask0_1_5324)">
<path fill-rule="evenodd" clip-rule="evenodd" d="M90.4832 213.29C90.0477 214.916 91.0329 216.589 92.6858 216.904C96.3467 217.602 100.126 217.967 103.99 217.967C137.127 217.967 163.99 191.104 163.99 157.967C163.99 126.546 139.837 100.766 109.085 98.1806C107.395 98.0385 105.99 99.4045 105.99 101.1L105.99 125.224C105.99 126.804 107.22 128.097 108.781 128.348C123.072 130.641 133.99 143.029 133.99 157.967C133.99 174.536 120.558 187.967 103.99 187.967C102.737 187.967 101.502 187.89 100.289 187.741C98.6952 187.545 97.1317 188.478 96.716 190.029L90.4832 213.29Z" fill="url(#paint1_linear_1_5324)"/>
<path fill-rule="evenodd" clip-rule="evenodd" d="M90.4832 213.29C90.0477 214.916 91.0329 216.589 92.6858 216.904C96.3467 217.602 100.126 217.967 103.99 217.967C137.127 217.967 163.99 191.104 163.99 157.967C163.99 126.546 139.837 100.766 109.085 98.1806C107.395 98.0385 105.99 99.4045 105.99 101.1L105.99 125.224C105.99 126.804 107.22 128.097 108.781 128.348C123.072 130.641 133.99 143.029 133.99 157.967C133.99 174.536 120.558 187.967 103.99 187.967C102.737 187.967 101.502 187.89 100.289 187.741C98.6952 187.545 97.1317 188.478 96.716 190.029L90.4832 213.29Z" fill="black" style="mix-blend-mode:screen"/>
</g>
<mask id="mask1_1_5324" style="mask-type:alpha" maskUnits="userSpaceOnUse" x="44" y="143" width="51" height="73">
<path fill-rule="evenodd" clip-rule="evenodd" d="M44.1567 158.408C44.1567 154.475 44.5352 150.631 45.2576 146.909C45.6793 144.736 47.8901 143.465 50.0282 144.038L71.2942 149.736C73.4206 150.306 74.6585 152.487 74.3871 154.672C74.2351 155.896 74.1567 157.143 74.1567 158.408C74.1567 170.659 81.4996 181.194 92.0241 185.854C94.0102 186.733 95.2407 188.872 94.6785 190.97L88.9691 212.277C88.3927 214.429 86.1629 215.707 84.0642 214.961C60.8087 206.699 44.1567 184.498 44.1567 158.408Z" fill="url(#paint2_linear_1_5324)"/>
</mask>
<g mask="url(#mask1_1_5324)">
<path fill-rule="evenodd" clip-rule="evenodd" d="M44.1567 158.408C44.1567 154.475 44.5352 150.631 45.2576 146.909C45.6793 144.736 47.8901 143.465 50.0282 144.038L71.2942 149.736C73.4206 150.306 74.6585 152.487 74.3871 154.672C74.2351 155.896 74.1567 157.143 74.1567 158.408C74.1567 170.659 81.4996 181.194 92.0241 185.854C94.0102 186.733 95.2407 188.872 94.6785 190.97L88.9691 212.277C88.3927 214.429 86.1629 215.707 84.0642 214.961C60.8087 206.699 44.1567 184.498 44.1567 158.408Z" fill="#92BFFF"/>
</g>
<mask id="mask2_1_5324" style="mask-type:alpha" maskUnits="userSpaceOnUse" x="47" y="107" width="41" height="41">
<path fill-rule="evenodd" clip-rule="evenodd" d="M76.1631 109.48C75.055 107.561 72.5888 106.897 70.7535 108.14C60.5786 115.028 52.6306 124.957 48.2145 136.622C47.4153 138.733 48.6928 141.011 50.8733 141.596L72.2718 147.329C74.3123 147.876 76.401 146.726 77.3202 144.824C79.3312 140.663 82.2748 137.037 85.8797 134.217C87.6098 132.864 88.2712 130.452 87.173 128.55L76.1631 109.48Z" fill="url(#paint3_linear_1_5324)"/>
</mask>
<g mask="url(#mask2_1_5324)">
<path fill-rule="evenodd" clip-rule="evenodd" d="M76.1631 109.48C75.055 107.561 72.5888 106.897 70.7535 108.14C60.5786 115.028 52.6306 124.957 48.2145 136.622C47.4153 138.733 48.6928 141.011 50.8733 141.596L72.2718 147.329C74.3123 147.876 76.401 146.726 77.3202 144.824C79.3312 140.663 82.2748 137.037 85.8797 134.217C87.6098 132.864 88.2712 130.452 87.173 128.55L76.1631 109.48Z" fill="#94E9B8"/>
</g>
<mask id="mask3_1_5324" style="mask-type:alpha" maskUnits="userSpaceOnUse" x="76" y="98" width="28" height="32">
<path fill-rule="evenodd" clip-rule="evenodd" d="M88.5695 127.902C89.6285 129.736 91.9269 130.398 93.9248 129.694C95.8354 129.022 97.8346 128.537 99.9001 128.263C102.09 127.972 103.889 126.209 103.889 124V102C103.889 99.7909 102.096 97.986 99.8912 98.131C92.528 98.6154 85.5276 100.428 79.1273 103.331C77.0744 104.263 76.371 106.773 77.4982 108.726L88.5695 127.902Z" fill="url(#paint4_linear_1_5324)"/>
</mask>
<g mask="url(#mask3_1_5324)">
<path fill-rule="evenodd" clip-rule="evenodd" d="M88.5695 127.902C89.6285 129.736 91.9269 130.398 93.9248 129.694C95.8354 129.022 97.8346 128.537 99.9001 128.263C102.09 127.972 103.889 126.209 103.889 124V102C103.889 99.7909 102.096 97.986 99.8912 98.131C92.528 98.6154 85.5276 100.428 79.1273 103.331C77.0744 104.263 76.371 106.773 77.4982 108.726L88.5695 127.902Z" fill="#AEC7ED"/>
</g>
<path d="M219 110C219 111.657 217.657 113 216 113C214.343 113 213 111.657 213 110C213 108.343 214.343 107 216 107C217.657 107 219 108.343 219 110Z" fill="black"/>
<path d="M225.057 114V105.273H226.114V113.062H230.17V114H225.057ZM234.33 114.136C233.739 114.136 233.22 113.996 232.774 113.714C232.331 113.433 231.984 113.04 231.734 112.534C231.487 112.028 231.364 111.437 231.364 110.761C231.364 110.08 231.487 109.484 231.734 108.976C231.984 108.467 232.331 108.072 232.774 107.791C233.22 107.51 233.739 107.369 234.33 107.369C234.92 107.369 235.438 107.51 235.881 107.791C236.327 108.072 236.673 108.467 236.92 108.976C237.17 109.484 237.295 110.08 237.295 110.761C237.295 111.437 237.17 112.028 236.92 112.534C236.673 113.04 236.327 113.433 235.881 113.714C235.438 113.996 234.92 114.136 234.33 114.136ZM234.33 113.233C234.778 113.233 235.148 113.118 235.438 112.888C235.727 112.658 235.942 112.355 236.081 111.98C236.22 111.605 236.29 111.199 236.29 110.761C236.29 110.324 236.22 109.916 236.081 109.538C235.942 109.161 235.727 108.855 235.438 108.622C235.148 108.389 234.778 108.273 234.33 108.273C233.881 108.273 233.511 108.389 233.222 108.622C232.932 108.855 232.717 109.161 232.578 109.538C232.439 109.916 232.369 110.324 232.369 110.761C232.369 111.199 232.439 111.605 232.578 111.98C232.717 112.355 232.932 112.658 233.222 112.888C233.511 113.118 233.881 113.233 234.33 113.233ZM239.836 110.062V114H238.831V107.455H239.802V108.477H239.887C240.041 108.145 240.274 107.878 240.586 107.676C240.899 107.472 241.302 107.369 241.797 107.369C242.24 107.369 242.627 107.46 242.96 107.642C243.292 107.821 243.551 108.094 243.735 108.46C243.92 108.824 244.012 109.284 244.012 109.841V114H243.007V109.909C243.007 109.395 242.873 108.994 242.606 108.707C242.339 108.418 241.973 108.273 241.507 108.273C241.186 108.273 240.899 108.342 240.646 108.482C240.396 108.621 240.199 108.824 240.054 109.091C239.909 109.358 239.836 109.682 239.836 110.062ZM248.322 114.136C247.776 114.136 247.295 113.999 246.877 113.723C246.46 113.445 246.133 113.053 245.897 112.547C245.661 112.038 245.543 111.438 245.543 110.744C245.543 110.057 245.661 109.46 245.897 108.955C246.133 108.449 246.461 108.058 246.881 107.783C247.302 107.507 247.788 107.369 248.339 107.369C248.765 107.369 249.102 107.44 249.349 107.582C249.599 107.722 249.789 107.881 249.92 108.06C250.053 108.236 250.157 108.381 250.231 108.494H250.316V105.273H251.322V114H250.35V112.994H250.231C250.157 113.114 250.052 113.264 249.915 113.446C249.779 113.625 249.585 113.786 249.332 113.928C249.079 114.067 248.742 114.136 248.322 114.136ZM248.458 113.233C248.862 113.233 249.202 113.128 249.481 112.918C249.759 112.705 249.971 112.411 250.116 112.036C250.261 111.658 250.333 111.222 250.333 110.727C250.333 110.239 250.262 109.811 250.12 109.445C249.978 109.075 249.768 108.788 249.489 108.584C249.211 108.376 248.867 108.273 248.458 108.273C248.032 108.273 247.677 108.382 247.393 108.601C247.112 108.817 246.9 109.111 246.758 109.483C246.619 109.852 246.549 110.267 246.549 110.727C246.549 111.193 246.62 111.616 246.762 111.997C246.907 112.375 247.12 112.676 247.401 112.901C247.685 113.122 248.038 113.233 248.458 113.233ZM255.962 114.136C255.371 114.136 254.853 113.996 254.407 113.714C253.964 113.433 253.617 113.04 253.367 112.534C253.12 112.028 252.996 111.437 252.996 110.761C252.996 110.08 253.12 109.484 253.367 108.976C253.617 108.467 253.964 108.072 254.407 107.791C254.853 107.51 255.371 107.369 255.962 107.369C256.553 107.369 257.07 107.51 257.513 107.791C257.96 108.072 258.306 108.467 258.553 108.976C258.803 109.484 258.928 110.08 258.928 110.761C258.928 111.437 258.803 112.028 258.553 112.534C258.306 113.04 257.96 113.433 257.513 113.714C257.07 113.996 256.553 114.136 255.962 114.136ZM255.962 113.233C256.411 113.233 256.781 113.118 257.07 112.888C257.36 112.658 257.575 112.355 257.714 111.98C257.853 111.605 257.923 111.199 257.923 110.761C257.923 110.324 257.853 109.916 257.714 109.538C257.575 109.161 257.36 108.855 257.07 108.622C256.781 108.389 256.411 108.273 255.962 108.273C255.513 108.273 255.144 108.389 254.854 108.622C254.565 108.855 254.35 109.161 254.211 109.538C254.072 109.916 254.002 110.324 254.002 110.761C254.002 111.199 254.072 111.605 254.211 111.98C254.35 112.355 254.565 112.658 254.854 112.888C255.144 113.118 255.513 113.233 255.962 113.233ZM261.469 110.062V114H260.463V107.455H261.435V108.477H261.52C261.674 108.145 261.907 107.878 262.219 107.676C262.532 107.472 262.935 107.369 263.429 107.369C263.873 107.369 264.26 107.46 264.593 107.642C264.925 107.821 265.184 108.094 265.368 108.46C265.553 108.824 265.645 109.284 265.645 109.841V114H264.64V109.909C264.64 109.395 264.506 108.994 264.239 108.707C263.972 108.418 263.605 108.273 263.14 108.273C262.819 108.273 262.532 108.342 262.279 108.482C262.029 108.621 261.831 108.824 261.686 109.091C261.542 109.358 261.469 109.682 261.469 110.062Z" fill="black"/>
<path d="M359.631 114.119C359.131 114.119 358.68 114.02 358.28 113.821C357.879 113.622 357.558 113.349 357.317 113.003C357.075 112.656 356.943 112.261 356.92 111.818H357.943C357.983 112.213 358.162 112.54 358.48 112.798C358.801 113.054 359.185 113.182 359.631 113.182C359.989 113.182 360.307 113.098 360.585 112.93C360.866 112.763 361.087 112.533 361.246 112.24C361.408 111.945 361.489 111.611 361.489 111.239C361.489 110.858 361.405 110.518 361.237 110.22C361.072 109.919 360.845 109.682 360.555 109.509C360.266 109.335 359.935 109.247 359.562 109.244C359.295 109.241 359.021 109.283 358.74 109.368C358.459 109.45 358.227 109.557 358.045 109.688L357.057 109.568L357.585 105.273H362.119V106.21H358.472L358.165 108.784H358.216C358.395 108.642 358.619 108.524 358.889 108.43C359.159 108.337 359.44 108.29 359.733 108.29C360.267 108.29 360.743 108.418 361.161 108.673C361.581 108.926 361.911 109.273 362.149 109.713C362.391 110.153 362.511 110.656 362.511 111.222C362.511 111.778 362.386 112.276 362.136 112.713C361.889 113.148 361.548 113.491 361.114 113.744C360.679 113.994 360.185 114.119 359.631 114.119ZM364.204 114V113.233L367.085 110.08C367.423 109.71 367.701 109.389 367.92 109.116C368.139 108.841 368.301 108.582 368.406 108.341C368.514 108.097 368.568 107.841 368.568 107.574C368.568 107.267 368.494 107.001 368.346 106.777C368.201 106.553 368.002 106.379 367.75 106.257C367.497 106.135 367.213 106.074 366.897 106.074C366.562 106.074 366.27 106.143 366.02 106.283C365.772 106.419 365.581 106.611 365.444 106.858C365.311 107.105 365.244 107.395 365.244 107.727H364.238C364.238 107.216 364.356 106.767 364.592 106.381C364.828 105.994 365.149 105.693 365.555 105.477C365.964 105.261 366.423 105.153 366.931 105.153C367.443 105.153 367.896 105.261 368.291 105.477C368.686 105.693 368.995 105.984 369.22 106.351C369.444 106.717 369.556 107.125 369.556 107.574C369.556 107.895 369.498 108.209 369.382 108.516C369.268 108.82 369.069 109.159 368.785 109.534C368.504 109.906 368.113 110.361 367.613 110.898L365.653 112.994V113.062H369.71V114H364.204ZM372.22 114.068C372.01 114.068 371.829 113.993 371.679 113.842C371.528 113.692 371.453 113.511 371.453 113.301C371.453 113.091 371.528 112.911 371.679 112.76C371.829 112.609 372.01 112.534 372.22 112.534C372.43 112.534 372.61 112.609 372.761 112.76C372.912 112.911 372.987 113.091 372.987 113.301C372.987 113.44 372.951 113.568 372.88 113.685C372.812 113.801 372.72 113.895 372.603 113.966C372.49 114.034 372.362 114.068 372.22 114.068ZM376.527 105.273V114H375.47V106.807H375.402C375.362 106.886 375.26 106.977 375.095 107.08C374.93 107.179 374.717 107.267 374.456 107.344C374.195 107.418 373.896 107.455 373.561 107.455V106.568C373.899 106.568 374.192 106.507 374.439 106.385C374.686 106.263 374.892 106.119 375.057 105.955C375.224 105.79 375.351 105.641 375.436 105.507C375.524 105.374 375.575 105.295 375.589 105.273H376.527ZM383.477 112.364V111.903C383.477 111.585 383.543 111.294 383.673 111.03C383.807 110.763 384 110.55 384.253 110.391C384.509 110.229 384.818 110.148 385.182 110.148C385.551 110.148 385.861 110.229 386.111 110.391C386.361 110.55 386.55 110.763 386.678 111.03C386.805 111.294 386.869 111.585 386.869 111.903V112.364C386.869 112.682 386.804 112.974 386.673 113.241C386.545 113.506 386.355 113.719 386.102 113.881C385.852 114.04 385.545 114.119 385.182 114.119C384.813 114.119 384.501 114.04 384.249 113.881C383.996 113.719 383.804 113.506 383.673 113.241C383.543 112.974 383.477 112.682 383.477 112.364ZM384.347 111.903V112.364C384.347 112.628 384.409 112.865 384.534 113.075C384.659 113.283 384.875 113.386 385.182 113.386C385.48 113.386 385.69 113.283 385.812 113.075C385.938 112.865 386 112.628 386 112.364V111.903C386 111.639 385.94 111.403 385.821 111.196C385.702 110.986 385.489 110.881 385.182 110.881C384.884 110.881 384.669 110.986 384.538 111.196C384.411 111.403 384.347 111.639 384.347 111.903ZM379.131 107.369V106.909C379.131 106.591 379.196 106.3 379.327 106.036C379.46 105.768 379.653 105.555 379.906 105.396C380.162 105.234 380.472 105.153 380.835 105.153C381.205 105.153 381.514 105.234 381.764 105.396C382.014 105.555 382.203 105.768 382.331 106.036C382.459 106.3 382.523 106.591 382.523 106.909V107.369C382.523 107.687 382.457 107.98 382.327 108.247C382.199 108.511 382.009 108.724 381.756 108.886C381.506 109.045 381.199 109.125 380.835 109.125C380.466 109.125 380.155 109.045 379.902 108.886C379.649 108.724 379.457 108.511 379.327 108.247C379.196 107.98 379.131 107.687 379.131 107.369ZM380 106.909V107.369C380 107.634 380.062 107.871 380.188 108.081C380.312 108.288 380.528 108.392 380.835 108.392C381.134 108.392 381.344 108.288 381.466 108.081C381.591 107.871 381.653 107.634 381.653 107.369V106.909C381.653 106.645 381.594 106.409 381.474 106.202C381.355 105.991 381.142 105.886 380.835 105.886C380.537 105.886 380.322 105.991 380.192 106.202C380.064 106.409 380 106.645 380 106.909ZM379.455 114L385.455 105.273H386.426L380.426 114H379.455Z" fill="black"/>
<path d="M219 142C219 143.657 217.657 145 216 145C214.343 145 213 143.657 213 142C213 140.343 214.343 139 216 139C217.657 139 219 140.343 219 142Z" fill="#92BFFF"/>
<path d="M225.057 137.273H226.318L229.284 144.517H229.386L232.352 137.273H233.614V146H232.625V139.369H232.54L229.812 146H228.858L226.131 139.369H226.045V146H225.057V137.273ZM237.522 146.153C237.108 146.153 236.731 146.075 236.393 145.919C236.055 145.76 235.787 145.531 235.588 145.233C235.389 144.932 235.289 144.568 235.289 144.142C235.289 143.767 235.363 143.463 235.511 143.23C235.659 142.994 235.856 142.81 236.103 142.676C236.35 142.543 236.623 142.443 236.922 142.378C237.223 142.31 237.525 142.256 237.829 142.216C238.227 142.165 238.549 142.126 238.797 142.101C239.047 142.072 239.228 142.026 239.342 141.96C239.458 141.895 239.517 141.781 239.517 141.619V141.585C239.517 141.165 239.402 140.838 239.172 140.605C238.944 140.372 238.599 140.256 238.136 140.256C237.656 140.256 237.279 140.361 237.007 140.571C236.734 140.781 236.542 141.006 236.431 141.244L235.477 140.903C235.647 140.506 235.875 140.196 236.159 139.974C236.446 139.75 236.758 139.594 237.096 139.506C237.437 139.415 237.772 139.369 238.102 139.369C238.312 139.369 238.554 139.395 238.826 139.446C239.102 139.494 239.368 139.595 239.623 139.749C239.882 139.902 240.096 140.134 240.267 140.443C240.437 140.753 240.522 141.168 240.522 141.688V146H239.517V145.114H239.466C239.397 145.256 239.284 145.408 239.125 145.57C238.966 145.732 238.754 145.869 238.49 145.983C238.225 146.097 237.903 146.153 237.522 146.153ZM237.676 145.25C238.074 145.25 238.409 145.172 238.681 145.016C238.957 144.859 239.164 144.658 239.304 144.411C239.446 144.163 239.517 143.903 239.517 143.631V142.71C239.474 142.761 239.38 142.808 239.235 142.851C239.093 142.891 238.929 142.926 238.741 142.957C238.556 142.986 238.376 143.011 238.2 143.034C238.027 143.054 237.886 143.071 237.778 143.085C237.517 143.119 237.272 143.175 237.045 143.251C236.821 143.325 236.639 143.437 236.5 143.588C236.363 143.736 236.295 143.937 236.295 144.193C236.295 144.543 236.424 144.807 236.683 144.986C236.944 145.162 237.275 145.25 237.676 145.25ZM243.364 142.062V146H242.358V139.455H243.33V140.477H243.415C243.568 140.145 243.801 139.878 244.114 139.676C244.426 139.472 244.83 139.369 245.324 139.369C245.767 139.369 246.155 139.46 246.487 139.642C246.82 139.821 247.078 140.094 247.263 140.46C247.447 140.824 247.54 141.284 247.54 141.841V146H246.534V141.909C246.534 141.395 246.401 140.994 246.134 140.707C245.866 140.418 245.5 140.273 245.034 140.273C244.713 140.273 244.426 140.342 244.173 140.482C243.923 140.621 243.726 140.824 243.581 141.091C243.436 141.358 243.364 141.682 243.364 142.062ZM252.037 146.136C251.423 146.136 250.895 145.991 250.451 145.702C250.008 145.412 249.667 145.013 249.429 144.504C249.19 143.996 249.071 143.415 249.071 142.761C249.071 142.097 249.193 141.51 249.437 141.001C249.684 140.49 250.028 140.091 250.468 139.804C250.912 139.514 251.429 139.369 252.02 139.369C252.48 139.369 252.895 139.455 253.264 139.625C253.633 139.795 253.936 140.034 254.172 140.341C254.407 140.648 254.554 141.006 254.61 141.415H253.605C253.528 141.116 253.358 140.852 253.093 140.622C252.832 140.389 252.48 140.273 252.037 140.273C251.645 140.273 251.301 140.375 251.005 140.58C250.713 140.781 250.484 141.067 250.319 141.436C250.157 141.803 250.076 142.233 250.076 142.727C250.076 143.233 250.156 143.673 250.315 144.048C250.477 144.423 250.704 144.714 250.997 144.922C251.292 145.129 251.639 145.233 252.037 145.233C252.298 145.233 252.535 145.188 252.748 145.097C252.961 145.006 253.142 144.875 253.289 144.705C253.437 144.534 253.542 144.33 253.605 144.091H254.61C254.554 144.477 254.413 144.825 254.189 145.135C253.967 145.442 253.673 145.686 253.306 145.868C252.943 146.047 252.52 146.136 252.037 146.136ZM257.086 142.062V146H256.081V137.273H257.086V140.477H257.172C257.325 140.139 257.555 139.871 257.862 139.672C258.172 139.47 258.583 139.369 259.098 139.369C259.544 139.369 259.934 139.459 260.27 139.638C260.605 139.814 260.865 140.085 261.049 140.452C261.237 140.815 261.331 141.278 261.331 141.841V146H260.325V141.909C260.325 141.389 260.19 140.987 259.92 140.703C259.653 140.416 259.282 140.273 258.808 140.273C258.478 140.273 258.183 140.342 257.922 140.482C257.663 140.621 257.458 140.824 257.308 141.091C257.16 141.358 257.086 141.682 257.086 142.062ZM265.915 146.136C265.284 146.136 264.74 145.997 264.283 145.719C263.828 145.438 263.477 145.045 263.23 144.543C262.986 144.037 262.864 143.449 262.864 142.778C262.864 142.108 262.986 141.517 263.23 141.006C263.477 140.491 263.821 140.091 264.261 139.804C264.705 139.514 265.222 139.369 265.812 139.369C266.153 139.369 266.49 139.426 266.822 139.54C267.155 139.653 267.457 139.838 267.73 140.094C268.003 140.347 268.22 140.682 268.382 141.099C268.544 141.517 268.625 142.031 268.625 142.642V143.068H263.58V142.199H267.602C267.602 141.83 267.528 141.5 267.381 141.21C267.236 140.92 267.028 140.692 266.759 140.524C266.491 140.357 266.176 140.273 265.812 140.273C265.412 140.273 265.065 140.372 264.773 140.571C264.483 140.767 264.26 141.023 264.104 141.338C263.947 141.653 263.869 141.991 263.869 142.352V142.932C263.869 143.426 263.955 143.845 264.125 144.189C264.298 144.53 264.538 144.79 264.845 144.969C265.152 145.145 265.509 145.233 265.915 145.233C266.179 145.233 266.418 145.196 266.631 145.122C266.847 145.045 267.033 144.932 267.189 144.781C267.345 144.628 267.466 144.437 267.551 144.21L268.523 144.483C268.42 144.812 268.249 145.102 268.007 145.352C267.766 145.599 267.467 145.793 267.112 145.932C266.757 146.068 266.358 146.136 265.915 146.136ZM274.791 140.92L273.888 141.176C273.831 141.026 273.747 140.879 273.636 140.737C273.528 140.592 273.381 140.473 273.193 140.379C273.006 140.286 272.766 140.239 272.473 140.239C272.072 140.239 271.739 140.331 271.472 140.516C271.207 140.697 271.075 140.929 271.075 141.21C271.075 141.46 271.166 141.658 271.348 141.803C271.53 141.947 271.814 142.068 272.2 142.165L273.172 142.403C273.757 142.545 274.193 142.763 274.48 143.055C274.767 143.345 274.911 143.719 274.911 144.176C274.911 144.551 274.803 144.886 274.587 145.182C274.374 145.477 274.075 145.71 273.692 145.881C273.308 146.051 272.862 146.136 272.354 146.136C271.686 146.136 271.134 145.991 270.696 145.702C270.259 145.412 269.982 144.989 269.865 144.432L270.82 144.193C270.911 144.545 271.082 144.81 271.335 144.986C271.591 145.162 271.925 145.25 272.337 145.25C272.805 145.25 273.178 145.151 273.453 144.952C273.732 144.75 273.871 144.509 273.871 144.227C273.871 144 273.791 143.81 273.632 143.656C273.473 143.5 273.229 143.384 272.899 143.307L271.808 143.051C271.209 142.909 270.768 142.689 270.487 142.391C270.209 142.089 270.07 141.713 270.07 141.261C270.07 140.892 270.173 140.565 270.381 140.281C270.591 139.997 270.876 139.774 271.237 139.612C271.601 139.45 272.013 139.369 272.473 139.369C273.121 139.369 273.629 139.511 273.999 139.795C274.371 140.08 274.635 140.455 274.791 140.92ZM279.271 139.455V140.307H275.879V139.455H279.271ZM276.868 137.886H277.873V144.125C277.873 144.409 277.914 144.622 277.997 144.764C278.082 144.903 278.19 144.997 278.321 145.045C278.454 145.091 278.595 145.114 278.743 145.114C278.853 145.114 278.944 145.108 279.015 145.097C279.086 145.082 279.143 145.071 279.186 145.062L279.39 145.966C279.322 145.991 279.227 146.017 279.105 146.043C278.983 146.071 278.828 146.085 278.64 146.085C278.356 146.085 278.078 146.024 277.805 145.902C277.535 145.78 277.311 145.594 277.132 145.344C276.956 145.094 276.868 144.778 276.868 144.398V137.886ZM283.458 146.136C282.827 146.136 282.283 145.997 281.826 145.719C281.371 145.438 281.02 145.045 280.773 144.543C280.529 144.037 280.407 143.449 280.407 142.778C280.407 142.108 280.529 141.517 280.773 141.006C281.02 140.491 281.364 140.091 281.804 139.804C282.248 139.514 282.765 139.369 283.355 139.369C283.696 139.369 284.033 139.426 284.365 139.54C284.698 139.653 285 139.838 285.273 140.094C285.546 140.347 285.763 140.682 285.925 141.099C286.087 141.517 286.168 142.031 286.168 142.642V143.068H281.123V142.199H285.145C285.145 141.83 285.071 141.5 284.924 141.21C284.779 140.92 284.571 140.692 284.301 140.524C284.034 140.357 283.719 140.273 283.355 140.273C282.955 140.273 282.608 140.372 282.316 140.571C282.026 140.767 281.803 141.023 281.647 141.338C281.49 141.653 281.412 141.991 281.412 142.352V142.932C281.412 143.426 281.498 143.845 281.668 144.189C281.841 144.53 282.081 144.79 282.388 144.969C282.695 145.145 283.051 145.233 283.458 145.233C283.722 145.233 283.961 145.196 284.174 145.122C284.39 145.045 284.576 144.932 284.732 144.781C284.888 144.628 285.009 144.437 285.094 144.21L286.066 144.483C285.963 144.812 285.792 145.102 285.55 145.352C285.309 145.599 285.01 145.793 284.655 145.932C284.3 146.068 283.901 146.136 283.458 146.136ZM287.698 146V139.455H288.669V140.443H288.738C288.857 140.119 289.073 139.857 289.385 139.655C289.698 139.453 290.05 139.352 290.442 139.352C290.516 139.352 290.608 139.354 290.719 139.357C290.83 139.359 290.914 139.364 290.971 139.369V140.392C290.936 140.384 290.858 140.371 290.736 140.354C290.617 140.334 290.49 140.324 290.357 140.324C290.039 140.324 289.755 140.391 289.505 140.524C289.257 140.655 289.061 140.837 288.917 141.07C288.775 141.3 288.703 141.562 288.703 141.858V146H287.698Z" fill="black"/>
<path d="M353.903 146V145.233L356.784 142.08C357.122 141.71 357.401 141.389 357.619 141.116C357.838 140.841 358 140.582 358.105 140.341C358.213 140.097 358.267 139.841 358.267 139.574C358.267 139.267 358.193 139.001 358.045 138.777C357.901 138.553 357.702 138.379 357.449 138.257C357.196 138.135 356.912 138.074 356.597 138.074C356.261 138.074 355.969 138.143 355.719 138.283C355.472 138.419 355.28 138.611 355.143 138.858C355.01 139.105 354.943 139.395 354.943 139.727H353.938C353.938 139.216 354.055 138.767 354.291 138.381C354.527 137.994 354.848 137.693 355.254 137.477C355.663 137.261 356.122 137.153 356.631 137.153C357.142 137.153 357.595 137.261 357.99 137.477C358.385 137.693 358.695 137.984 358.919 138.351C359.143 138.717 359.256 139.125 359.256 139.574C359.256 139.895 359.197 140.209 359.081 140.516C358.967 140.82 358.768 141.159 358.484 141.534C358.203 141.906 357.812 142.361 357.312 142.898L355.352 144.994V145.062H359.409V146H353.903ZM361.169 146V145.233L364.05 142.08C364.388 141.71 364.666 141.389 364.885 141.116C365.104 140.841 365.266 140.582 365.371 140.341C365.479 140.097 365.533 139.841 365.533 139.574C365.533 139.267 365.459 139.001 365.311 138.777C365.166 138.553 364.967 138.379 364.714 138.257C364.462 138.135 364.178 138.074 363.862 138.074C363.527 138.074 363.234 138.143 362.984 138.283C362.737 138.419 362.545 138.611 362.409 138.858C362.276 139.105 362.209 139.395 362.209 139.727H361.203C361.203 139.216 361.321 138.767 361.557 138.381C361.793 137.994 362.114 137.693 362.52 137.477C362.929 137.261 363.388 137.153 363.896 137.153C364.408 137.153 364.861 137.261 365.256 137.477C365.651 137.693 365.96 137.984 366.185 138.351C366.409 138.717 366.521 139.125 366.521 139.574C366.521 139.895 366.463 140.209 366.347 140.516C366.233 140.82 366.034 141.159 365.75 141.534C365.469 141.906 365.078 142.361 364.578 142.898L362.618 144.994V145.062H366.675V146H361.169ZM369.185 146.068C368.974 146.068 368.794 145.993 368.643 145.842C368.493 145.692 368.418 145.511 368.418 145.301C368.418 145.091 368.493 144.911 368.643 144.76C368.794 144.609 368.974 144.534 369.185 144.534C369.395 144.534 369.575 144.609 369.726 144.76C369.876 144.911 369.952 145.091 369.952 145.301C369.952 145.44 369.916 145.568 369.845 145.685C369.777 145.801 369.685 145.895 369.568 145.966C369.455 146.034 369.327 146.068 369.185 146.068ZM374.265 146.119C373.68 146.119 373.163 146.016 372.714 145.808C372.268 145.598 371.92 145.31 371.67 144.943C371.42 144.574 371.297 144.153 371.299 143.682C371.297 143.312 371.369 142.972 371.517 142.659C371.664 142.344 371.866 142.081 372.122 141.871C372.38 141.658 372.669 141.523 372.987 141.466V141.415C372.569 141.307 372.237 141.072 371.99 140.712C371.743 140.348 371.62 139.935 371.623 139.472C371.62 139.028 371.733 138.632 371.96 138.283C372.187 137.933 372.5 137.658 372.897 137.456C373.298 137.254 373.754 137.153 374.265 137.153C374.771 137.153 375.223 137.254 375.62 137.456C376.018 137.658 376.331 137.933 376.558 138.283C376.788 138.632 376.904 139.028 376.907 139.472C376.904 139.935 376.778 140.348 376.528 140.712C376.281 141.072 375.953 141.307 375.544 141.415V141.466C375.859 141.523 376.143 141.658 376.396 141.871C376.649 142.081 376.85 142.344 377.001 142.659C377.152 142.972 377.228 143.312 377.231 143.682C377.228 144.153 377.1 144.574 376.848 144.943C376.598 145.31 376.25 145.598 375.804 145.808C375.36 146.016 374.848 146.119 374.265 146.119ZM374.265 145.182C374.66 145.182 375.001 145.118 375.288 144.99C375.575 144.862 375.797 144.682 375.953 144.449C376.109 144.216 376.189 143.943 376.191 143.631C376.189 143.301 376.103 143.01 375.936 142.757C375.768 142.504 375.539 142.305 375.25 142.161C374.963 142.016 374.635 141.943 374.265 141.943C373.893 141.943 373.561 142.016 373.268 142.161C372.978 142.305 372.75 142.504 372.582 142.757C372.417 143.01 372.336 143.301 372.339 143.631C372.336 143.943 372.412 144.216 372.565 144.449C372.721 144.682 372.944 144.862 373.234 144.99C373.524 145.118 373.868 145.182 374.265 145.182ZM374.265 141.04C374.578 141.04 374.855 140.977 375.096 140.852C375.341 140.727 375.532 140.553 375.672 140.328C375.811 140.104 375.882 139.841 375.885 139.54C375.882 139.244 375.812 138.987 375.676 138.768C375.539 138.547 375.35 138.376 375.109 138.257C374.868 138.135 374.586 138.074 374.265 138.074C373.939 138.074 373.653 138.135 373.409 138.257C373.164 138.376 372.975 138.547 372.842 138.768C372.708 138.987 372.643 139.244 372.646 139.54C372.643 139.841 372.71 140.104 372.846 140.328C372.985 140.553 373.177 140.727 373.422 140.852C373.666 140.977 373.947 141.04 374.265 141.04ZM383.313 144.364V143.903C383.313 143.585 383.379 143.294 383.509 143.03C383.643 142.763 383.836 142.55 384.089 142.391C384.344 142.229 384.654 142.148 385.018 142.148C385.387 142.148 385.697 142.229 385.947 142.391C386.197 142.55 386.386 142.763 386.513 143.03C386.641 143.294 386.705 143.585 386.705 143.903V144.364C386.705 144.682 386.64 144.974 386.509 145.241C386.381 145.506 386.191 145.719 385.938 145.881C385.688 146.04 385.381 146.119 385.018 146.119C384.648 146.119 384.337 146.04 384.085 145.881C383.832 145.719 383.64 145.506 383.509 145.241C383.379 144.974 383.313 144.682 383.313 144.364ZM384.183 143.903V144.364C384.183 144.628 384.245 144.865 384.37 145.075C384.495 145.283 384.711 145.386 385.018 145.386C385.316 145.386 385.526 145.283 385.648 145.075C385.773 144.865 385.836 144.628 385.836 144.364V143.903C385.836 143.639 385.776 143.403 385.657 143.196C385.538 142.986 385.325 142.881 385.018 142.881C384.719 142.881 384.505 142.986 384.374 143.196C384.246 143.403 384.183 143.639 384.183 143.903ZM378.967 139.369V138.909C378.967 138.591 379.032 138.3 379.163 138.036C379.296 137.768 379.489 137.555 379.742 137.396C379.998 137.234 380.308 137.153 380.671 137.153C381.04 137.153 381.35 137.234 381.6 137.396C381.85 137.555 382.039 137.768 382.167 138.036C382.295 138.3 382.359 138.591 382.359 138.909V139.369C382.359 139.687 382.293 139.98 382.163 140.247C382.035 140.511 381.844 140.724 381.592 140.886C381.342 141.045 381.035 141.125 380.671 141.125C380.302 141.125 379.991 141.045 379.738 140.886C379.485 140.724 379.293 140.511 379.163 140.247C379.032 139.98 378.967 139.687 378.967 139.369ZM379.836 138.909V139.369C379.836 139.634 379.898 139.871 380.023 140.081C380.148 140.288 380.364 140.392 380.671 140.392C380.969 140.392 381.18 140.288 381.302 140.081C381.427 139.871 381.489 139.634 381.489 139.369V138.909C381.489 138.645 381.43 138.409 381.31 138.202C381.191 137.991 380.978 137.886 380.671 137.886C380.373 137.886 380.158 137.991 380.028 138.202C379.9 138.409 379.836 138.645 379.836 138.909ZM379.29 146L385.29 137.273H386.262L380.262 146H379.29Z" fill="black"/>
<path d="M219 174C219 175.657 217.657 177 216 177C214.343 177 213 175.657 213 174C213 172.343 214.343 171 216 171C217.657 171 219 172.343 219 174Z" fill="#94E9B8"/>
<path d="M226.642 178L224.256 169.273H225.33L227.153 176.381H227.239L229.097 169.273H230.29L232.148 176.381H232.233L234.057 169.273H235.131L232.744 178H231.653L229.727 171.045H229.659L227.733 178H226.642ZM236.311 178V171.455H237.317V178H236.311ZM236.822 170.364C236.626 170.364 236.457 170.297 236.315 170.163C236.176 170.03 236.107 169.869 236.107 169.682C236.107 169.494 236.176 169.334 236.315 169.2C236.457 169.067 236.626 169 236.822 169C237.018 169 237.186 169.067 237.325 169.2C237.467 169.334 237.538 169.494 237.538 169.682C237.538 169.869 237.467 170.03 237.325 170.163C237.186 170.297 237.018 170.364 236.822 170.364ZM241.801 180.591C241.315 180.591 240.897 180.528 240.548 180.403C240.199 180.281 239.907 180.119 239.674 179.918C239.444 179.719 239.261 179.506 239.125 179.278L239.926 178.716C240.017 178.835 240.132 178.972 240.271 179.125C240.41 179.281 240.6 179.416 240.842 179.53C241.086 179.646 241.406 179.705 241.801 179.705C242.329 179.705 242.765 179.577 243.109 179.321C243.453 179.065 243.625 178.665 243.625 178.119V176.79H243.539C243.466 176.909 243.36 177.057 243.224 177.233C243.091 177.406 242.897 177.561 242.645 177.697C242.395 177.831 242.056 177.898 241.63 177.898C241.102 177.898 240.627 177.773 240.207 177.523C239.789 177.273 239.458 176.909 239.214 176.432C238.973 175.955 238.852 175.375 238.852 174.693C238.852 174.023 238.97 173.439 239.206 172.942C239.441 172.442 239.77 172.055 240.19 171.783C240.61 171.507 241.096 171.369 241.647 171.369C242.074 171.369 242.412 171.44 242.662 171.582C242.914 171.722 243.108 171.881 243.241 172.06C243.377 172.236 243.483 172.381 243.556 172.494H243.659V171.455H244.63V178.188C244.63 178.75 244.502 179.207 244.247 179.56C243.994 179.915 243.653 180.175 243.224 180.339C242.798 180.507 242.324 180.591 241.801 180.591ZM241.767 176.994C242.17 176.994 242.511 176.902 242.789 176.717C243.068 176.533 243.279 176.267 243.424 175.92C243.569 175.574 243.642 175.159 243.642 174.676C243.642 174.205 243.571 173.788 243.429 173.428C243.287 173.067 243.076 172.784 242.798 172.58C242.52 172.375 242.176 172.273 241.767 172.273C241.341 172.273 240.985 172.381 240.701 172.597C240.42 172.812 240.208 173.102 240.066 173.466C239.927 173.83 239.858 174.233 239.858 174.676C239.858 175.131 239.929 175.533 240.071 175.882C240.216 176.229 240.429 176.501 240.71 176.7C240.994 176.896 241.346 176.994 241.767 176.994ZM248.397 178.153C247.983 178.153 247.606 178.075 247.268 177.919C246.93 177.76 246.662 177.531 246.463 177.233C246.264 176.932 246.164 176.568 246.164 176.142C246.164 175.767 246.238 175.463 246.386 175.23C246.534 174.994 246.731 174.81 246.978 174.676C247.225 174.543 247.498 174.443 247.797 174.378C248.098 174.31 248.4 174.256 248.704 174.216C249.102 174.165 249.424 174.126 249.672 174.101C249.922 174.072 250.103 174.026 250.217 173.96C250.333 173.895 250.392 173.781 250.392 173.619V173.585C250.392 173.165 250.277 172.838 250.047 172.605C249.819 172.372 249.474 172.256 249.011 172.256C248.531 172.256 248.154 172.361 247.882 172.571C247.609 172.781 247.417 173.006 247.306 173.244L246.352 172.903C246.522 172.506 246.75 172.196 247.034 171.974C247.321 171.75 247.633 171.594 247.971 171.506C248.312 171.415 248.647 171.369 248.977 171.369C249.187 171.369 249.429 171.395 249.701 171.446C249.977 171.494 250.243 171.595 250.498 171.749C250.757 171.902 250.971 172.134 251.142 172.443C251.312 172.753 251.397 173.168 251.397 173.688V178H250.392V177.114H250.341C250.272 177.256 250.159 177.408 250 177.57C249.841 177.732 249.629 177.869 249.365 177.983C249.1 178.097 248.778 178.153 248.397 178.153ZM248.551 177.25C248.949 177.25 249.284 177.172 249.556 177.016C249.832 176.859 250.039 176.658 250.179 176.411C250.321 176.163 250.392 175.903 250.392 175.631V174.71C250.349 174.761 250.255 174.808 250.11 174.851C249.968 174.891 249.804 174.926 249.616 174.957C249.431 174.986 249.251 175.011 249.075 175.034C248.902 175.054 248.761 175.071 248.653 175.085C248.392 175.119 248.147 175.175 247.92 175.251C247.696 175.325 247.514 175.437 247.375 175.588C247.238 175.736 247.17 175.937 247.17 176.193C247.17 176.543 247.299 176.807 247.558 176.986C247.819 177.162 248.15 177.25 248.551 177.25ZM254.239 174.062V178H253.233V171.455H254.205V172.477H254.29C254.443 172.145 254.676 171.878 254.989 171.676C255.301 171.472 255.705 171.369 256.199 171.369C256.642 171.369 257.03 171.46 257.362 171.642C257.695 171.821 257.953 172.094 258.138 172.46C258.322 172.824 258.415 173.284 258.415 173.841V178H257.409V173.909C257.409 173.395 257.276 172.994 257.009 172.707C256.741 172.418 256.375 172.273 255.909 172.273C255.588 172.273 255.301 172.342 255.048 172.482C254.798 172.621 254.601 172.824 254.456 173.091C254.311 173.358 254.239 173.682 254.239 174.062Z" fill="black"/>
<path d="M359.699 169.273V178H358.642V170.807H358.574C358.534 170.886 358.432 170.977 358.267 171.08C358.102 171.179 357.889 171.267 357.628 171.344C357.366 171.418 357.068 171.455 356.733 171.455V170.568C357.071 170.568 357.364 170.507 357.611 170.385C357.858 170.263 358.064 170.119 358.229 169.955C358.396 169.79 358.523 169.641 358.608 169.507C358.696 169.374 358.747 169.295 358.761 169.273H359.699ZM362.064 175.818H363.138C363.169 176.114 363.27 176.364 363.44 176.568C363.614 176.77 363.838 176.923 364.114 177.028C364.389 177.131 364.695 177.182 365.03 177.182C365.393 177.182 365.72 177.121 366.01 176.999C366.3 176.876 366.53 176.695 366.7 176.453C366.871 176.209 366.956 175.906 366.956 175.545C366.956 175.23 366.882 174.937 366.734 174.668C366.587 174.395 366.349 174.175 366.023 174.007C365.696 173.839 365.263 173.756 364.723 173.756H364.024V172.903L366.206 170.278V170.21H362.49V169.273H367.655V170.04L365.32 172.869V172.938C365.695 172.955 366.044 173.031 366.368 173.168C366.695 173.304 366.979 173.489 367.22 173.722C367.464 173.955 367.655 174.226 367.791 174.536C367.928 174.845 367.996 175.182 367.996 175.545C367.996 176.043 367.868 176.486 367.612 176.875C367.359 177.261 367.009 177.565 366.56 177.787C366.114 178.009 365.598 178.119 365.013 178.119C364.496 178.119 364.02 178.028 363.585 177.847C363.151 177.665 362.797 177.402 362.524 177.058C362.251 176.714 362.098 176.301 362.064 175.818ZM370.216 178.068C370.006 178.068 369.825 177.993 369.675 177.842C369.524 177.692 369.449 177.511 369.449 177.301C369.449 177.091 369.524 176.911 369.675 176.76C369.825 176.609 370.006 176.534 370.216 176.534C370.426 176.534 370.607 176.609 370.757 176.76C370.908 176.911 370.983 177.091 370.983 177.301C370.983 177.44 370.947 177.568 370.876 177.685C370.808 177.801 370.716 177.895 370.599 177.966C370.486 178.034 370.358 178.068 370.216 178.068ZM371.957 171.949C371.957 171.409 372.075 170.929 372.31 170.509C372.549 170.088 372.874 169.757 373.286 169.516C373.701 169.274 374.173 169.153 374.701 169.153C375.235 169.153 375.71 169.278 376.124 169.528C376.539 169.776 376.864 170.116 377.1 170.551C377.336 170.983 377.451 171.477 377.445 172.034C377.44 172.307 377.398 172.589 377.322 172.882C377.245 173.175 377.116 173.5 376.934 173.858C376.752 174.216 376.502 174.631 376.184 175.102L374.224 178H373.065L375.366 174.642C375.263 174.676 375.157 174.705 375.046 174.727C374.938 174.75 374.829 174.761 374.718 174.761C374.19 174.761 373.717 174.639 373.299 174.395C372.884 174.151 372.556 173.817 372.315 173.393C372.076 172.97 371.957 172.489 371.957 171.949ZM372.962 171.949C372.962 172.318 373.036 172.643 373.184 172.925C373.332 173.206 373.536 173.426 373.798 173.585C374.059 173.744 374.36 173.824 374.701 173.824C375.042 173.824 375.343 173.746 375.604 173.589C375.866 173.43 376.07 173.212 376.218 172.933C376.366 172.652 376.44 172.33 376.44 171.966C376.44 171.597 376.366 171.27 376.218 170.986C376.07 170.702 375.866 170.479 375.604 170.317C375.343 170.155 375.042 170.074 374.701 170.074C374.36 170.074 374.059 170.155 373.798 170.317C373.536 170.476 373.332 170.697 373.184 170.982C373.036 171.263 372.962 171.585 372.962 171.949ZM383.501 176.364V175.903C383.501 175.585 383.566 175.294 383.697 175.03C383.83 174.763 384.023 174.55 384.276 174.391C384.532 174.229 384.842 174.148 385.205 174.148C385.575 174.148 385.884 174.229 386.134 174.391C386.384 174.55 386.573 174.763 386.701 175.03C386.829 175.294 386.893 175.585 386.893 175.903V176.364C386.893 176.682 386.827 176.974 386.697 177.241C386.569 177.506 386.379 177.719 386.126 177.881C385.876 178.04 385.569 178.119 385.205 178.119C384.836 178.119 384.525 178.04 384.272 177.881C384.019 177.719 383.827 177.506 383.697 177.241C383.566 176.974 383.501 176.682 383.501 176.364ZM384.37 175.903V176.364C384.37 176.628 384.433 176.865 384.558 177.075C384.683 177.283 384.898 177.386 385.205 177.386C385.504 177.386 385.714 177.283 385.836 177.075C385.961 176.865 386.023 176.628 386.023 176.364V175.903C386.023 175.639 385.964 175.403 385.844 175.196C385.725 174.986 385.512 174.881 385.205 174.881C384.907 174.881 384.692 174.986 384.562 175.196C384.434 175.403 384.37 175.639 384.37 175.903ZM379.154 171.369V170.909C379.154 170.591 379.219 170.3 379.35 170.036C379.484 169.768 379.677 169.555 379.93 169.396C380.185 169.234 380.495 169.153 380.859 169.153C381.228 169.153 381.538 169.234 381.788 169.396C382.038 169.555 382.227 169.768 382.354 170.036C382.482 170.3 382.546 170.591 382.546 170.909V171.369C382.546 171.687 382.481 171.98 382.35 172.247C382.222 172.511 382.032 172.724 381.779 172.886C381.529 173.045 381.222 173.125 380.859 173.125C380.489 173.125 380.178 173.045 379.925 172.886C379.673 172.724 379.481 172.511 379.35 172.247C379.219 171.98 379.154 171.687 379.154 171.369ZM380.023 170.909V171.369C380.023 171.634 380.086 171.871 380.211 172.081C380.336 172.288 380.552 172.392 380.859 172.392C381.157 172.392 381.367 172.288 381.489 172.081C381.614 171.871 381.677 171.634 381.677 171.369V170.909C381.677 170.645 381.617 170.409 381.498 170.202C381.379 169.991 381.165 169.886 380.859 169.886C380.56 169.886 380.346 169.991 380.215 170.202C380.087 170.409 380.023 170.645 380.023 170.909ZM379.478 178L385.478 169.273H386.45L380.45 178H379.478Z" fill="black"/>
<path d="M219 206C219 207.657 217.657 209 216 209C214.343 209 213 207.657 213 206C213 204.343 214.343 203 216 203C217.657 203 219 204.343 219 206Z" fill="#AEC7ED"/>
<path d="M225.057 210V201.273H228.108C228.716 201.273 229.217 201.378 229.612 201.588C230.007 201.795 230.301 202.075 230.494 202.428C230.688 202.777 230.784 203.165 230.784 203.591C230.784 203.966 230.717 204.276 230.584 204.52C230.453 204.764 230.28 204.957 230.064 205.099C229.851 205.241 229.619 205.347 229.369 205.415V205.5C229.636 205.517 229.905 205.611 230.175 205.781C230.445 205.952 230.67 206.196 230.852 206.514C231.034 206.832 231.125 207.222 231.125 207.682C231.125 208.119 231.026 208.513 230.827 208.862C230.628 209.212 230.314 209.489 229.885 209.693C229.456 209.898 228.898 210 228.21 210H225.057ZM226.114 209.062H228.21C228.901 209.062 229.391 208.929 229.68 208.662C229.973 208.392 230.119 208.065 230.119 207.682C230.119 207.386 230.044 207.114 229.893 206.864C229.743 206.611 229.528 206.409 229.25 206.259C228.972 206.105 228.642 206.028 228.261 206.028H226.114V209.062ZM226.114 205.108H228.074C228.392 205.108 228.679 205.045 228.935 204.92C229.193 204.795 229.398 204.619 229.548 204.392C229.702 204.165 229.778 203.898 229.778 203.591C229.778 203.207 229.645 202.882 229.378 202.615C229.111 202.345 228.688 202.21 228.108 202.21H226.114V205.108ZM232.725 210V203.455H233.697V204.443H233.765C233.884 204.119 234.1 203.857 234.413 203.655C234.725 203.453 235.077 203.352 235.469 203.352C235.543 203.352 235.636 203.354 235.746 203.357C235.857 203.359 235.941 203.364 235.998 203.369V204.392C235.964 204.384 235.886 204.371 235.763 204.354C235.644 204.334 235.518 204.324 235.384 204.324C235.066 204.324 234.782 204.391 234.532 204.524C234.285 204.655 234.089 204.837 233.944 205.07C233.802 205.3 233.731 205.562 233.731 205.858V210H232.725ZM237.19 210V203.455H238.196V210H237.19ZM237.701 202.364C237.505 202.364 237.336 202.297 237.194 202.163C237.055 202.03 236.985 201.869 236.985 201.682C236.985 201.494 237.055 201.334 237.194 201.2C237.336 201.067 237.505 201 237.701 201C237.897 201 238.065 201.067 238.204 201.2C238.346 201.334 238.417 201.494 238.417 201.682C238.417 201.869 238.346 202.03 238.204 202.163C238.065 202.297 237.897 202.364 237.701 202.364ZM244.674 204.92L243.771 205.176C243.714 205.026 243.63 204.879 243.519 204.737C243.411 204.592 243.263 204.473 243.076 204.379C242.888 204.286 242.648 204.239 242.356 204.239C241.955 204.239 241.621 204.331 241.354 204.516C241.09 204.697 240.958 204.929 240.958 205.21C240.958 205.46 241.049 205.658 241.231 205.803C241.413 205.947 241.697 206.068 242.083 206.165L243.055 206.403C243.64 206.545 244.076 206.763 244.363 207.055C244.65 207.345 244.793 207.719 244.793 208.176C244.793 208.551 244.685 208.886 244.469 209.182C244.256 209.477 243.958 209.71 243.575 209.881C243.191 210.051 242.745 210.136 242.237 210.136C241.569 210.136 241.016 209.991 240.579 209.702C240.141 209.412 239.864 208.989 239.748 208.432L240.702 208.193C240.793 208.545 240.965 208.81 241.218 208.986C241.474 209.162 241.808 209.25 242.219 209.25C242.688 209.25 243.06 209.151 243.336 208.952C243.614 208.75 243.754 208.509 243.754 208.227C243.754 208 243.674 207.81 243.515 207.656C243.356 207.5 243.112 207.384 242.782 207.307L241.691 207.051C241.092 206.909 240.651 206.689 240.37 206.391C240.092 206.089 239.952 205.713 239.952 205.261C239.952 204.892 240.056 204.565 240.263 204.281C240.474 203.997 240.759 203.774 241.12 203.612C241.484 203.45 241.896 203.369 242.356 203.369C243.004 203.369 243.512 203.511 243.881 203.795C244.254 204.08 244.518 204.455 244.674 204.92ZM249.154 203.455V204.307H245.762V203.455H249.154ZM246.75 201.886H247.756V208.125C247.756 208.409 247.797 208.622 247.88 208.764C247.965 208.903 248.073 208.997 248.203 209.045C248.337 209.091 248.478 209.114 248.625 209.114C248.736 209.114 248.827 209.108 248.898 209.097C248.969 209.082 249.026 209.071 249.069 209.062L249.273 209.966C249.205 209.991 249.11 210.017 248.988 210.043C248.865 210.071 248.711 210.085 248.523 210.085C248.239 210.085 247.961 210.024 247.688 209.902C247.418 209.78 247.194 209.594 247.015 209.344C246.838 209.094 246.75 208.778 246.75 208.398V201.886ZM253.255 210.136C252.664 210.136 252.146 209.996 251.7 209.714C251.257 209.433 250.91 209.04 250.66 208.534C250.413 208.028 250.289 207.437 250.289 206.761C250.289 206.08 250.413 205.484 250.66 204.976C250.91 204.467 251.257 204.072 251.7 203.791C252.146 203.51 252.664 203.369 253.255 203.369C253.846 203.369 254.363 203.51 254.806 203.791C255.252 204.072 255.599 204.467 255.846 204.976C256.096 205.484 256.221 206.08 256.221 206.761C256.221 207.437 256.096 208.028 255.846 208.534C255.599 209.04 255.252 209.433 254.806 209.714C254.363 209.996 253.846 210.136 253.255 210.136ZM253.255 209.233C253.704 209.233 254.074 209.118 254.363 208.888C254.653 208.658 254.868 208.355 255.007 207.98C255.146 207.605 255.216 207.199 255.216 206.761C255.216 206.324 255.146 205.916 255.007 205.538C254.868 205.161 254.653 204.855 254.363 204.622C254.074 204.389 253.704 204.273 253.255 204.273C252.806 204.273 252.437 204.389 252.147 204.622C251.858 204.855 251.643 205.161 251.504 205.538C251.365 205.916 251.295 206.324 251.295 206.761C251.295 207.199 251.365 207.605 251.504 207.98C251.643 208.355 251.858 208.658 252.147 208.888C252.437 209.118 252.806 209.233 253.255 209.233ZM258.762 201.273V210H257.756V201.273H258.762Z" fill="black"/>
<path d="M360.699 201.273V210H359.642V202.807H359.574C359.534 202.886 359.432 202.977 359.267 203.08C359.102 203.179 358.889 203.267 358.628 203.344C358.366 203.418 358.068 203.455 357.733 203.455V202.568C358.071 202.568 358.364 202.507 358.611 202.385C358.858 202.263 359.064 202.119 359.229 201.955C359.396 201.79 359.523 201.641 359.608 201.507C359.696 201.374 359.747 201.295 359.761 201.273H360.699ZM365.996 201.273V210H364.939V202.807H364.871C364.831 202.886 364.729 202.977 364.564 203.08C364.399 203.179 364.186 203.267 363.925 203.344C363.663 203.418 363.365 203.455 363.03 203.455V202.568C363.368 202.568 363.661 202.507 363.908 202.385C364.155 202.263 364.361 202.119 364.526 201.955C364.693 201.79 364.82 201.641 364.905 201.507C364.993 201.374 365.044 201.295 365.058 201.273H365.996ZM368.732 210.068C368.521 210.068 368.341 209.993 368.19 209.842C368.04 209.692 367.964 209.511 367.964 209.301C367.964 209.091 368.04 208.911 368.19 208.76C368.341 208.609 368.521 208.534 368.732 208.534C368.942 208.534 369.122 208.609 369.273 208.76C369.423 208.911 369.499 209.091 369.499 209.301C369.499 209.44 369.463 209.568 369.392 209.685C369.324 209.801 369.232 209.895 369.115 209.966C369.001 210.034 368.874 210.068 368.732 210.068ZM371.286 210V209.233L374.167 206.08C374.505 205.71 374.783 205.389 375.002 205.116C375.221 204.841 375.383 204.582 375.488 204.341C375.596 204.097 375.65 203.841 375.65 203.574C375.65 203.267 375.576 203.001 375.428 202.777C375.283 202.553 375.085 202.379 374.832 202.257C374.579 202.135 374.295 202.074 373.979 202.074C373.644 202.074 373.352 202.143 373.102 202.283C372.854 202.419 372.663 202.611 372.526 202.858C372.393 203.105 372.326 203.395 372.326 203.727H371.32C371.32 203.216 371.438 202.767 371.674 202.381C371.91 201.994 372.231 201.693 372.637 201.477C373.046 201.261 373.505 201.153 374.013 201.153C374.525 201.153 374.978 201.261 375.373 201.477C375.768 201.693 376.077 201.984 376.302 202.351C376.526 202.717 376.638 203.125 376.638 203.574C376.638 203.895 376.58 204.209 376.464 204.516C376.35 204.82 376.151 205.159 375.867 205.534C375.586 205.906 375.195 206.361 374.695 206.898L372.735 208.994V209.062H376.792V210H371.286ZM383.001 208.364V207.903C383.001 207.585 383.066 207.294 383.197 207.03C383.33 206.763 383.523 206.55 383.776 206.391C384.032 206.229 384.342 206.148 384.705 206.148C385.075 206.148 385.384 206.229 385.634 206.391C385.884 206.55 386.073 206.763 386.201 207.03C386.329 207.294 386.393 207.585 386.393 207.903V208.364C386.393 208.682 386.327 208.974 386.197 209.241C386.069 209.506 385.879 209.719 385.626 209.881C385.376 210.04 385.069 210.119 384.705 210.119C384.336 210.119 384.025 210.04 383.772 209.881C383.519 209.719 383.327 209.506 383.197 209.241C383.066 208.974 383.001 208.682 383.001 208.364ZM383.87 207.903V208.364C383.87 208.628 383.933 208.865 384.058 209.075C384.183 209.283 384.398 209.386 384.705 209.386C385.004 209.386 385.214 209.283 385.336 209.075C385.461 208.865 385.523 208.628 385.523 208.364V207.903C385.523 207.639 385.464 207.403 385.344 207.196C385.225 206.986 385.012 206.881 384.705 206.881C384.407 206.881 384.192 206.986 384.062 207.196C383.934 207.403 383.87 207.639 383.87 207.903ZM378.654 203.369V202.909C378.654 202.591 378.719 202.3 378.85 202.036C378.984 201.768 379.177 201.555 379.43 201.396C379.685 201.234 379.995 201.153 380.359 201.153C380.728 201.153 381.038 201.234 381.288 201.396C381.538 201.555 381.727 201.768 381.854 202.036C381.982 202.3 382.046 202.591 382.046 202.909V203.369C382.046 203.687 381.981 203.98 381.85 204.247C381.722 204.511 381.532 204.724 381.279 204.886C381.029 205.045 380.722 205.125 380.359 205.125C379.989 205.125 379.678 205.045 379.425 204.886C379.173 204.724 378.981 204.511 378.85 204.247C378.719 203.98 378.654 203.687 378.654 203.369ZM379.523 202.909V203.369C379.523 203.634 379.586 203.871 379.711 204.081C379.836 204.288 380.052 204.392 380.359 204.392C380.657 204.392 380.867 204.288 380.989 204.081C381.114 203.871 381.177 203.634 381.177 203.369V202.909C381.177 202.645 381.117 202.409 380.998 202.202C380.879 201.991 380.665 201.886 380.359 201.886C380.06 201.886 379.846 201.991 379.715 202.202C379.587 202.409 379.523 202.645 379.523 202.909ZM378.978 210L384.978 201.273H385.95L379.95 210H378.978Z" fill="black"/>
<defs>
<linearGradient id="paint0_linear_1_5324" x1="163.99" y1="98" x2="123.362" y2="141.067" gradientUnits="userSpaceOnUse">
<stop/>
<stop offset="1"/>
</linearGradient>
<linearGradient id="paint1_linear_1_5324" x1="126.84" y1="98" x2="126.84" y2="217.967" gradientUnits="userSpaceOnUse">
<stop/>
<stop offset="1" stop-color="#1C1C1C" stop-opacity="0.6"/>
<stop offset="1" stop-opacity="0.6"/>
</linearGradient>
<linearGradient id="paint2_linear_1_5324" x1="95.6894" y1="143" x2="71.2884" y2="172.408" gradientUnits="userSpaceOnUse">
<stop/>
<stop offset="1"/>
</linearGradient>
<linearGradient id="paint3_linear_1_5324" x1="89.1567" y1="106" x2="76.6506" y2="127.388" gradientUnits="userSpaceOnUse">
<stop/>
<stop offset="1"/>
</linearGradient>
<linearGradient id="paint4_linear_1_5324" x1="103.889" y1="98" x2="93.418" y2="113.371" gradientUnits="userSpaceOnUse">
<stop/>
<stop offset="1"/>
</linearGradient>
</defs>
</svg>
