<svg width="202" height="330" viewBox="0 0 202 330" fill="none" xmlns="http://www.w3.org/2000/svg">
<path d="M0 16C0 7.16345 7.16344 0 16 0H186C194.837 0 202 7.16344 202 16V314C202 322.837 194.837 330 186 330H16C7.16344 330 0 322.837 0 314V16Z" fill="#F9F9FA"/>
<path d="M24.5568 30.3643V28.8182H32.6804V30.3643H29.5334V39H27.7038V30.3643H24.5568ZM33.3739 39V31.3636H35.119V32.6364H35.1985C35.3377 32.1955 35.5763 31.8558 35.9144 31.6172C36.2558 31.3752 36.6452 31.2543 37.0827 31.2543C37.1822 31.2543 37.2932 31.2592 37.4158 31.2692C37.5418 31.2758 37.6462 31.2874 37.729 31.304V32.9595C37.6528 32.933 37.5318 32.9098 37.3661 32.8899C37.2037 32.8667 37.0463 32.8551 36.8938 32.8551C36.5657 32.8551 36.2707 32.9264 36.0089 33.0689C35.7504 33.2081 35.5465 33.402 35.3974 33.6506C35.2482 33.8991 35.1737 34.1858 35.1737 34.5107V39H33.3739ZM40.9854 39.1541C40.5015 39.1541 40.0657 39.0679 39.6779 38.8956C39.2934 38.7199 38.9885 38.4614 38.7631 38.12C38.5411 37.7786 38.43 37.3577 38.43 36.8572C38.43 36.4264 38.5096 36.0701 38.6687 35.7884C38.8278 35.5066 39.0449 35.2812 39.32 35.1122C39.5951 34.9432 39.9049 34.8156 40.2496 34.7294C40.5977 34.6399 40.9573 34.5753 41.3285 34.5355C41.7759 34.4891 42.1388 34.4477 42.4173 34.4112C42.6957 34.3714 42.8978 34.3118 43.0238 34.2322C43.1531 34.1494 43.2177 34.0218 43.2177 33.8494V33.8196C43.2177 33.4451 43.1067 33.1551 42.8846 32.9496C42.6625 32.7441 42.3427 32.6413 41.9251 32.6413C41.4843 32.6413 41.1346 32.7375 40.8761 32.9297C40.6209 33.1219 40.4485 33.349 40.359 33.6108L38.6786 33.3722C38.8112 32.9081 39.0299 32.5204 39.3349 32.2088C39.6398 31.8939 40.0127 31.6586 40.4535 31.5028C40.8943 31.3438 41.3815 31.2642 41.9151 31.2642C42.283 31.2642 42.6493 31.3073 43.0138 31.3935C43.3784 31.4796 43.7115 31.6222 44.0131 31.821C44.3147 32.0166 44.5567 32.2834 44.739 32.6214C44.9246 32.9595 45.0174 33.3821 45.0174 33.8892V39H43.2873V37.951H43.2276C43.1183 38.1631 42.9641 38.362 42.7653 38.5476C42.5697 38.7299 42.3228 38.8774 42.0245 38.9901C41.7295 39.0994 41.3832 39.1541 40.9854 39.1541ZM41.4528 37.8317C41.814 37.8317 42.1272 37.7604 42.3924 37.6179C42.6576 37.4721 42.8614 37.2798 43.0039 37.0412C43.1497 36.8026 43.2227 36.5424 43.2227 36.2607V35.3608C43.1663 35.4072 43.0702 35.4503 42.9343 35.4901C42.8017 35.5298 42.6526 35.5646 42.4869 35.5945C42.3211 35.6243 42.1571 35.6508 41.9947 35.674C41.8323 35.6972 41.6914 35.7171 41.5721 35.7337C41.3036 35.7701 41.0633 35.8298 40.8512 35.9126C40.6391 35.9955 40.4717 36.1115 40.3491 36.2607C40.2264 36.4065 40.1651 36.5954 40.1651 36.8274C40.1651 37.1589 40.2861 37.4091 40.5281 37.5781C40.77 37.7472 41.0782 37.8317 41.4528 37.8317ZM50.695 31.3636V32.7557H46.1808V31.3636H50.695ZM47.3093 39V30.6428C47.3093 30.129 47.4154 29.7015 47.6275 29.3601C47.8429 29.0187 48.1313 28.7635 48.4925 28.5945C48.8538 28.4254 49.2549 28.3409 49.6957 28.3409C50.0072 28.3409 50.284 28.3658 50.5259 28.4155C50.7679 28.4652 50.9469 28.5099 51.0629 28.5497L50.7049 29.9418C50.6287 29.9186 50.5326 29.8954 50.4165 29.8722C50.3005 29.8456 50.1713 29.8324 50.0288 29.8324C49.694 29.8324 49.457 29.9136 49.3178 30.076C49.1819 30.2351 49.114 30.4638 49.114 30.7621V39H47.3093ZM55.9723 31.3636V32.7557H51.4581V31.3636H55.9723ZM52.5866 39V30.6428C52.5866 30.129 52.6927 29.7015 52.9048 29.3601C53.1203 29.0187 53.4086 28.7635 53.7699 28.5945C54.1312 28.4254 54.5322 28.3409 54.973 28.3409C55.2846 28.3409 55.5613 28.3658 55.8033 28.4155C56.0452 28.4652 56.2242 28.5099 56.3402 28.5497L55.9822 29.9418C55.906 29.9186 55.8099 29.8954 55.6939 29.8722C55.5779 29.8456 55.4486 29.8324 55.3061 29.8324C54.9714 29.8324 54.7344 29.9136 54.5952 30.076C54.4593 30.2351 54.3913 30.4638 54.3913 30.7621V39H52.5866ZM57.3817 39V31.3636H59.1815V39H57.3817ZM58.2866 30.2798C58.0015 30.2798 57.7563 30.1854 57.5508 29.9964C57.3453 29.8042 57.2425 29.5739 57.2425 29.3054C57.2425 29.0336 57.3453 28.8033 57.5508 28.6143C57.7563 28.4221 58.0015 28.326 58.2866 28.326C58.5749 28.326 58.8202 28.4221 59.0224 28.6143C59.2279 28.8033 59.3306 29.0336 59.3306 29.3054C59.3306 29.5739 59.2279 29.8042 59.0224 29.9964C58.8202 30.1854 58.5749 30.2798 58.2866 30.2798ZM64.3631 39.1491C63.6008 39.1491 62.9462 38.9818 62.3993 38.647C61.8558 38.3123 61.4365 37.8499 61.1415 37.2599C60.8498 36.6667 60.704 35.9839 60.704 35.2116C60.704 34.4361 60.8532 33.7517 61.1515 33.1584C61.4498 32.5618 61.8707 32.0978 62.4142 31.7663C62.9611 31.4316 63.6074 31.2642 64.3532 31.2642C64.973 31.2642 65.5215 31.3786 65.9988 31.6072C66.4793 31.8326 66.8622 32.1525 67.1472 32.5668C67.4322 32.9777 67.5946 33.4583 67.6344 34.0085H65.9142C65.8446 33.6406 65.6789 33.334 65.4171 33.0888C65.1586 32.8402 64.8122 32.7159 64.378 32.7159C64.0101 32.7159 63.687 32.8153 63.4086 33.0142C63.1301 33.2098 62.9131 33.4915 62.7573 33.8594C62.6048 34.2273 62.5286 34.6681 62.5286 35.1818C62.5286 35.7022 62.6048 36.1496 62.7573 36.5241C62.9097 36.8954 63.1235 37.1821 63.3986 37.3842C63.677 37.5831 64.0035 37.6825 64.378 37.6825C64.6432 37.6825 64.8801 37.6328 65.089 37.5334C65.3011 37.4306 65.4784 37.2831 65.6209 37.0909C65.7634 36.8987 65.8612 36.665 65.9142 36.3899H67.6344C67.5913 36.9302 67.4322 37.4091 67.1571 37.8267C66.882 38.241 66.5075 38.5658 66.0336 38.8011C65.5596 39.0331 65.0028 39.1491 64.3631 39.1491ZM72.6644 39V28.8182H74.4641V32.6264H74.5387C74.6315 32.4408 74.7624 32.2436 74.9315 32.0348C75.1005 31.8227 75.3292 31.642 75.6175 31.4929C75.9059 31.3404 76.2738 31.2642 76.7212 31.2642C77.3112 31.2642 77.8432 31.415 78.3171 31.7166C78.7944 32.0149 79.1722 32.4574 79.4506 33.044C79.7324 33.6274 79.8732 34.3433 79.8732 35.1918C79.8732 36.0303 79.7357 36.7429 79.4606 37.3295C79.1855 37.9162 78.811 38.3636 78.337 38.6719C77.863 38.9801 77.3261 39.1342 76.7262 39.1342C76.2887 39.1342 75.9258 39.0613 75.6374 38.9155C75.3491 38.7696 75.1171 38.594 74.9414 38.3885C74.7691 38.1797 74.6348 37.9825 74.5387 37.7969H74.4343V39H72.6644ZM74.4293 35.1818C74.4293 35.6757 74.4989 36.1082 74.6381 36.4794C74.7807 36.8506 74.9845 37.1406 75.2496 37.3494C75.5181 37.5549 75.8429 37.6577 76.2241 37.6577C76.6218 37.6577 76.9549 37.5516 77.2234 37.3395C77.4918 37.1241 77.694 36.8307 77.8299 36.4595C77.9691 36.085 78.0387 35.6591 78.0387 35.1818C78.0387 34.7079 77.9708 34.2869 77.8349 33.919C77.699 33.5511 77.4968 33.2628 77.2283 33.054C76.9599 32.8452 76.6251 32.7408 76.2241 32.7408C75.8396 32.7408 75.5131 32.8419 75.2447 33.044C74.9762 33.2462 74.7724 33.5296 74.6332 33.8942C74.4973 34.2588 74.4293 34.688 74.4293 35.1818ZM82.2621 41.8636C82.0168 41.8636 81.7898 41.8438 81.581 41.804C81.3755 41.7675 81.2114 41.7244 81.0888 41.6747L81.5064 40.2727C81.7682 40.349 82.0019 40.3854 82.2074 40.3821C82.4129 40.3788 82.5935 40.3142 82.7493 40.1882C82.9084 40.0656 83.0426 39.8601 83.152 39.5717L83.3061 39.1591L80.5369 31.3636H82.446L84.206 37.1307H84.2855L86.0504 31.3636H87.9645L84.907 39.9247C84.7644 40.3291 84.5755 40.6754 84.3402 40.9638C84.1049 41.2554 83.8165 41.4775 83.4751 41.63C83.1371 41.7857 82.7327 41.8636 82.2621 41.8636ZM94.9048 39L92.0312 28.8182H94.0149L95.8494 36.3004H95.9439L97.9027 28.8182H99.7074L101.671 36.3054H101.761L103.595 28.8182H105.579L102.705 39H100.886L98.8473 31.8558H98.7678L96.7244 39H94.9048ZM109.38 39.1491C108.614 39.1491 107.953 38.9901 107.396 38.6719C106.842 38.3504 106.417 37.8963 106.118 37.3097C105.82 36.7197 105.671 36.0253 105.671 35.2266C105.671 34.4411 105.82 33.7517 106.118 33.1584C106.42 32.5618 106.841 32.0978 107.381 31.7663C107.921 31.4316 108.556 31.2642 109.285 31.2642C109.756 31.2642 110.2 31.3404 110.618 31.4929C111.038 31.642 111.41 31.8741 111.731 32.1889C112.056 32.5038 112.311 32.9048 112.497 33.392C112.682 33.8759 112.775 34.4527 112.775 35.1222V35.674H106.516V34.4609H111.05C111.047 34.1162 110.972 33.8097 110.826 33.5412C110.681 33.2694 110.477 33.0556 110.215 32.8999C109.956 32.7441 109.655 32.6662 109.31 32.6662C108.942 32.6662 108.619 32.7557 108.341 32.9347C108.062 33.1103 107.845 33.3423 107.689 33.6307C107.537 33.9157 107.459 34.2289 107.456 34.5703V35.6293C107.456 36.0734 107.537 36.4545 107.699 36.7727C107.862 37.0876 108.089 37.3295 108.38 37.4986C108.672 37.6643 109.013 37.7472 109.404 37.7472C109.666 37.7472 109.903 37.7107 110.115 37.6378C110.328 37.5616 110.511 37.4505 110.667 37.3047C110.823 37.1589 110.941 36.9782 111.02 36.7628L112.701 36.9517C112.595 37.3958 112.392 37.7836 112.094 38.1151C111.799 38.4432 111.421 38.6984 110.961 38.8807C110.5 39.0597 109.973 39.1491 109.38 39.1491ZM114.377 39V28.8182H116.177V32.6264H116.252C116.344 32.4408 116.475 32.2436 116.644 32.0348C116.813 31.8227 117.042 31.642 117.33 31.4929C117.619 31.3404 117.987 31.2642 118.434 31.2642C119.024 31.2642 119.556 31.415 120.03 31.7166C120.507 32.0149 120.885 32.4574 121.164 33.044C121.445 33.6274 121.586 34.3433 121.586 35.1918C121.586 36.0303 121.449 36.7429 121.173 37.3295C120.898 37.9162 120.524 38.3636 120.05 38.6719C119.576 38.9801 119.039 39.1342 118.439 39.1342C118.002 39.1342 117.639 39.0613 117.35 38.9155C117.062 38.7696 116.83 38.594 116.654 38.3885C116.482 38.1797 116.348 37.9825 116.252 37.7969H116.147V39H114.377ZM116.142 35.1818C116.142 35.6757 116.212 36.1082 116.351 36.4794C116.494 36.8506 116.697 37.1406 116.963 37.3494C117.231 37.5549 117.556 37.6577 117.937 37.6577C118.335 37.6577 118.668 37.5516 118.936 37.3395C119.205 37.1241 119.407 36.8307 119.543 36.4595C119.682 36.085 119.752 35.6591 119.752 35.1818C119.752 34.7079 119.684 34.2869 119.548 33.919C119.412 33.5511 119.21 33.2628 118.941 33.054C118.673 32.8452 118.338 32.7408 117.937 32.7408C117.552 32.7408 117.226 32.8419 116.958 33.044C116.689 33.2462 116.485 33.5296 116.346 33.8942C116.21 34.2588 116.142 34.688 116.142 35.1818ZM129.152 33.3821L127.511 33.5611C127.465 33.3954 127.383 33.2396 127.267 33.0938C127.155 32.9479 127.002 32.8303 126.81 32.7408C126.618 32.6513 126.382 32.6065 126.104 32.6065C125.73 32.6065 125.415 32.6877 125.159 32.8501C124.908 33.0125 124.783 33.223 124.787 33.4815C124.783 33.7036 124.864 33.8842 125.03 34.0234C125.199 34.1626 125.478 34.277 125.865 34.3665L127.168 34.6449C127.891 34.8007 128.427 35.0476 128.779 35.3857C129.133 35.7237 129.312 36.1662 129.316 36.7131C129.312 37.1937 129.172 37.6179 128.893 37.9858C128.618 38.3504 128.235 38.6354 127.745 38.8409C127.254 39.0464 126.691 39.1491 126.054 39.1491C125.12 39.1491 124.367 38.9536 123.797 38.5625C123.227 38.1681 122.887 37.6196 122.778 36.9169L124.533 36.7479C124.613 37.0926 124.782 37.3527 125.04 37.5284C125.299 37.7041 125.635 37.7919 126.049 37.7919C126.477 37.7919 126.82 37.7041 127.078 37.5284C127.34 37.3527 127.471 37.1357 127.471 36.8771C127.471 36.6584 127.387 36.4777 127.218 36.3352C127.052 36.1927 126.793 36.0833 126.442 36.0071L125.14 35.7337C124.407 35.5812 123.865 35.3243 123.514 34.9631C123.163 34.5985 122.989 34.1378 122.992 33.581C122.989 33.1103 123.116 32.7027 123.375 32.358C123.636 32.0099 123.999 31.7415 124.463 31.5526C124.931 31.3603 125.469 31.2642 126.079 31.2642C126.974 31.2642 127.678 31.4548 128.192 31.8359C128.709 32.2171 129.029 32.7325 129.152 33.3821ZM130.8 39V31.3636H132.599V39H130.8ZM131.705 30.2798C131.42 30.2798 131.174 30.1854 130.969 29.9964C130.763 29.8042 130.661 29.5739 130.661 29.3054C130.661 29.0336 130.763 28.8033 130.969 28.6143C131.174 28.4221 131.42 28.326 131.705 28.326C131.993 28.326 132.238 28.4221 132.44 28.6143C132.646 28.8033 132.749 29.0336 132.749 29.3054C132.749 29.5739 132.646 29.8042 132.44 29.9964C132.238 30.1854 131.993 30.2798 131.705 30.2798ZM138.263 31.3636V32.7557H133.873V31.3636H138.263ZM134.957 29.5341H136.757V36.7031C136.757 36.9451 136.793 37.1307 136.866 37.2599C136.943 37.3859 137.042 37.4721 137.165 37.5185C137.287 37.5649 137.423 37.5881 137.572 37.5881C137.685 37.5881 137.788 37.5798 137.881 37.5632C137.977 37.5466 138.05 37.5317 138.099 37.5185L138.403 38.9254C138.306 38.9586 138.169 38.995 137.99 39.0348C137.814 39.0746 137.599 39.0978 137.344 39.1044C136.893 39.1177 136.487 39.0497 136.126 38.9006C135.764 38.7481 135.478 38.5128 135.265 38.1946C135.057 37.8764 134.954 37.4787 134.957 37.0014V29.5341ZM143.067 39.1491C142.301 39.1491 141.64 38.9901 141.083 38.6719C140.53 38.3504 140.104 37.8963 139.806 37.3097C139.507 36.7197 139.358 36.0253 139.358 35.2266C139.358 34.4411 139.507 33.7517 139.806 33.1584C140.107 32.5618 140.528 32.0978 141.069 31.7663C141.609 31.4316 142.243 31.2642 142.973 31.2642C143.443 31.2642 143.887 31.3404 144.305 31.4929C144.726 31.642 145.097 31.8741 145.419 32.1889C145.743 32.5038 145.999 32.9048 146.184 33.392C146.37 33.8759 146.463 34.4527 146.463 35.1222V35.674H140.203V34.4609H144.738C144.734 34.1162 144.66 33.8097 144.514 33.5412C144.368 33.2694 144.164 33.0556 143.902 32.8999C143.644 32.7441 143.342 32.6662 142.998 32.6662C142.63 32.6662 142.306 32.7557 142.028 32.9347C141.75 33.1103 141.533 33.3423 141.377 33.6307C141.224 33.9157 141.146 34.2289 141.143 34.5703V35.6293C141.143 36.0734 141.224 36.4545 141.387 36.7727C141.549 37.0876 141.776 37.3295 142.068 37.4986C142.359 37.6643 142.701 37.7472 143.092 37.7472C143.354 37.7472 143.591 37.7107 143.803 37.6378C144.015 37.5616 144.199 37.4505 144.355 37.3047C144.511 37.1589 144.628 36.9782 144.708 36.7628L146.388 36.9517C146.282 37.3958 146.08 37.7836 145.782 38.1151C145.487 38.4432 145.109 38.6984 144.648 38.8807C144.187 39.0597 143.66 39.1491 143.067 39.1491Z" fill="black"/>
<path d="M31.0227 74C30.929 73.7131 30.8054 73.456 30.652 73.2287C30.5014 72.9986 30.321 72.8026 30.1108 72.6406C29.9034 72.4787 29.6676 72.3551 29.4034 72.2699C29.1392 72.1847 28.8494 72.142 28.5341 72.142C28.017 72.142 27.5469 72.2756 27.1236 72.5426C26.7003 72.8097 26.3636 73.2031 26.1136 73.723C25.8636 74.2429 25.7386 74.8807 25.7386 75.6364C25.7386 76.392 25.8651 77.0298 26.1179 77.5497C26.3707 78.0696 26.7131 78.4631 27.1449 78.7301C27.5767 78.9972 28.0625 79.1307 28.6023 79.1307C29.1023 79.1307 29.5426 79.0241 29.9233 78.8111C30.3068 78.5952 30.6051 78.2912 30.8182 77.8991C31.0341 77.5043 31.142 77.0398 31.142 76.5057L31.4659 76.5739H28.8409V75.6364H32.1648V76.5739C32.1648 77.2926 32.0114 77.9176 31.7045 78.4489C31.4006 78.9801 30.9801 79.392 30.4432 79.6847C29.9091 79.9744 29.2955 80.1193 28.6023 80.1193C27.8295 80.1193 27.1506 79.9375 26.5653 79.5739C25.983 79.2102 25.5284 78.6932 25.2017 78.0227C24.8778 77.3523 24.7159 76.5568 24.7159 75.6364C24.7159 74.946 24.8082 74.3253 24.9929 73.7741C25.1804 73.2202 25.4446 72.7486 25.7855 72.3594C26.1264 71.9702 26.5298 71.6719 26.9957 71.4645C27.4616 71.2571 27.9744 71.1534 28.5341 71.1534C28.9943 71.1534 29.4233 71.223 29.821 71.3622C30.2216 71.4986 30.5781 71.6932 30.8906 71.946C31.206 72.196 31.4688 72.4957 31.679 72.8452C31.8892 73.1918 32.0341 73.5767 32.1136 74H31.0227ZM36.4975 80.1364C35.9066 80.1364 35.3881 79.9957 34.9421 79.7145C34.4989 79.4332 34.1523 79.0398 33.9023 78.5341C33.6552 78.0284 33.5316 77.4375 33.5316 76.7614C33.5316 76.0795 33.6552 75.4844 33.9023 74.9759C34.1523 74.4673 34.4989 74.0724 34.9421 73.7912C35.3881 73.5099 35.9066 73.3693 36.4975 73.3693C37.0884 73.3693 37.6055 73.5099 38.0487 73.7912C38.4947 74.0724 38.8413 74.4673 39.0884 74.9759C39.3384 75.4844 39.4634 76.0795 39.4634 76.7614C39.4634 77.4375 39.3384 78.0284 39.0884 78.5341C38.8413 79.0398 38.4947 79.4332 38.0487 79.7145C37.6055 79.9957 37.0884 80.1364 36.4975 80.1364ZM36.4975 79.233C36.9464 79.233 37.3157 79.1179 37.6055 78.8878C37.8952 78.6577 38.1097 78.3551 38.2489 77.9801C38.3881 77.6051 38.4577 77.1989 38.4577 76.7614C38.4577 76.3239 38.3881 75.9162 38.2489 75.5384C38.1097 75.1605 37.8952 74.8551 37.6055 74.6222C37.3157 74.3892 36.9464 74.2727 36.4975 74.2727C36.0487 74.2727 35.6793 74.3892 35.3896 74.6222C35.0998 74.8551 34.8853 75.1605 34.7461 75.5384C34.6069 75.9162 34.5373 76.3239 34.5373 76.7614C34.5373 77.1989 34.6069 77.6051 34.7461 77.9801C34.8853 78.3551 35.0998 78.6577 35.3896 78.8878C35.6793 79.1179 36.0487 79.233 36.4975 79.233ZM43.6577 80.1364C43.0668 80.1364 42.5483 79.9957 42.1023 79.7145C41.6591 79.4332 41.3125 79.0398 41.0625 78.5341C40.8153 78.0284 40.6918 77.4375 40.6918 76.7614C40.6918 76.0795 40.8153 75.4844 41.0625 74.9759C41.3125 74.4673 41.6591 74.0724 42.1023 73.7912C42.5483 73.5099 43.0668 73.3693 43.6577 73.3693C44.2486 73.3693 44.7656 73.5099 45.2088 73.7912C45.6548 74.0724 46.0014 74.4673 46.2486 74.9759C46.4986 75.4844 46.6236 76.0795 46.6236 76.7614C46.6236 77.4375 46.4986 78.0284 46.2486 78.5341C46.0014 79.0398 45.6548 79.4332 45.2088 79.7145C44.7656 79.9957 44.2486 80.1364 43.6577 80.1364ZM43.6577 79.233C44.1065 79.233 44.4759 79.1179 44.7656 78.8878C45.0554 78.6577 45.2699 78.3551 45.4091 77.9801C45.5483 77.6051 45.6179 77.1989 45.6179 76.7614C45.6179 76.3239 45.5483 75.9162 45.4091 75.5384C45.2699 75.1605 45.0554 74.8551 44.7656 74.6222C44.4759 74.3892 44.1065 74.2727 43.6577 74.2727C43.2088 74.2727 42.8395 74.3892 42.5497 74.6222C42.2599 74.8551 42.0455 75.1605 41.9062 75.5384C41.767 75.9162 41.6974 76.3239 41.6974 76.7614C41.6974 77.1989 41.767 77.6051 41.9062 77.9801C42.0455 78.3551 42.2599 78.6577 42.5497 78.8878C42.8395 79.1179 43.2088 79.233 43.6577 79.233ZM50.8008 82.5909C50.315 82.5909 49.8974 82.5284 49.5479 82.4034C49.1985 82.2812 48.9073 82.1193 48.6744 81.9176C48.4442 81.7188 48.261 81.5057 48.1246 81.2784L48.9258 80.7159C49.0167 80.8352 49.1317 80.9716 49.271 81.125C49.4102 81.2812 49.6005 81.4162 49.842 81.5298C50.0863 81.6463 50.4059 81.7045 50.8008 81.7045C51.3292 81.7045 51.7653 81.5767 52.109 81.321C52.4528 81.0653 52.6246 80.6648 52.6246 80.1193V78.7898H52.5394C52.4656 78.9091 52.3604 79.0568 52.2241 79.233C52.0906 79.4062 51.8974 79.5611 51.6445 79.6974C51.3945 79.831 51.0565 79.8977 50.6303 79.8977C50.1019 79.8977 49.6275 79.7727 49.207 79.5227C48.7894 79.2727 48.4585 78.9091 48.2141 78.4318C47.9727 77.9545 47.8519 77.375 47.8519 76.6932C47.8519 76.0227 47.9698 75.4389 48.2056 74.9418C48.4414 74.4418 48.7695 74.0554 49.19 73.7827C49.6104 73.5071 50.0962 73.3693 50.6474 73.3693C51.0735 73.3693 51.4116 73.4403 51.6616 73.5824C51.9144 73.7216 52.1076 73.8807 52.2411 74.0597C52.3775 74.2358 52.4826 74.3807 52.5565 74.4943H52.6587V73.4545H53.6303V80.1875C53.6303 80.75 53.5025 81.2074 53.2468 81.5597C52.994 81.9148 52.6531 82.1747 52.2241 82.3395C51.7979 82.5071 51.3235 82.5909 50.8008 82.5909ZM50.7667 78.9943C51.1701 78.9943 51.511 78.902 51.7894 78.7173C52.0678 78.5327 52.2795 78.267 52.4244 77.9205C52.5692 77.5739 52.6417 77.1591 52.6417 76.6761C52.6417 76.2045 52.5707 75.7884 52.4286 75.4276C52.2866 75.0668 52.0763 74.7841 51.7979 74.5795C51.5195 74.375 51.1758 74.2727 50.7667 74.2727C50.3406 74.2727 49.9854 74.3807 49.7013 74.5966C49.4201 74.8125 49.2085 75.1023 49.0664 75.4659C48.9272 75.8295 48.8576 76.233 48.8576 76.6761C48.8576 77.1307 48.9286 77.5327 49.0707 77.8821C49.2156 78.2287 49.4286 78.5014 49.7099 78.7003C49.994 78.8963 50.3462 78.9943 50.7667 78.9943ZM56.4769 71.2727V80H55.4712V71.2727H56.4769ZM61.0632 80.1364C60.4325 80.1364 59.8885 79.9972 59.4311 79.7188C58.9766 79.4375 58.6257 79.0455 58.3786 78.5426C58.1342 78.0369 58.0121 77.4489 58.0121 76.7784C58.0121 76.108 58.1342 75.517 58.3786 75.0057C58.6257 74.4915 58.9695 74.0909 59.4098 73.804C59.853 73.5142 60.37 73.3693 60.9609 73.3693C61.3018 73.3693 61.6385 73.4261 61.9709 73.5398C62.3033 73.6534 62.6058 73.8381 62.8786 74.0938C63.1513 74.3466 63.3686 74.6818 63.5305 75.0994C63.6925 75.517 63.7734 76.0312 63.7734 76.642V77.0682H58.728V76.1989H62.7507C62.7507 75.8295 62.6768 75.5 62.5291 75.2102C62.3842 74.9205 62.1768 74.6918 61.907 74.5241C61.6399 74.3565 61.3246 74.2727 60.9609 74.2727C60.5604 74.2727 60.2138 74.3722 59.9212 74.571C59.6314 74.767 59.4084 75.0227 59.2521 75.3381C59.0959 75.6534 59.0178 75.9915 59.0178 76.3523V76.9318C59.0178 77.4261 59.103 77.8452 59.2734 78.1889C59.4467 78.5298 59.6868 78.7898 59.9936 78.9688C60.3004 79.1449 60.657 79.233 61.0632 79.233C61.3274 79.233 61.5661 79.196 61.7791 79.1222C61.995 79.0455 62.1811 78.9318 62.3374 78.7812C62.4936 78.6278 62.6143 78.4375 62.6996 78.2102L63.6712 78.483C63.5689 78.8125 63.397 79.1023 63.1555 79.3523C62.9141 79.5994 62.6158 79.7926 62.2607 79.9318C61.9055 80.0682 61.5064 80.1364 61.0632 80.1364Z" fill="black"/>
<path d="M24.3068 114.073H25.517L27.9375 118.147H28.0398L30.4602 114.073H31.6705L28.517 119.203V122.8H27.4602V119.203L24.3068 114.073ZM34.6342 122.936C34.0433 122.936 33.5249 122.796 33.0788 122.514C32.6357 122.233 32.2891 121.84 32.0391 121.334C31.7919 120.828 31.6683 120.237 31.6683 119.561C31.6683 118.88 31.7919 118.284 32.0391 117.776C32.2891 117.267 32.6357 116.872 33.0788 116.591C33.5249 116.31 34.0433 116.169 34.6342 116.169C35.2251 116.169 35.7422 116.31 36.1854 116.591C36.6314 116.872 36.978 117.267 37.2251 117.776C37.4751 118.284 37.6001 118.88 37.6001 119.561C37.6001 120.237 37.4751 120.828 37.2251 121.334C36.978 121.84 36.6314 122.233 36.1854 122.514C35.7422 122.796 35.2251 122.936 34.6342 122.936ZM34.6342 122.033C35.0831 122.033 35.4524 121.918 35.7422 121.688C36.032 121.458 36.2464 121.155 36.3857 120.78C36.5249 120.405 36.5945 119.999 36.5945 119.561C36.5945 119.124 36.5249 118.716 36.3857 118.338C36.2464 117.96 36.032 117.655 35.7422 117.422C35.4524 117.189 35.0831 117.073 34.6342 117.073C34.1854 117.073 33.8161 117.189 33.5263 117.422C33.2365 117.655 33.022 117.96 32.8828 118.338C32.7436 118.716 32.674 119.124 32.674 119.561C32.674 119.999 32.7436 120.405 32.8828 120.78C33.022 121.155 33.2365 121.458 33.5263 121.688C33.8161 121.918 34.1854 122.033 34.6342 122.033ZM43.2603 120.124V116.255H44.266V122.8H43.2603V121.692H43.1921C43.0387 122.024 42.8001 122.307 42.4762 122.54C42.1523 122.77 41.7433 122.885 41.2489 122.885C40.8398 122.885 40.4762 122.796 40.158 122.617C39.8398 122.435 39.5898 122.162 39.408 121.799C39.2262 121.432 39.1353 120.97 39.1353 120.414V116.255H40.141V120.345C40.141 120.823 40.2745 121.203 40.5415 121.487C40.8114 121.772 41.1552 121.914 41.5728 121.914C41.8228 121.914 42.0771 121.85 42.3356 121.722C42.5969 121.594 42.8157 121.398 42.9918 121.134C43.1708 120.87 43.2603 120.533 43.2603 120.124ZM45.1577 115.01V114.073H51.7031V115.01H48.9588V122.8H47.902V115.01H45.1577ZM56.4322 120.124V116.255H57.4379V122.8H56.4322V121.692H56.364C56.2106 122.024 55.9719 122.307 55.6481 122.54C55.3242 122.77 54.9151 122.885 54.4208 122.885C54.0117 122.885 53.6481 122.796 53.3299 122.617C53.0117 122.435 52.7617 122.162 52.5799 121.799C52.3981 121.432 52.3072 120.97 52.3072 120.414V116.255H53.3129V120.345C53.3129 120.823 53.4464 121.203 53.7134 121.487C53.9833 121.772 54.3271 121.914 54.7447 121.914C54.9947 121.914 55.2489 121.85 55.5075 121.722C55.7688 121.594 55.9876 121.398 56.1637 121.134C56.3427 120.87 56.4322 120.533 56.4322 120.124ZM59.4162 122.8V114.073H60.4219V117.294H60.5071C60.581 117.181 60.6832 117.036 60.8139 116.86C60.9474 116.681 61.1378 116.522 61.3849 116.382C61.6349 116.24 61.973 116.169 62.3991 116.169C62.9503 116.169 63.4361 116.307 63.8565 116.583C64.277 116.858 64.6051 117.249 64.8409 117.755C65.0767 118.26 65.1946 118.857 65.1946 119.544C65.1946 120.237 65.0767 120.838 64.8409 121.347C64.6051 121.853 64.2784 122.245 63.8608 122.523C63.4432 122.799 62.9616 122.936 62.4162 122.936C61.9957 122.936 61.6591 122.867 61.4062 122.728C61.1534 122.585 60.9588 122.425 60.8224 122.246C60.6861 122.064 60.581 121.914 60.5071 121.794H60.3878V122.8H59.4162ZM60.4048 119.527C60.4048 120.022 60.4773 120.458 60.6222 120.835C60.767 121.21 60.9787 121.505 61.2571 121.718C61.5355 121.928 61.8764 122.033 62.2798 122.033C62.7003 122.033 63.0511 121.922 63.3324 121.701C63.6165 121.476 63.8295 121.175 63.9716 120.797C64.1165 120.416 64.1889 119.993 64.1889 119.527C64.1889 119.067 64.1179 118.652 63.9759 118.283C63.8366 117.911 63.625 117.617 63.3409 117.401C63.0597 117.182 62.706 117.073 62.2798 117.073C61.8707 117.073 61.527 117.176 61.2486 117.384C60.9702 117.588 60.7599 117.875 60.6179 118.245C60.4759 118.611 60.4048 119.039 60.4048 119.527ZM69.4773 122.936C68.8466 122.936 68.3026 122.797 67.8452 122.519C67.3906 122.237 67.0398 121.845 66.7926 121.343C66.5483 120.837 66.4261 120.249 66.4261 119.578C66.4261 118.908 66.5483 118.317 66.7926 117.806C67.0398 117.291 67.3835 116.891 67.8239 116.604C68.267 116.314 68.7841 116.169 69.375 116.169C69.7159 116.169 70.0526 116.226 70.3849 116.34C70.7173 116.453 71.0199 116.638 71.2926 116.894C71.5653 117.147 71.7827 117.482 71.9446 117.899C72.1065 118.317 72.1875 118.831 72.1875 119.442V119.868H67.142V118.999H71.1648C71.1648 118.63 71.0909 118.3 70.9432 118.01C70.7983 117.72 70.5909 117.492 70.321 117.324C70.054 117.157 69.7386 117.073 69.375 117.073C68.9744 117.073 68.6278 117.172 68.3352 117.371C68.0455 117.567 67.8224 117.823 67.6662 118.138C67.5099 118.453 67.4318 118.791 67.4318 119.152V119.732C67.4318 120.226 67.517 120.645 67.6875 120.989C67.8608 121.33 68.1009 121.59 68.4077 121.769C68.7145 121.945 69.071 122.033 69.4773 122.033C69.7415 122.033 69.9801 121.996 70.1932 121.922C70.4091 121.845 70.5952 121.732 70.7514 121.581C70.9077 121.428 71.0284 121.237 71.1136 121.01L72.0852 121.283C71.983 121.612 71.8111 121.902 71.5696 122.152C71.3281 122.399 71.0298 122.593 70.6747 122.732C70.3196 122.868 69.9205 122.936 69.4773 122.936Z" fill="black"/>
<path d="M26.1136 156.873V165.6H25.0568V156.873H26.1136ZM29.1019 161.663V165.6H28.0962V159.055H29.0678V160.077H29.1531C29.3065 159.745 29.5394 159.478 29.8519 159.276C30.1644 159.072 30.5678 158.969 31.0621 158.969C31.5053 158.969 31.8931 159.06 32.2255 159.242C32.5579 159.421 32.8164 159.694 33.0011 160.06C33.1857 160.424 33.2781 160.884 33.2781 161.441V165.6H32.2724V161.509C32.2724 160.995 32.1388 160.594 31.8718 160.307C31.6048 160.018 31.2383 159.873 30.7724 159.873C30.4513 159.873 30.1644 159.942 29.9116 160.082C29.6616 160.221 29.4641 160.424 29.3192 160.691C29.1744 160.958 29.1019 161.282 29.1019 161.663ZM39.7521 160.52L38.8487 160.776C38.7919 160.626 38.7081 160.479 38.5973 160.337C38.4893 160.192 38.3416 160.073 38.1541 159.979C37.9666 159.886 37.7266 159.839 37.4339 159.839C37.0334 159.839 36.6996 159.931 36.4325 160.116C36.1683 160.297 36.0362 160.529 36.0362 160.81C36.0362 161.06 36.1271 161.258 36.3089 161.403C36.4908 161.547 36.7749 161.668 37.1612 161.765L38.1328 162.003C38.718 162.145 39.1541 162.363 39.4411 162.655C39.728 162.945 39.8714 163.319 39.8714 163.776C39.8714 164.151 39.7635 164.486 39.5476 164.782C39.3345 165.077 39.0362 165.31 38.6527 165.481C38.2692 165.651 37.8232 165.736 37.3146 165.736C36.647 165.736 36.0945 165.591 35.657 165.302C35.2195 165.012 34.9425 164.589 34.826 164.032L35.7805 163.793C35.8714 164.145 36.0433 164.41 36.2962 164.586C36.5518 164.762 36.8857 164.85 37.2976 164.85C37.7663 164.85 38.1385 164.751 38.4141 164.552C38.6925 164.35 38.8317 164.109 38.8317 163.827C38.8317 163.6 38.7521 163.41 38.593 163.256C38.4339 163.1 38.1896 162.984 37.8601 162.907L36.7692 162.651C36.1697 162.509 35.7294 162.289 35.4482 161.991C35.1697 161.689 35.0305 161.313 35.0305 160.861C35.0305 160.492 35.1342 160.165 35.3416 159.881C35.5518 159.597 35.8374 159.374 36.1982 159.212C36.5618 159.05 36.9737 158.969 37.4339 158.969C38.0817 158.969 38.5902 159.111 38.9595 159.395C39.3317 159.68 39.5959 160.055 39.7521 160.52ZM44.2319 159.055V159.907H40.8398V159.055H44.2319ZM41.8285 157.486H42.8342V163.725C42.8342 164.009 42.8754 164.222 42.9577 164.364C43.043 164.503 43.1509 164.597 43.2816 164.645C43.4151 164.691 43.5558 164.714 43.7035 164.714C43.8143 164.714 43.9052 164.708 43.9762 164.697C44.0472 164.682 44.104 164.671 44.1467 164.663L44.3512 165.566C44.283 165.591 44.1879 165.617 44.0657 165.643C43.9435 165.671 43.7887 165.685 43.6012 165.685C43.3171 165.685 43.0387 165.624 42.766 165.502C42.4961 165.38 42.2717 165.194 42.0927 164.944C41.9165 164.694 41.8285 164.378 41.8285 163.998V157.486ZM47.6708 165.753C47.256 165.753 46.8796 165.675 46.5415 165.519C46.2035 165.36 45.935 165.131 45.7362 164.833C45.5373 164.532 45.4379 164.168 45.4379 163.742C45.4379 163.367 45.5117 163.063 45.6594 162.83C45.8072 162.594 46.0046 162.41 46.2518 162.276C46.4989 162.143 46.7717 162.043 47.07 161.978C47.3711 161.91 47.6737 161.856 47.9776 161.816C48.3754 161.765 48.6978 161.726 48.945 161.701C49.195 161.672 49.3768 161.626 49.4904 161.56C49.6069 161.495 49.6651 161.381 49.6651 161.219V161.185C49.6651 160.765 49.5501 160.438 49.32 160.205C49.0927 159.972 48.7475 159.856 48.2844 159.856C47.8043 159.856 47.4279 159.961 47.1552 160.171C46.8825 160.381 46.6907 160.606 46.5799 160.844L45.6254 160.503C45.7958 160.106 46.0231 159.796 46.3072 159.574C46.5941 159.35 46.9066 159.194 47.2447 159.106C47.5856 159.015 47.9208 158.969 48.2504 158.969C48.4606 158.969 48.7021 158.995 48.9748 159.046C49.2504 159.094 49.516 159.195 49.7717 159.349C50.0302 159.502 50.2447 159.734 50.4151 160.043C50.5856 160.353 50.6708 160.768 50.6708 161.288V165.6H49.6651V164.714H49.614C49.5458 164.856 49.4322 165.008 49.2731 165.17C49.114 165.332 48.9023 165.469 48.6381 165.583C48.3739 165.697 48.0515 165.753 47.6708 165.753ZM47.8242 164.85C48.2219 164.85 48.5572 164.772 48.8299 164.616C49.1055 164.459 49.3129 164.258 49.4521 164.011C49.5941 163.763 49.6651 163.503 49.6651 163.231V162.31C49.6225 162.361 49.5288 162.408 49.3839 162.451C49.2418 162.491 49.0771 162.526 48.8896 162.557C48.7049 162.586 48.5245 162.611 48.3484 162.634C48.1751 162.654 48.0344 162.671 47.9265 162.685C47.6651 162.719 47.4208 162.775 47.1935 162.851C46.9691 162.925 46.7873 163.038 46.6481 163.188C46.5117 163.336 46.4435 163.538 46.4435 163.793C46.4435 164.143 46.5728 164.407 46.8313 164.586C47.0927 164.762 47.4237 164.85 47.8242 164.85ZM55.1484 168.191C54.6626 168.191 54.245 168.128 53.8956 168.003C53.5462 167.881 53.255 167.719 53.022 167.518C52.7919 167.319 52.6087 167.106 52.4723 166.878L53.2734 166.316C53.3643 166.435 53.4794 166.572 53.6186 166.725C53.7578 166.881 53.9482 167.016 54.1896 167.13C54.4339 167.246 54.7536 167.305 55.1484 167.305C55.6768 167.305 56.1129 167.177 56.4567 166.921C56.8004 166.665 56.9723 166.265 56.9723 165.719V164.39H56.8871C56.8132 164.509 56.7081 164.657 56.5717 164.833C56.4382 165.006 56.245 165.161 55.9922 165.297C55.7422 165.431 55.4041 165.498 54.978 165.498C54.4496 165.498 53.9751 165.373 53.5547 165.123C53.1371 164.873 52.8061 164.509 52.5618 164.032C52.3203 163.555 52.1996 162.975 52.1996 162.293C52.1996 161.623 52.3175 161.039 52.5533 160.542C52.7891 160.042 53.1172 159.655 53.5376 159.383C53.9581 159.107 54.4439 158.969 54.995 158.969C55.4212 158.969 55.7592 159.04 56.0092 159.182C56.2621 159.322 56.4553 159.481 56.5888 159.66C56.7251 159.836 56.8303 159.981 56.9041 160.094H57.0064V159.055H57.978V165.788C57.978 166.35 57.8501 166.807 57.5945 167.16C57.3416 167.515 57.0007 167.775 56.5717 167.939C56.1456 168.107 55.6712 168.191 55.1484 168.191ZM55.1143 164.594C55.5178 164.594 55.8587 164.502 56.1371 164.317C56.4155 164.133 56.6271 163.867 56.772 163.52C56.9169 163.174 56.9893 162.759 56.9893 162.276C56.9893 161.805 56.9183 161.388 56.7763 161.028C56.6342 160.667 56.424 160.384 56.1456 160.18C55.8672 159.975 55.5234 159.873 55.1143 159.873C54.6882 159.873 54.3331 159.981 54.049 160.197C53.7678 160.413 53.5561 160.702 53.4141 161.066C53.2749 161.43 53.2053 161.833 53.2053 162.276C53.2053 162.731 53.2763 163.133 53.4183 163.482C53.5632 163.829 53.7763 164.101 54.0575 164.3C54.3416 164.496 54.6939 164.594 55.1143 164.594ZM59.8189 165.6V159.055H60.7905V160.043H60.8587C60.978 159.719 61.1939 159.457 61.5064 159.255C61.8189 159.053 62.1712 158.952 62.5632 158.952C62.6371 158.952 62.7294 158.954 62.8402 158.957C62.951 158.959 63.0348 158.964 63.0916 158.969V159.992C63.0575 159.984 62.9794 159.971 62.8572 159.954C62.7379 159.934 62.6115 159.924 62.478 159.924C62.1598 159.924 61.8757 159.991 61.6257 160.124C61.3786 160.255 61.1825 160.437 61.0376 160.67C60.8956 160.9 60.8246 161.163 60.8246 161.458V165.6H59.8189ZM66.2099 165.753C65.7951 165.753 65.4187 165.675 65.0806 165.519C64.7425 165.36 64.4741 165.131 64.2752 164.833C64.0763 164.532 63.9769 164.168 63.9769 163.742C63.9769 163.367 64.0508 163.063 64.1985 162.83C64.3462 162.594 64.5437 162.41 64.7908 162.276C65.038 162.143 65.3107 162.043 65.609 161.978C65.9102 161.91 66.2127 161.856 66.5167 161.816C66.9144 161.765 67.2369 161.726 67.484 161.701C67.734 161.672 67.9158 161.626 68.0295 161.56C68.146 161.495 68.2042 161.381 68.2042 161.219V161.185C68.2042 160.765 68.0891 160.438 67.859 160.205C67.6317 159.972 67.2866 159.856 66.8235 159.856C66.3434 159.856 65.967 159.961 65.6942 160.171C65.4215 160.381 65.2298 160.606 65.119 160.844L64.1644 160.503C64.3349 160.106 64.5621 159.796 64.8462 159.574C65.1332 159.35 65.4457 159.194 65.7837 159.106C66.1246 159.015 66.4599 158.969 66.7894 158.969C66.9996 158.969 67.2411 158.995 67.5138 159.046C67.7894 159.094 68.055 159.195 68.3107 159.349C68.5692 159.502 68.7837 159.734 68.9542 160.043C69.1246 160.353 69.2099 160.768 69.2099 161.288V165.6H68.2042V164.714H68.1531C68.0849 164.856 67.9712 165.008 67.8121 165.17C67.6531 165.332 67.4414 165.469 67.1772 165.583C66.913 165.697 66.5906 165.753 66.2099 165.753ZM66.3633 164.85C66.761 164.85 67.0962 164.772 67.369 164.616C67.6445 164.459 67.8519 164.258 67.9911 164.011C68.1332 163.763 68.2042 163.503 68.2042 163.231V162.31C68.1616 162.361 68.0678 162.408 67.9229 162.451C67.7809 162.491 67.6161 162.526 67.4286 162.557C67.244 162.586 67.0636 162.611 66.8874 162.634C66.7141 162.654 66.5735 162.671 66.4656 162.685C66.2042 162.719 65.9599 162.775 65.7326 162.851C65.5082 162.925 65.3263 163.038 65.1871 163.188C65.0508 163.336 64.9826 163.538 64.9826 163.793C64.9826 164.143 65.1119 164.407 65.3704 164.586C65.6317 164.762 65.9627 164.85 66.3633 164.85ZM71.0455 165.6V159.055H72.017V160.077H72.1023C72.2386 159.728 72.4588 159.457 72.7628 159.263C73.0668 159.067 73.4318 158.969 73.858 158.969C74.2898 158.969 74.6491 159.067 74.9361 159.263C75.2259 159.457 75.4517 159.728 75.6136 160.077H75.6818C75.8494 159.739 76.1009 159.471 76.4361 159.272C76.7713 159.07 77.1733 158.969 77.642 158.969C78.2273 158.969 78.706 159.153 79.0781 159.519C79.4503 159.883 79.6364 160.449 79.6364 161.219V165.6H78.6307V161.219C78.6307 160.736 78.4986 160.391 78.2344 160.184C77.9702 159.976 77.6591 159.873 77.3011 159.873C76.8409 159.873 76.4844 160.012 76.2315 160.29C75.9787 160.566 75.8523 160.915 75.8523 161.339V165.6H74.8295V161.117C74.8295 160.745 74.7088 160.445 74.4673 160.218C74.2259 159.988 73.9148 159.873 73.5341 159.873C73.2727 159.873 73.0284 159.942 72.8011 160.082C72.5767 160.221 72.3949 160.414 72.2557 160.661C72.1193 160.905 72.0511 161.188 72.0511 161.509V165.6H71.0455Z" fill="black"/>
<path d="M25.0568 208.4V199.673H28.0057C28.6903 199.673 29.25 199.796 29.6847 200.043C30.1222 200.288 30.446 200.619 30.6562 201.036C30.8665 201.454 30.9716 201.92 30.9716 202.434C30.9716 202.948 30.8665 203.416 30.6562 203.836C30.4489 204.257 30.1278 204.592 29.6932 204.842C29.2585 205.089 28.7017 205.212 28.0227 205.212H25.9091V204.275H27.9886C28.4574 204.275 28.8338 204.194 29.1179 204.032C29.402 203.87 29.608 203.651 29.7358 203.376C29.8665 203.097 29.9318 202.784 29.9318 202.434C29.9318 202.085 29.8665 201.772 29.7358 201.497C29.608 201.221 29.4006 201.005 29.1136 200.849C28.8267 200.69 28.446 200.61 27.9716 200.61H26.1136V208.4H25.0568ZM32.5376 208.4V201.855H33.5433V208.4H32.5376ZM33.049 200.764C32.853 200.764 32.6839 200.697 32.5419 200.563C32.4027 200.43 32.3331 200.269 32.3331 200.082C32.3331 199.894 32.4027 199.734 32.5419 199.6C32.6839 199.467 32.853 199.4 33.049 199.4C33.245 199.4 33.4126 199.467 33.5518 199.6C33.6939 199.734 33.7649 199.894 33.7649 200.082C33.7649 200.269 33.6939 200.43 33.5518 200.563C33.4126 200.697 33.245 200.764 33.049 200.764ZM36.391 204.462V208.4H35.3853V201.855H36.3569V202.877H36.4421C36.5955 202.545 36.8285 202.278 37.141 202.076C37.4535 201.872 37.8569 201.769 38.3512 201.769C38.7944 201.769 39.1822 201.86 39.5146 202.042C39.8469 202.221 40.1055 202.494 40.2901 202.86C40.4748 203.224 40.5671 203.684 40.5671 204.241V208.4H39.5614V204.309C39.5614 203.795 39.4279 203.394 39.1609 203.107C38.8938 202.818 38.5273 202.673 38.0614 202.673C37.7404 202.673 37.4535 202.742 37.2006 202.882C36.9506 203.021 36.7532 203.224 36.6083 203.491C36.4634 203.758 36.391 204.082 36.391 204.462ZM45.2514 201.855V202.707H41.8594V201.855H45.2514ZM42.848 200.286H43.8537V206.525C43.8537 206.809 43.8949 207.022 43.9773 207.164C44.0625 207.303 44.1705 207.397 44.3011 207.445C44.4347 207.491 44.5753 207.514 44.723 207.514C44.8338 207.514 44.9247 207.508 44.9957 207.497C45.0668 207.482 45.1236 207.471 45.1662 207.462L45.3707 208.366C45.3026 208.391 45.2074 208.417 45.0852 208.443C44.9631 208.471 44.8082 208.485 44.6207 208.485C44.3366 208.485 44.0582 208.424 43.7855 208.302C43.5156 208.18 43.2912 207.994 43.1122 207.744C42.9361 207.494 42.848 207.178 42.848 206.798V200.286ZM49.4382 208.536C48.8075 208.536 48.2635 208.397 47.8061 208.119C47.3516 207.837 47.0007 207.445 46.7536 206.943C46.5092 206.437 46.3871 205.849 46.3871 205.178C46.3871 204.508 46.5092 203.917 46.7536 203.406C47.0007 202.891 47.3445 202.491 47.7848 202.204C48.228 201.914 48.745 201.769 49.3359 201.769C49.6768 201.769 50.0135 201.826 50.3459 201.94C50.6783 202.053 50.9808 202.238 51.2536 202.494C51.5263 202.747 51.7436 203.082 51.9055 203.499C52.0675 203.917 52.1484 204.431 52.1484 205.042V205.468H47.103V204.599H51.1257C51.1257 204.23 51.0518 203.9 50.9041 203.61C50.7592 203.32 50.5518 203.092 50.282 202.924C50.0149 202.757 49.6996 202.673 49.3359 202.673C48.9354 202.673 48.5888 202.772 48.2962 202.971C48.0064 203.167 47.7834 203.423 47.6271 203.738C47.4709 204.053 47.3928 204.391 47.3928 204.752V205.332C47.3928 205.826 47.478 206.245 47.6484 206.589C47.8217 206.93 48.0618 207.19 48.3686 207.369C48.6754 207.545 49.032 207.633 49.4382 207.633C49.7024 207.633 49.9411 207.596 50.1541 207.522C50.37 207.445 50.5561 207.332 50.7124 207.181C50.8686 207.028 50.9893 206.837 51.0746 206.61L52.0462 206.883C51.9439 207.212 51.772 207.502 51.5305 207.752C51.2891 207.999 50.9908 208.193 50.6357 208.332C50.2805 208.468 49.8814 208.536 49.4382 208.536ZM53.6783 208.4V201.855H54.6499V202.843H54.718C54.8374 202.519 55.0533 202.257 55.3658 202.055C55.6783 201.853 56.0305 201.752 56.4226 201.752C56.4964 201.752 56.5888 201.754 56.6996 201.757C56.8104 201.759 56.8942 201.764 56.951 201.769V202.792C56.9169 202.784 56.8388 202.771 56.7166 202.754C56.5973 202.734 56.4709 202.724 56.3374 202.724C56.0192 202.724 55.7351 202.791 55.4851 202.924C55.2379 203.055 55.0419 203.237 54.897 203.47C54.755 203.7 54.6839 203.962 54.6839 204.258V208.4H53.6783ZM60.6882 208.536C60.0575 208.536 59.5135 208.397 59.0561 208.119C58.6016 207.837 58.2507 207.445 58.0036 206.943C57.7592 206.437 57.6371 205.849 57.6371 205.178C57.6371 204.508 57.7592 203.917 58.0036 203.406C58.2507 202.891 58.5945 202.491 59.0348 202.204C59.478 201.914 59.995 201.769 60.5859 201.769C60.9268 201.769 61.2635 201.826 61.5959 201.94C61.9283 202.053 62.2308 202.238 62.5036 202.494C62.7763 202.747 62.9936 203.082 63.1555 203.499C63.3175 203.917 63.3984 204.431 63.3984 205.042V205.468H58.353V204.599H62.3757C62.3757 204.23 62.3018 203.9 62.1541 203.61C62.0092 203.32 61.8018 203.092 61.532 202.924C61.2649 202.757 60.9496 202.673 60.5859 202.673C60.1854 202.673 59.8388 202.772 59.5462 202.971C59.2564 203.167 59.0334 203.423 58.8771 203.738C58.7209 204.053 58.6428 204.391 58.6428 204.752V205.332C58.6428 205.826 58.728 206.245 58.8984 206.589C59.0717 206.93 59.3118 207.19 59.6186 207.369C59.9254 207.545 60.282 207.633 60.6882 207.633C60.9524 207.633 61.1911 207.596 61.4041 207.522C61.62 207.445 61.8061 207.332 61.9624 207.181C62.1186 207.028 62.2393 206.837 62.3246 206.61L63.2962 206.883C63.1939 207.212 63.022 207.502 62.7805 207.752C62.5391 207.999 62.2408 208.193 61.8857 208.332C61.5305 208.468 61.1314 208.536 60.6882 208.536ZM69.5646 203.32L68.6612 203.576C68.6044 203.426 68.5206 203.279 68.4098 203.137C68.3018 202.992 68.1541 202.873 67.9666 202.779C67.7791 202.686 67.5391 202.639 67.2464 202.639C66.8459 202.639 66.5121 202.731 66.245 202.916C65.9808 203.097 65.8487 203.329 65.8487 203.61C65.8487 203.86 65.9396 204.058 66.1214 204.203C66.3033 204.347 66.5874 204.468 66.9737 204.565L67.9453 204.803C68.5305 204.945 68.9666 205.163 69.2536 205.455C69.5405 205.745 69.6839 206.119 69.6839 206.576C69.6839 206.951 69.576 207.286 69.3601 207.582C69.147 207.877 68.8487 208.11 68.4652 208.281C68.0817 208.451 67.6357 208.536 67.1271 208.536C66.4595 208.536 65.907 208.391 65.4695 208.102C65.032 207.812 64.755 207.389 64.6385 206.832L65.593 206.593C65.6839 206.945 65.8558 207.21 66.1087 207.386C66.3643 207.562 66.6982 207.65 67.1101 207.65C67.5788 207.65 67.951 207.551 68.2266 207.352C68.505 207.15 68.6442 206.909 68.6442 206.627C68.6442 206.4 68.5646 206.21 68.4055 206.056C68.2464 205.9 68.0021 205.784 67.6726 205.707L66.5817 205.451C65.9822 205.309 65.5419 205.089 65.2607 204.791C64.9822 204.489 64.843 204.113 64.843 203.661C64.843 203.292 64.9467 202.965 65.1541 202.681C65.3643 202.397 65.6499 202.174 66.0107 202.012C66.3743 201.85 66.7862 201.769 67.2464 201.769C67.8942 201.769 68.4027 201.911 68.772 202.195C69.1442 202.48 69.4084 202.855 69.5646 203.32ZM74.0444 201.855V202.707H70.6523V201.855H74.0444ZM71.641 200.286H72.6467V206.525C72.6467 206.809 72.6879 207.022 72.7702 207.164C72.8555 207.303 72.9634 207.397 73.0941 207.445C73.2276 207.491 73.3683 207.514 73.516 207.514C73.6268 207.514 73.7177 207.508 73.7887 207.497C73.8597 207.482 73.9165 207.471 73.9592 207.462L74.1637 208.366C74.0955 208.391 74.0004 208.417 73.8782 208.443C73.756 208.471 73.6012 208.485 73.4137 208.485C73.1296 208.485 72.8512 208.424 72.5785 208.302C72.3086 208.18 72.0842 207.994 71.9052 207.744C71.729 207.494 71.641 207.178 71.641 206.798V200.286Z" fill="black"/>
<path d="M25.0568 251.2V242.473H30.2898V243.41H26.1136V246.359H29.8977V247.297H26.1136V251.2H25.0568ZM33.8896 251.353C33.4748 251.353 33.0984 251.275 32.7603 251.119C32.4222 250.96 32.1538 250.731 31.9549 250.433C31.756 250.132 31.6566 249.768 31.6566 249.342C31.6566 248.967 31.7305 248.663 31.8782 248.43C32.0259 248.194 32.2234 248.01 32.4705 247.876C32.7177 247.743 32.9904 247.643 33.2887 247.578C33.5898 247.51 33.8924 247.456 34.1964 247.416C34.5941 247.365 34.9165 247.326 35.1637 247.301C35.4137 247.272 35.5955 247.226 35.7092 247.16C35.8256 247.095 35.8839 246.981 35.8839 246.819V246.785C35.8839 246.365 35.7688 246.038 35.5387 245.805C35.3114 245.572 34.9663 245.456 34.5032 245.456C34.0231 245.456 33.6467 245.561 33.3739 245.771C33.1012 245.981 32.9094 246.206 32.7987 246.444L31.8441 246.103C32.0146 245.706 32.2418 245.396 32.5259 245.174C32.8129 244.95 33.1254 244.794 33.4634 244.706C33.8043 244.615 34.1396 244.569 34.4691 244.569C34.6793 244.569 34.9208 244.595 35.1935 244.646C35.4691 244.694 35.7347 244.795 35.9904 244.949C36.2489 245.102 36.4634 245.334 36.6339 245.643C36.8043 245.953 36.8896 246.368 36.8896 246.888V251.2H35.8839V250.314H35.8327C35.7646 250.456 35.6509 250.608 35.4918 250.77C35.3327 250.932 35.1211 251.069 34.8569 251.183C34.5927 251.297 34.2702 251.353 33.8896 251.353ZM34.043 250.45C34.4407 250.45 34.7759 250.372 35.0487 250.216C35.3242 250.059 35.5316 249.858 35.6708 249.611C35.8129 249.363 35.8839 249.103 35.8839 248.831V247.91C35.8413 247.961 35.7475 248.008 35.6026 248.051C35.4606 248.091 35.2958 248.126 35.1083 248.157C34.9237 248.186 34.7433 248.211 34.5671 248.234C34.3938 248.254 34.2532 248.271 34.1452 248.285C33.8839 248.319 33.6396 248.375 33.4123 248.451C33.1879 248.525 33.006 248.638 32.8668 248.788C32.7305 248.936 32.6623 249.138 32.6623 249.393C32.6623 249.743 32.7915 250.007 33.0501 250.186C33.3114 250.362 33.6424 250.45 34.043 250.45ZM41.3842 251.336C40.7706 251.336 40.2422 251.191 39.799 250.902C39.3558 250.612 39.0149 250.213 38.7763 249.704C38.5376 249.196 38.4183 248.615 38.4183 247.961C38.4183 247.297 38.5405 246.71 38.7848 246.201C39.032 245.69 39.3757 245.291 39.8161 245.004C40.2592 244.714 40.7763 244.569 41.3672 244.569C41.8274 244.569 42.2422 244.655 42.6115 244.825C42.9808 244.995 43.2834 245.234 43.5192 245.541C43.755 245.848 43.9013 246.206 43.9581 246.615H42.9524C42.8757 246.316 42.7053 246.052 42.4411 245.822C42.1797 245.589 41.8274 245.473 41.3842 245.473C40.9922 245.473 40.6484 245.575 40.353 245.78C40.0604 245.981 39.8317 246.267 39.6669 246.636C39.505 247.003 39.424 247.433 39.424 247.927C39.424 248.433 39.5036 248.873 39.6626 249.248C39.8246 249.623 40.0518 249.915 40.3445 250.122C40.6399 250.329 40.9865 250.433 41.3842 250.433C41.6456 250.433 41.8828 250.388 42.0959 250.297C42.3089 250.206 42.4893 250.075 42.6371 249.905C42.7848 249.734 42.8899 249.53 42.9524 249.291H43.9581C43.9013 249.677 43.7607 250.025 43.5362 250.335C43.3146 250.642 43.0206 250.886 42.6541 251.068C42.2905 251.247 41.8672 251.336 41.3842 251.336ZM48.1726 251.336C47.5419 251.336 46.9979 251.197 46.5405 250.919C46.0859 250.638 45.7351 250.245 45.4879 249.743C45.2436 249.237 45.1214 248.649 45.1214 247.978C45.1214 247.308 45.2436 246.717 45.4879 246.206C45.7351 245.691 46.0788 245.291 46.5192 245.004C46.9624 244.714 47.4794 244.569 48.0703 244.569C48.4112 244.569 48.7479 244.626 49.0803 244.74C49.4126 244.853 49.7152 245.038 49.9879 245.294C50.2607 245.547 50.478 245.882 50.6399 246.299C50.8018 246.717 50.8828 247.231 50.8828 247.842V248.268H45.8374V247.399H49.8601C49.8601 247.03 49.7862 246.7 49.6385 246.41C49.4936 246.12 49.2862 245.892 49.0163 245.724C48.7493 245.557 48.4339 245.473 48.0703 245.473C47.6697 245.473 47.3232 245.572 47.0305 245.771C46.7408 245.967 46.5178 246.223 46.3615 246.538C46.2053 246.853 46.1271 247.191 46.1271 247.552V248.132C46.1271 248.626 46.2124 249.045 46.3828 249.389C46.5561 249.73 46.7962 249.99 47.103 250.169C47.4098 250.345 47.7663 250.433 48.1726 250.433C48.4368 250.433 48.6754 250.396 48.8885 250.322C49.1044 250.245 49.2905 250.132 49.4467 249.981C49.603 249.828 49.7237 249.638 49.8089 249.41L50.7805 249.683C50.6783 250.013 50.5064 250.302 50.2649 250.552C50.0234 250.799 49.7251 250.993 49.37 251.132C49.0149 251.268 48.6158 251.336 48.1726 251.336ZM52.549 251.2V242.473H53.5547V245.694H53.6399C53.7138 245.581 53.8161 245.436 53.9467 245.26C54.0803 245.081 54.2706 244.922 54.5178 244.782C54.7678 244.64 55.1058 244.569 55.532 244.569C56.0831 244.569 56.5689 244.707 56.9893 244.983C57.4098 245.258 57.7379 245.649 57.9737 246.155C58.2095 246.66 58.3274 247.257 58.3274 247.944C58.3274 248.638 58.2095 249.238 57.9737 249.747C57.7379 250.253 57.4112 250.645 56.9936 250.923C56.576 251.199 56.0945 251.336 55.549 251.336C55.1286 251.336 54.7919 251.267 54.5391 251.128C54.2862 250.986 54.0916 250.825 53.9553 250.646C53.8189 250.464 53.7138 250.314 53.6399 250.194H53.5206V251.2H52.549ZM53.5376 247.927C53.5376 248.422 53.6101 248.858 53.755 249.236C53.8999 249.611 54.1115 249.905 54.3899 250.118C54.6683 250.328 55.0092 250.433 55.4126 250.433C55.8331 250.433 56.1839 250.322 56.4652 250.101C56.7493 249.876 56.9624 249.575 57.1044 249.197C57.2493 248.816 57.3217 248.393 57.3217 247.927C57.3217 247.467 57.2507 247.052 57.1087 246.683C56.9695 246.311 56.7578 246.017 56.4737 245.801C56.1925 245.582 55.8388 245.473 55.4126 245.473C55.0036 245.473 54.6598 245.576 54.3814 245.784C54.103 245.988 53.8928 246.275 53.7507 246.645C53.6087 247.011 53.5376 247.439 53.5376 247.927ZM62.5249 251.336C61.9339 251.336 61.4155 251.196 60.9695 250.915C60.5263 250.633 60.1797 250.24 59.9297 249.734C59.6825 249.228 59.5589 248.638 59.5589 247.961C59.5589 247.28 59.6825 246.684 59.9297 246.176C60.1797 245.667 60.5263 245.272 60.9695 244.991C61.4155 244.71 61.9339 244.569 62.5249 244.569C63.1158 244.569 63.6328 244.71 64.076 244.991C64.522 245.272 64.8686 245.667 65.1158 246.176C65.3658 246.684 65.4908 247.28 65.4908 247.961C65.4908 248.638 65.3658 249.228 65.1158 249.734C64.8686 250.24 64.522 250.633 64.076 250.915C63.6328 251.196 63.1158 251.336 62.5249 251.336ZM62.5249 250.433C62.9737 250.433 63.343 250.318 63.6328 250.088C63.9226 249.858 64.1371 249.555 64.2763 249.18C64.4155 248.805 64.4851 248.399 64.4851 247.961C64.4851 247.524 64.4155 247.116 64.2763 246.738C64.1371 246.361 63.9226 246.055 63.6328 245.822C63.343 245.589 62.9737 245.473 62.5249 245.473C62.076 245.473 61.7067 245.589 61.4169 245.822C61.1271 246.055 60.9126 246.361 60.7734 246.738C60.6342 247.116 60.5646 247.524 60.5646 247.961C60.5646 248.399 60.6342 248.805 60.7734 249.18C60.9126 249.555 61.1271 249.858 61.4169 250.088C61.7067 250.318 62.076 250.433 62.5249 250.433ZM69.685 251.336C69.0941 251.336 68.5756 251.196 68.1296 250.915C67.6864 250.633 67.3398 250.24 67.0898 249.734C66.8427 249.228 66.7191 248.638 66.7191 247.961C66.7191 247.28 66.8427 246.684 67.0898 246.176C67.3398 245.667 67.6864 245.272 68.1296 244.991C68.5756 244.71 69.0941 244.569 69.685 244.569C70.2759 244.569 70.793 244.71 71.2362 244.991C71.6822 245.272 72.0288 245.667 72.2759 246.176C72.5259 246.684 72.6509 247.28 72.6509 247.961C72.6509 248.638 72.5259 249.228 72.2759 249.734C72.0288 250.24 71.6822 250.633 71.2362 250.915C70.793 251.196 70.2759 251.336 69.685 251.336ZM69.685 250.433C70.1339 250.433 70.5032 250.318 70.793 250.088C71.0827 249.858 71.2972 249.555 71.4364 249.18C71.5756 248.805 71.6452 248.399 71.6452 247.961C71.6452 247.524 71.5756 247.116 71.4364 246.738C71.2972 246.361 71.0827 246.055 70.793 245.822C70.5032 245.589 70.1339 245.473 69.685 245.473C69.2362 245.473 68.8668 245.589 68.5771 245.822C68.2873 246.055 68.0728 246.361 67.9336 246.738C67.7944 247.116 67.7248 247.524 67.7248 247.961C67.7248 248.399 67.7944 248.805 67.9336 249.18C68.0728 249.555 68.2873 249.858 68.5771 250.088C68.8668 250.318 69.2362 250.433 69.685 250.433ZM75.1236 248.814L75.1065 247.569H75.3111L78.1747 244.655H79.419L76.3679 247.74H76.2827L75.1236 248.814ZM74.1861 251.2V242.473H75.1918V251.2H74.1861ZM78.3452 251.2L75.7884 247.961L76.5043 247.263L79.6236 251.2H78.3452Z" fill="black"/>
<path d="M24.5795 286.21V285.273H31.125V286.21H28.3807V294H27.3239V286.21H24.5795ZM33.3526 294L31.3583 287.455H32.4151L33.8299 292.466H33.8981L35.2958 287.455H36.3697L37.7504 292.449H37.8185L39.2333 287.455H40.2901L38.2958 294H37.3072L35.8754 288.972H35.7731L34.3413 294H33.3526ZM41.6197 294V287.455H42.6254V294H41.6197ZM42.131 286.364C41.935 286.364 41.766 286.297 41.6239 286.163C41.4847 286.03 41.4151 285.869 41.4151 285.682C41.4151 285.494 41.4847 285.334 41.6239 285.2C41.766 285.067 41.935 285 42.131 285C42.3271 285 42.4947 285.067 42.6339 285.2C42.7759 285.334 42.8469 285.494 42.8469 285.682C42.8469 285.869 42.7759 286.03 42.6339 286.163C42.4947 286.297 42.3271 286.364 42.131 286.364ZM47.3139 287.455V288.307H43.9219V287.455H47.3139ZM44.9105 285.886H45.9162V292.125C45.9162 292.409 45.9574 292.622 46.0398 292.764C46.125 292.903 46.233 292.997 46.3636 293.045C46.4972 293.091 46.6378 293.114 46.7855 293.114C46.8963 293.114 46.9872 293.108 47.0582 293.097C47.1293 293.082 47.1861 293.071 47.2287 293.062L47.4332 293.966C47.3651 293.991 47.2699 294.017 47.1477 294.043C47.0256 294.071 46.8707 294.085 46.6832 294.085C46.3991 294.085 46.1207 294.024 45.848 293.902C45.5781 293.78 45.3537 293.594 45.1747 293.344C44.9986 293.094 44.9105 292.778 44.9105 292.398V285.886ZM51.6733 287.455V288.307H48.2812V287.455H51.6733ZM49.2699 285.886H50.2756V292.125C50.2756 292.409 50.3168 292.622 50.3991 292.764C50.4844 292.903 50.5923 292.997 50.723 293.045C50.8565 293.091 50.9972 293.114 51.1449 293.114C51.2557 293.114 51.3466 293.108 51.4176 293.097C51.4886 293.082 51.5455 293.071 51.5881 293.062L51.7926 293.966C51.7244 293.991 51.6293 294.017 51.5071 294.043C51.3849 294.071 51.2301 294.085 51.0426 294.085C50.7585 294.085 50.4801 294.024 50.2074 293.902C49.9375 293.78 49.7131 293.594 49.5341 293.344C49.358 293.094 49.2699 292.778 49.2699 292.398V285.886ZM55.8601 294.136C55.2294 294.136 54.6854 293.997 54.228 293.719C53.7734 293.438 53.4226 293.045 53.1754 292.543C52.9311 292.037 52.8089 291.449 52.8089 290.778C52.8089 290.108 52.9311 289.517 53.1754 289.006C53.4226 288.491 53.7663 288.091 54.2067 287.804C54.6499 287.514 55.1669 287.369 55.7578 287.369C56.0987 287.369 56.4354 287.426 56.7678 287.54C57.1001 287.653 57.4027 287.838 57.6754 288.094C57.9482 288.347 58.1655 288.682 58.3274 289.099C58.4893 289.517 58.5703 290.031 58.5703 290.642V291.068H53.5249V290.199H57.5476C57.5476 289.83 57.4737 289.5 57.326 289.21C57.1811 288.92 56.9737 288.692 56.7038 288.524C56.4368 288.357 56.1214 288.273 55.7578 288.273C55.3572 288.273 55.0107 288.372 54.718 288.571C54.4283 288.767 54.2053 289.023 54.049 289.338C53.8928 289.653 53.8146 289.991 53.8146 290.352V290.932C53.8146 291.426 53.8999 291.845 54.0703 292.189C54.2436 292.53 54.4837 292.79 54.7905 292.969C55.0973 293.145 55.4538 293.233 55.8601 293.233C56.1243 293.233 56.3629 293.196 56.576 293.122C56.7919 293.045 56.978 292.932 57.1342 292.781C57.2905 292.628 57.4112 292.437 57.4964 292.21L58.468 292.483C58.3658 292.812 58.1939 293.102 57.9524 293.352C57.7109 293.599 57.4126 293.793 57.0575 293.932C56.7024 294.068 56.3033 294.136 55.8601 294.136ZM60.1001 294V287.455H61.0717V288.443H61.1399C61.2592 288.119 61.4751 287.857 61.7876 287.655C62.1001 287.453 62.4524 287.352 62.8445 287.352C62.9183 287.352 63.0107 287.354 63.1214 287.357C63.2322 287.359 63.3161 287.364 63.3729 287.369V288.392C63.3388 288.384 63.2607 288.371 63.1385 288.354C63.0192 288.334 62.8928 288.324 62.7592 288.324C62.4411 288.324 62.157 288.391 61.907 288.524C61.6598 288.655 61.4638 288.837 61.3189 289.07C61.1768 289.3 61.1058 289.562 61.1058 289.858V294H60.1001Z" fill="black"/>
<path d="M97 77.1667C97 76.5223 97.5223 76 98.1667 76H105.548C106.192 76 106.714 76.5223 106.714 77.1667C106.714 77.811 106.192 78.3333 105.548 78.3333H98.1667C97.5223 78.3333 97 77.811 97 77.1667Z" fill="black"/>
<path d="M108.714 77.1667C108.714 76.5223 109.237 76 109.881 76H117.262C117.906 76 118.429 76.5223 118.429 77.1667C118.429 77.811 117.906 78.3333 117.262 78.3333H109.881C109.237 78.3333 108.714 77.811 108.714 77.1667Z" fill="black" fill-opacity="0.4"/>
<path d="M120.429 77.1667C120.429 76.5223 120.951 76 121.595 76H128.976C129.621 76 130.143 76.5223 130.143 77.1667C130.143 77.811 129.621 78.3333 128.976 78.3333H121.595C120.951 78.3333 120.429 77.811 120.429 77.1667Z" fill="black" fill-opacity="0.1"/>
<path d="M97 119.5C97 118.856 97.5223 118.333 98.1667 118.333H114.333C114.978 118.333 115.5 118.856 115.5 119.5C115.5 120.144 114.978 120.667 114.333 120.667H98.1667C97.5223 120.667 97 120.144 97 119.5Z" fill="black"/>
<path d="M117.5 119.5C117.5 118.856 118.022 118.333 118.667 118.333H134.833C135.478 118.333 136 118.856 136 119.5C136 120.144 135.478 120.667 134.833 120.667H118.667C118.022 120.667 117.5 120.144 117.5 119.5Z" fill="black" fill-opacity="0.4"/>
<path d="M138 119.5C138 118.856 138.522 118.333 139.167 118.333H155.333C155.978 118.333 156.5 118.856 156.5 119.5C156.5 120.144 155.978 120.667 155.333 120.667H139.167C138.522 120.667 138 120.144 138 119.5Z" fill="black" fill-opacity="0.1"/>
<path d="M97 161.833C97 161.189 97.5223 160.667 98.1667 160.667H107.5C108.144 160.667 108.667 161.189 108.667 161.833C108.667 162.478 108.144 163 107.5 163H98.1667C97.5223 163 97 162.478 97 161.833Z" fill="black"/>
<path d="M110.667 161.833C110.667 161.189 111.189 160.667 111.833 160.667H121.167C121.811 160.667 122.333 161.189 122.333 161.833C122.333 162.478 121.811 163 121.167 163H111.833C111.189 163 110.667 162.478 110.667 161.833Z" fill="black" fill-opacity="0.4"/>
<path d="M124.333 161.833C124.333 161.189 124.856 160.667 125.5 160.667H134.833C135.478 160.667 136 161.189 136 161.833C136 162.478 135.478 163 134.833 163H125.5C124.856 163 124.333 162.478 124.333 161.833Z" fill="black" fill-opacity="0.1"/>
<path d="M97 204.167C97 203.522 97.5223 203 98.1667 203H121.167C121.811 203 122.333 203.522 122.333 204.167C122.333 204.811 121.811 205.333 121.167 205.333H98.1667C97.5223 205.333 97 204.811 97 204.167Z" fill="black"/>
<path d="M124.333 204.167C124.333 203.522 124.856 203 125.5 203H148.5C149.144 203 149.667 203.522 149.667 204.167C149.667 204.811 149.144 205.333 148.5 205.333H125.5C124.856 205.333 124.333 204.811 124.333 204.167Z" fill="black" fill-opacity="0.4"/>
<path d="M151.667 204.167C151.667 203.522 152.189 203 152.833 203H175.833C176.478 203 177 203.522 177 204.167C177 204.811 176.478 205.333 175.833 205.333H152.833C152.189 205.333 151.667 204.811 151.667 204.167Z" fill="black" fill-opacity="0.1"/>
<path d="M97 246.5C97 245.856 97.5223 245.333 98.1667 245.333H104.083C104.728 245.333 105.25 245.856 105.25 246.5C105.25 247.144 104.728 247.667 104.083 247.667H98.1667C97.5223 247.667 97 247.144 97 246.5Z" fill="black"/>
<path d="M107.25 246.5C107.25 245.856 107.772 245.333 108.417 245.333H114.333C114.978 245.333 115.5 245.856 115.5 246.5C115.5 247.144 114.978 247.667 114.333 247.667H108.417C107.772 247.667 107.25 247.144 107.25 246.5Z" fill="black" fill-opacity="0.4"/>
<path d="M117.5 246.5C117.5 245.856 118.022 245.333 118.667 245.333H124.583C125.228 245.333 125.75 245.856 125.75 246.5C125.75 247.144 125.228 247.667 124.583 247.667H118.667C118.022 247.667 117.5 247.144 117.5 246.5Z" fill="black" fill-opacity="0.1"/>
<path d="M97 288.833C97 288.189 97.5223 287.667 98.1667 287.667H110.233C110.878 287.667 111.4 288.189 111.4 288.833C111.4 289.478 110.878 290 110.233 290H98.1667C97.5223 290 97 289.478 97 288.833Z" fill="black"/>
<path d="M113.4 288.833C113.4 288.189 113.922 287.667 114.567 287.667H126.633C127.278 287.667 127.8 288.189 127.8 288.833C127.8 289.478 127.278 290 126.633 290H114.567C113.922 290 113.4 289.478 113.4 288.833Z" fill="black" fill-opacity="0.4"/>
<path d="M129.8 288.833C129.8 288.189 130.322 287.667 130.967 287.667H143.033C143.678 287.667 144.2 288.189 144.2 288.833C144.2 289.478 143.678 290 143.033 290H130.967C130.322 290 129.8 289.478 129.8 288.833Z" fill="black" fill-opacity="0.1"/>
</svg>
