<svg width="316" height="28" viewBox="0 0 316 28" fill="none" xmlns="http://www.w3.org/2000/svg">
<rect width="160" height="28" rx="8" fill="black" fill-opacity="0.04"/>
<path d="M22.35 20.3563C22.2566 20.4482 22.131 20.4998 22 20.5C21.8672 20.4994 21.7397 20.448 21.6437 20.3563L18.9437 17.65C17.8066 18.6051 16.3446 19.0844 14.8627 18.9878C13.3808 18.8912 11.9934 18.2263 10.9899 17.1316C9.98633 16.037 9.44412 14.5972 9.47633 13.1125C9.50855 11.6278 10.1127 10.2129 11.1628 9.1628C12.2129 8.11272 13.6278 7.50857 15.1125 7.47636C16.5972 7.44415 18.037 7.98636 19.1316 8.9899C20.2263 9.99345 20.8912 11.3809 20.9878 12.8628C21.0844 14.3446 20.6051 15.8066 19.65 16.9438L22.35 19.6438C22.3972 19.6903 22.4347 19.7457 22.4603 19.8069C22.486 19.8681 22.4991 19.9337 22.4991 20C22.4991 20.0663 22.486 20.1319 22.4603 20.1931C22.4347 20.2543 22.3972 20.3097 22.35 20.3563ZM15.25 18C16.1894 18 17.1078 17.7214 17.8889 17.1995C18.6701 16.6775 19.2789 15.9357 19.6384 15.0677C19.9979 14.1998 20.092 13.2447 19.9087 12.3233C19.7254 11.4019 19.273 10.5555 18.6087 9.89124C17.9444 9.22694 17.0981 8.77455 16.1767 8.59127C15.2552 8.40799 14.3002 8.50206 13.4322 8.86157C12.5643 9.22109 11.8224 9.82991 11.3005 10.611C10.7786 11.3922 10.5 12.3105 10.5 13.25C10.5016 14.5093 11.0026 15.7165 11.893 16.6069C12.7835 17.4974 13.9907 17.9983 15.25 18Z" fill="black" fill-opacity="0.2"/>
<path d="M38.8011 11.3636C38.7415 10.8598 38.4995 10.4688 38.0753 10.1903C37.651 9.91193 37.1307 9.77273 36.5142 9.77273C36.0634 9.77273 35.669 9.84564 35.331 9.99148C34.9962 10.1373 34.7344 10.3378 34.5455 10.593C34.3598 10.8482 34.267 11.1383 34.267 11.4631C34.267 11.7348 34.3317 11.9685 34.4609 12.1641C34.5935 12.3563 34.7625 12.517 34.968 12.6463C35.1735 12.7723 35.389 12.8767 35.6143 12.9595C35.8397 13.0391 36.0469 13.1037 36.2358 13.1534L37.2699 13.4318C37.535 13.5014 37.83 13.5975 38.1548 13.7202C38.483 13.8428 38.7962 14.0102 39.0945 14.2223C39.3961 14.4311 39.6446 14.6996 39.8402 15.0277C40.0357 15.3558 40.1335 15.7585 40.1335 16.2358C40.1335 16.786 39.9893 17.2831 39.701 17.7273C39.416 18.1714 38.9983 18.5244 38.4482 18.7862C37.9013 19.0481 37.2367 19.179 36.4545 19.179C35.7254 19.179 35.094 19.0613 34.5604 18.826C34.0301 18.5907 33.6125 18.2625 33.3075 17.8416C33.0059 17.4207 32.8352 16.9318 32.7955 16.375H34.0682C34.1013 16.7595 34.2306 17.0777 34.456 17.3295C34.6847 17.5781 34.973 17.7637 35.321 17.8864C35.6723 18.0057 36.0502 18.0653 36.4545 18.0653C36.9252 18.0653 37.3478 17.9891 37.7223 17.8366C38.0968 17.6809 38.3935 17.4654 38.6122 17.1903C38.831 16.9119 38.9403 16.5871 38.9403 16.2159C38.9403 15.8778 38.8459 15.6027 38.657 15.3906C38.468 15.1785 38.2195 15.0062 37.9112 14.8736C37.603 14.741 37.2699 14.625 36.9119 14.5256L35.6591 14.1676C34.8636 13.9389 34.2339 13.6125 33.7699 13.1882C33.3059 12.764 33.0739 12.2088 33.0739 11.5227C33.0739 10.9527 33.228 10.4555 33.5362 10.0312C33.8478 9.60369 34.2654 9.27225 34.7891 9.03693C35.3161 8.7983 35.9044 8.67898 36.554 8.67898C37.2102 8.67898 37.7936 8.79664 38.304 9.03196C38.8144 9.26397 39.2188 9.58215 39.517 9.98651C39.8187 10.3909 39.9777 10.8499 39.9943 11.3636H38.8011ZM45.2033 19.1591C44.4675 19.1591 43.8328 18.9967 43.2992 18.6719C42.7689 18.3438 42.3596 17.8864 42.0712 17.2997C41.7862 16.7098 41.6436 16.0237 41.6436 15.2415C41.6436 14.4593 41.7862 13.7699 42.0712 13.1733C42.3596 12.5734 42.7606 12.1061 43.2743 11.7713C43.7914 11.4332 44.3946 11.2642 45.084 11.2642C45.4817 11.2642 45.8745 11.3305 46.2623 11.4631C46.65 11.5956 47.003 11.8111 47.3212 12.1094C47.6394 12.4044 47.8929 12.7955 48.0819 13.2827C48.2708 13.7699 48.3652 14.3698 48.3652 15.0824V15.5795H42.4789V14.5653H47.1721C47.1721 14.1345 47.0859 13.75 46.9135 13.4119C46.7445 13.0739 46.5025 12.8071 46.1877 12.6115C45.8761 12.416 45.5082 12.3182 45.084 12.3182C44.6167 12.3182 44.2123 12.4342 43.8709 12.6662C43.5328 12.8949 43.2727 13.1932 43.0904 13.5611C42.9081 13.929 42.8169 14.3234 42.8169 14.7443V15.4205C42.8169 15.9972 42.9164 16.486 43.1152 16.8871C43.3174 17.2848 43.5975 17.5881 43.9554 17.7969C44.3134 18.0024 44.7293 18.1051 45.2033 18.1051C45.5115 18.1051 45.79 18.062 46.0385 17.9759C46.2904 17.8864 46.5075 17.7538 46.6898 17.5781C46.8721 17.3991 47.013 17.1771 47.1124 16.9119L48.2459 17.2301C48.1266 17.6146 47.9261 17.9527 47.6444 18.2443C47.3626 18.5327 47.0146 18.758 46.6003 18.9205C46.186 19.0795 45.7203 19.1591 45.2033 19.1591ZM52.3972 19.179C51.9133 19.179 51.4741 19.0878 51.0797 18.9055C50.6853 18.7199 50.3721 18.4531 50.1401 18.1051C49.9081 17.7538 49.7921 17.3295 49.7921 16.8324C49.7921 16.3949 49.8783 16.0402 50.0506 15.7685C50.223 15.4934 50.4533 15.2779 50.7417 15.1222C51.03 14.9664 51.3482 14.8504 51.6962 14.7741C52.0475 14.6946 52.4005 14.6316 52.7551 14.5852C53.2192 14.5256 53.5953 14.4808 53.8837 14.451C54.1754 14.4179 54.3875 14.3632 54.5201 14.2869C54.656 14.2107 54.7239 14.0781 54.7239 13.8892V13.8494C54.7239 13.3589 54.5897 12.9777 54.3212 12.706C54.056 12.4342 53.6534 12.2983 53.1131 12.2983C52.553 12.2983 52.1138 12.4209 51.7956 12.6662C51.4775 12.9115 51.2537 13.1733 51.1245 13.4517L50.0108 13.054C50.2097 12.59 50.4748 12.2287 50.8063 11.9702C51.141 11.7083 51.5056 11.526 51.9 11.4233C52.2978 11.3172 52.6889 11.2642 53.0733 11.2642C53.3186 11.2642 53.6003 11.294 53.9185 11.3537C54.24 11.41 54.5499 11.5277 54.8482 11.7067C55.1498 11.8857 55.4 12.1558 55.5989 12.517C55.7978 12.8783 55.8972 13.3622 55.8972 13.9688V19H54.7239V17.9659H54.6642C54.5847 18.1316 54.4521 18.3089 54.2665 18.4979C54.0809 18.6868 53.834 18.8475 53.5257 18.9801C53.2175 19.1127 52.8413 19.179 52.3972 19.179ZM52.5762 18.125C53.0402 18.125 53.4313 18.0339 53.7495 17.8516C54.071 17.6693 54.3129 17.4339 54.4753 17.1456C54.641 16.8572 54.7239 16.554 54.7239 16.2358V15.1619C54.6742 15.2216 54.5648 15.2763 54.3958 15.326C54.2301 15.3724 54.0378 15.4138 53.8191 15.4503C53.6036 15.4834 53.3932 15.5133 53.1877 15.5398C52.9855 15.563 52.8214 15.5829 52.6955 15.5994C52.3906 15.6392 52.1055 15.7038 51.8404 15.7933C51.5785 15.8795 51.3664 16.0104 51.204 16.1861C51.0449 16.3584 50.9654 16.5937 50.9654 16.892C50.9654 17.2997 51.1162 17.608 51.4178 17.8168C51.7227 18.0223 52.1088 18.125 52.5762 18.125ZM58.0387 19V11.3636H59.1722V12.517H59.2518C59.391 12.1392 59.6429 11.8326 60.0075 11.5973C60.372 11.362 60.783 11.2443 61.2404 11.2443C61.3266 11.2443 61.4343 11.246 61.5636 11.2493C61.6928 11.2526 61.7906 11.2576 61.8569 11.2642V12.4574C61.8171 12.4474 61.726 12.4325 61.5835 12.4126C61.4442 12.3894 61.2968 12.3778 61.141 12.3778C60.7698 12.3778 60.4383 12.4557 60.1467 12.6115C59.8583 12.764 59.6296 12.9761 59.4606 13.2479C59.2949 13.5163 59.212 13.8229 59.212 14.1676V19H58.0387ZM66.1175 19.1591C65.4016 19.1591 64.7852 18.9901 64.2681 18.652C63.7511 18.3139 63.3533 17.8482 63.0749 17.255C62.7965 16.6617 62.6573 15.9839 62.6573 15.2216C62.6573 14.446 62.7998 13.7616 63.0849 13.1683C63.3732 12.5717 63.7743 12.1061 64.288 11.7713C64.805 11.4332 65.4083 11.2642 66.0977 11.2642C66.6346 11.2642 67.1185 11.3636 67.5494 11.5625C67.9802 11.7614 68.3332 12.0398 68.6083 12.3977C68.8834 12.7557 69.0541 13.1733 69.1204 13.6506H67.9471C67.8576 13.3026 67.6587 12.9943 67.3505 12.7259C67.0456 12.4541 66.6346 12.3182 66.1175 12.3182C65.6602 12.3182 65.2591 12.4375 64.9144 12.6761C64.573 12.9115 64.3062 13.2446 64.114 13.6754C63.9251 14.103 63.8306 14.6051 63.8306 15.1818C63.8306 15.7718 63.9234 16.2855 64.109 16.723C64.2979 17.1605 64.5631 17.5002 64.9045 17.7422C65.2492 17.9841 65.6535 18.1051 66.1175 18.1051C66.4225 18.1051 66.6992 18.0521 66.9478 17.946C67.1964 17.84 67.4068 17.6875 67.5792 17.4886C67.7515 17.2898 67.8742 17.0511 67.9471 16.7727H69.1204C69.0541 17.2235 68.89 17.6295 68.6282 17.9908C68.3697 18.3487 68.0266 18.6338 67.5991 18.8459C67.1748 19.0547 66.681 19.1591 66.1175 19.1591ZM72.0089 14.4062V19H70.8356V8.81818H72.0089V12.5568H72.1083C72.2873 12.1624 72.5558 11.8492 72.9137 11.6172C73.275 11.3819 73.7556 11.2642 74.3555 11.2642C74.8758 11.2642 75.3316 11.3686 75.7227 11.5774C76.1138 11.7829 76.417 12.0994 76.6325 12.527C76.8512 12.9512 76.9606 13.4915 76.9606 14.1477V19H75.7873V14.2273C75.7873 13.6207 75.6299 13.1518 75.315 12.8203C75.0034 12.4856 74.5709 12.3182 74.0174 12.3182C73.6329 12.3182 73.2882 12.3994 72.9833 12.5618C72.6817 12.7242 72.4431 12.9612 72.2674 13.2727C72.0951 13.5843 72.0089 13.9621 72.0089 14.4062Z" fill="black" fill-opacity="0.2"/>
<path d="M135.848 19.2287C135.454 19.2287 135.092 19.1326 134.764 18.9403C134.436 18.7448 134.174 18.483 133.979 18.1548C133.786 17.8267 133.69 17.4654 133.69 17.071C133.69 16.6733 133.786 16.3104 133.979 15.9822C134.174 15.6541 134.436 15.3923 134.764 15.1967C135.092 15.0012 135.454 14.9034 135.848 14.9034H137.001V12.9048H135.848C135.454 12.9048 135.092 12.8087 134.764 12.6165C134.436 12.4209 134.174 12.1607 133.979 11.8359C133.786 11.5078 133.69 11.1449 133.69 10.7472C133.69 10.3494 133.786 9.98816 133.979 9.66335C134.174 9.33523 134.436 9.07505 134.764 8.88281C135.092 8.68726 135.454 8.58949 135.848 8.58949C136.246 8.58949 136.609 8.68726 136.937 8.88281C137.265 9.07505 137.527 9.33523 137.722 9.66335C137.918 9.98816 138.016 10.3494 138.016 10.7472V11.8906H140.014V10.7472C140.014 10.3494 140.11 9.98816 140.303 9.66335C140.498 9.33523 140.758 9.07505 141.083 8.88281C141.411 8.68726 141.774 8.58949 142.172 8.58949C142.57 8.58949 142.931 8.68726 143.256 8.88281C143.584 9.07505 143.844 9.33523 144.036 9.66335C144.232 9.98816 144.33 10.3494 144.33 10.7472C144.33 11.1449 144.232 11.5078 144.036 11.8359C143.844 12.1607 143.584 12.4209 143.256 12.6165C142.931 12.8087 142.57 12.9048 142.172 12.9048H141.028V14.9034H142.172C142.57 14.9034 142.931 15.0012 143.256 15.1967C143.584 15.3923 143.844 15.6541 144.036 15.9822C144.232 16.3104 144.33 16.6733 144.33 17.071C144.33 17.4654 144.232 17.8267 144.036 18.1548C143.844 18.483 143.584 18.7448 143.256 18.9403C142.931 19.1326 142.57 19.2287 142.172 19.2287C141.774 19.2287 141.411 19.1326 141.083 18.9403C140.758 18.7448 140.498 18.483 140.303 18.1548C140.11 17.8267 140.014 17.4654 140.014 17.071V15.9176H138.016V17.071C138.016 17.4654 137.918 17.8267 137.722 18.1548C137.527 18.483 137.265 18.7448 136.937 18.9403C136.609 19.1326 136.246 19.2287 135.848 19.2287ZM135.848 18.2145C136.06 18.2145 136.252 18.1631 136.425 18.0604C136.6 17.9576 136.74 17.8201 136.842 17.6477C136.948 17.4721 137.001 17.2798 137.001 17.071V15.9176H135.848C135.639 15.9176 135.447 15.9706 135.271 16.0767C135.099 16.1795 134.961 16.3187 134.859 16.4943C134.756 16.6667 134.705 16.8589 134.705 17.071C134.705 17.2798 134.756 17.4721 134.859 17.6477C134.961 17.8201 135.099 17.9576 135.271 18.0604C135.447 18.1631 135.639 18.2145 135.848 18.2145ZM135.848 11.8906H137.001V10.7472C137.001 10.535 136.948 10.3428 136.842 10.1705C136.74 9.99811 136.6 9.86056 136.425 9.75781C136.252 9.65507 136.06 9.60369 135.848 9.60369C135.639 9.60369 135.447 9.65507 135.271 9.75781C135.099 9.86056 134.961 9.99811 134.859 10.1705C134.756 10.3428 134.705 10.535 134.705 10.7472C134.705 10.9593 134.756 11.1532 134.859 11.3288C134.961 11.5012 135.099 11.6387 135.271 11.7415C135.447 11.8409 135.639 11.8906 135.848 11.8906ZM141.028 11.8906H142.172C142.384 11.8906 142.576 11.8409 142.749 11.7415C142.921 11.6387 143.058 11.5012 143.161 11.3288C143.264 11.1532 143.315 10.9593 143.315 10.7472C143.315 10.535 143.264 10.3428 143.161 10.1705C143.058 9.99811 142.921 9.86056 142.749 9.75781C142.576 9.65507 142.384 9.60369 142.172 9.60369C141.96 9.60369 141.766 9.65507 141.59 9.75781C141.418 9.86056 141.28 9.99811 141.178 10.1705C141.078 10.3428 141.028 10.535 141.028 10.7472V11.8906ZM142.172 18.2145C142.384 18.2145 142.576 18.1631 142.749 18.0604C142.921 17.9576 143.058 17.8201 143.161 17.6477C143.264 17.4721 143.315 17.2798 143.315 17.071C143.315 16.8589 143.264 16.6667 143.161 16.4943C143.058 16.3187 142.921 16.1795 142.749 16.0767C142.576 15.9706 142.384 15.9176 142.172 15.9176H141.028V17.071C141.028 17.2798 141.078 17.4721 141.178 17.6477C141.28 17.8201 141.418 17.9576 141.59 18.0604C141.766 18.1631 141.96 18.2145 142.172 18.2145ZM138.016 14.9034H140.014V12.9048H138.016V14.9034ZM150.687 8.34091L147.406 20.5312H146.332L149.613 8.34091H150.687Z" fill="black" fill-opacity="0.2"/>
<path d="M198.375 14C198.375 14.8653 198.118 15.7112 197.638 16.4306C197.157 17.1501 196.474 17.7108 195.674 18.042C194.875 18.3731 193.995 18.4597 193.146 18.2909C192.298 18.1221 191.518 17.7054 190.906 17.0936C190.295 16.4817 189.878 15.7022 189.709 14.8535C189.54 14.0049 189.627 13.1252 189.958 12.3258C190.289 11.5263 190.85 10.8431 191.569 10.3623C192.289 9.88159 193.135 9.625 194 9.625C195.16 9.625 196.273 10.0859 197.094 10.9064C197.914 11.7269 198.375 12.8397 198.375 14Z" fill="black" fill-opacity="0.04"/>
<path d="M193.375 7.125V5.25C193.375 5.08424 193.441 4.92527 193.558 4.80806C193.675 4.69085 193.834 4.625 194 4.625C194.166 4.625 194.325 4.69085 194.442 4.80806C194.559 4.92527 194.625 5.08424 194.625 5.25V7.125C194.625 7.29076 194.559 7.44973 194.442 7.56694C194.325 7.68415 194.166 7.75 194 7.75C193.834 7.75 193.675 7.68415 193.558 7.56694C193.441 7.44973 193.375 7.29076 193.375 7.125ZM199 14C199 14.9889 198.707 15.9556 198.157 16.7779C197.608 17.6001 196.827 18.241 195.913 18.6194C195 18.9978 193.994 19.0969 193.025 18.9039C192.055 18.711 191.164 18.2348 190.464 17.5355C189.765 16.8363 189.289 15.9454 189.096 14.9755C188.903 14.0055 189.002 13.0002 189.381 12.0866C189.759 11.173 190.4 10.3921 191.222 9.84265C192.044 9.29324 193.011 9 194 9C195.326 9.00145 196.597 9.5287 197.534 10.4661C198.471 11.4034 198.999 12.6744 199 14ZM197.75 14C197.75 13.2583 197.53 12.5333 197.118 11.9166C196.706 11.2999 196.12 10.8193 195.435 10.5355C194.75 10.2516 193.996 10.1774 193.268 10.3221C192.541 10.4668 191.873 10.8239 191.348 11.3483C190.824 11.8728 190.467 12.541 190.322 13.2684C190.177 13.9958 190.252 14.7498 190.535 15.4351C190.819 16.1203 191.3 16.706 191.917 17.118C192.533 17.5301 193.258 17.75 194 17.75C194.994 17.749 195.947 17.3535 196.651 16.6505C197.354 15.9475 197.749 14.9942 197.75 14ZM188.558 9.44219C188.675 9.55946 188.834 9.62535 189 9.62535C189.166 9.62535 189.325 9.55946 189.442 9.44219C189.559 9.32491 189.625 9.16585 189.625 9C189.625 8.83415 189.559 8.67509 189.442 8.55781L188.192 7.30781C188.075 7.19054 187.916 7.12465 187.75 7.12465C187.584 7.12465 187.425 7.19054 187.308 7.30781C187.191 7.42509 187.125 7.58415 187.125 7.75C187.125 7.91585 187.191 8.07491 187.308 8.19219L188.558 9.44219ZM188.558 18.5578L187.308 19.8078C187.191 19.9251 187.125 20.0841 187.125 20.25C187.125 20.4159 187.191 20.5749 187.308 20.6922C187.425 20.8095 187.584 20.8753 187.75 20.8753C187.916 20.8753 188.075 20.8095 188.192 20.6922L189.442 19.4422C189.5 19.3841 189.546 19.3152 189.578 19.2393C189.609 19.1634 189.625 19.0821 189.625 19C189.625 18.9179 189.609 18.8366 189.578 18.7607C189.546 18.6848 189.5 18.6159 189.442 18.5578C189.384 18.4997 189.315 18.4537 189.239 18.4223C189.163 18.3908 189.082 18.3747 189 18.3747C188.918 18.3747 188.837 18.3908 188.761 18.4223C188.685 18.4537 188.616 18.4997 188.558 18.5578ZM199 9.625C199.082 9.62506 199.163 9.60895 199.239 9.57759C199.315 9.54622 199.384 9.50021 199.442 9.44219L200.692 8.19219C200.809 8.07491 200.875 7.91585 200.875 7.75C200.875 7.58415 200.809 7.42509 200.692 7.30781C200.575 7.19054 200.416 7.12465 200.25 7.12465C200.084 7.12465 199.925 7.19054 199.808 7.30781L198.558 8.55781C198.47 8.64522 198.411 8.75663 198.387 8.87793C198.362 8.99924 198.375 9.12498 198.422 9.23924C198.469 9.35351 198.55 9.45116 198.653 9.51982C198.755 9.58849 198.876 9.6251 199 9.625ZM199.442 18.5578C199.325 18.4405 199.166 18.3747 199 18.3747C198.834 18.3747 198.675 18.4405 198.558 18.5578C198.441 18.6751 198.375 18.8341 198.375 19C198.375 19.1659 198.441 19.3249 198.558 19.4422L199.808 20.6922C199.866 20.7503 199.935 20.7963 200.011 20.8277C200.087 20.8592 200.168 20.8753 200.25 20.8753C200.332 20.8753 200.413 20.8592 200.489 20.8277C200.565 20.7963 200.634 20.7503 200.692 20.6922C200.75 20.6341 200.796 20.5652 200.828 20.4893C200.859 20.4134 200.875 20.3321 200.875 20.25C200.875 20.1679 200.859 20.0866 200.828 20.0107C200.796 19.9348 200.75 19.8659 200.692 19.8078L199.442 18.5578ZM187.75 14C187.75 13.8342 187.684 13.6753 187.567 13.5581C187.45 13.4408 187.291 13.375 187.125 13.375H185.25C185.084 13.375 184.925 13.4408 184.808 13.5581C184.691 13.6753 184.625 13.8342 184.625 14C184.625 14.1658 184.691 14.3247 184.808 14.4419C184.925 14.5592 185.084 14.625 185.25 14.625H187.125C187.291 14.625 187.45 14.5592 187.567 14.4419C187.684 14.3247 187.75 14.1658 187.75 14ZM194 20.25C193.834 20.25 193.675 20.3158 193.558 20.4331C193.441 20.5503 193.375 20.7092 193.375 20.875V22.75C193.375 22.9158 193.441 23.0747 193.558 23.1919C193.675 23.3092 193.834 23.375 194 23.375C194.166 23.375 194.325 23.3092 194.442 23.1919C194.559 23.0747 194.625 22.9158 194.625 22.75V20.875C194.625 20.7092 194.559 20.5503 194.442 20.4331C194.325 20.3158 194.166 20.25 194 20.25ZM202.75 13.375H200.875C200.709 13.375 200.55 13.4408 200.433 13.5581C200.316 13.6753 200.25 13.8342 200.25 14C200.25 14.1658 200.316 14.3247 200.433 14.4419C200.55 14.5592 200.709 14.625 200.875 14.625H202.75C202.916 14.625 203.075 14.5592 203.192 14.4419C203.309 14.3247 203.375 14.1658 203.375 14C203.375 13.8342 203.309 13.6753 203.192 13.5581C203.075 13.4408 202.916 13.375 202.75 13.375Z" fill="black"/>
<path d="M236.875 14C236.875 15.3597 236.472 16.689 235.716 17.8195C234.961 18.9501 233.887 19.8313 232.631 20.3517C231.375 20.872 229.992 21.0082 228.659 20.7429C227.325 20.4776 226.1 19.8228 225.139 18.8614C224.177 17.8999 223.522 16.6749 223.257 15.3412C222.992 14.0076 223.128 12.6253 223.648 11.3691C224.169 10.1128 225.05 9.03908 226.18 8.28365C227.311 7.52821 228.64 7.125 230 7.125C231.823 7.125 233.572 7.84933 234.861 9.13864C236.151 10.428 236.875 12.1766 236.875 14Z" fill="black" fill-opacity="0.04"/>
<path d="M230.625 10.25V13.6461L233.447 15.3391C233.589 15.4244 233.691 15.5628 233.732 15.7236C233.772 15.8845 233.746 16.0547 233.661 16.1969C233.576 16.339 233.437 16.4414 233.276 16.4816C233.115 16.5217 232.945 16.4963 232.803 16.4109L229.678 14.5359C229.586 14.4804 229.509 14.4018 229.456 14.3079C229.403 14.214 229.375 14.1079 229.375 14V10.25C229.375 10.0842 229.441 9.92527 229.558 9.80806C229.675 9.69085 229.834 9.625 230 9.625C230.166 9.625 230.325 9.69085 230.442 9.80806C230.559 9.92527 230.625 10.0842 230.625 10.25ZM230 6.5C229.014 6.49754 228.037 6.69065 227.127 7.06815C226.216 7.44564 225.389 8.00003 224.694 8.69922C224.126 9.27422 223.621 9.82734 223.125 10.4063V9C223.125 8.83424 223.059 8.67527 222.942 8.55806C222.825 8.44085 222.666 8.375 222.5 8.375C222.334 8.375 222.175 8.44085 222.058 8.55806C221.941 8.67527 221.875 8.83424 221.875 9V12.125C221.875 12.2908 221.941 12.4497 222.058 12.5669C222.175 12.6842 222.334 12.75 222.5 12.75H225.625C225.791 12.75 225.95 12.6842 226.067 12.5669C226.184 12.4497 226.25 12.2908 226.25 12.125C226.25 11.9592 226.184 11.8003 226.067 11.6831C225.95 11.5658 225.791 11.5 225.625 11.5H223.828C224.387 10.8422 224.943 10.2227 225.577 9.58047C226.446 8.71184 227.551 8.11844 228.755 7.87444C229.959 7.63043 231.208 7.74662 232.347 8.2085C233.485 8.67039 234.462 9.45747 235.155 10.4714C235.849 11.4854 236.228 12.6812 236.246 13.9095C236.264 15.1378 235.919 16.3441 235.255 17.3777C234.591 18.4113 233.638 19.2263 232.513 19.7209C231.389 20.2155 230.144 20.3678 228.933 20.1587C227.722 19.9496 226.6 19.3885 225.707 18.5453C225.647 18.4889 225.577 18.4448 225.5 18.4155C225.424 18.3862 225.342 18.3723 225.26 18.3747C225.178 18.377 225.097 18.3954 225.022 18.429C224.947 18.4626 224.879 18.5106 224.823 18.5703C224.766 18.63 224.722 18.7003 224.693 18.777C224.664 18.8538 224.65 18.9356 224.652 19.0177C224.654 19.0998 224.673 19.1807 224.706 19.2556C224.74 19.3306 224.788 19.3983 224.848 19.4547C225.738 20.2947 226.82 20.9042 228 21.2298C229.18 21.5554 230.422 21.5872 231.617 21.3226C232.812 21.058 233.924 20.5049 234.856 19.7117C235.788 18.9184 236.512 17.9091 236.964 16.7717C237.416 15.6344 237.584 14.4036 237.451 13.1869C237.318 11.9701 236.89 10.8043 236.203 9.7912C235.516 8.77811 234.592 7.94852 233.51 7.37483C232.429 6.80114 231.224 6.5008 230 6.5Z" fill="black"/>
<path d="M272.25 19H259.75C259.641 18.9993 259.533 18.97 259.439 18.9149C259.344 18.8597 259.266 18.7808 259.212 18.6859C259.157 18.591 259.129 18.4835 259.129 18.3741C259.129 18.2647 259.158 18.1572 259.213 18.0625C259.727 17.1719 260.375 14.9227 260.375 12.125C260.375 10.6332 260.968 9.20242 262.023 8.14752C263.077 7.09263 264.508 6.5 266 6.5C267.492 6.5 268.923 7.09263 269.977 8.14752C271.032 9.20242 271.625 10.6332 271.625 12.125C271.625 14.9234 272.273 17.1719 272.789 18.0625C272.844 18.1574 272.873 18.2649 272.873 18.3745C272.873 18.484 272.844 18.5916 272.79 18.6865C272.735 18.7815 272.656 18.8604 272.562 18.9154C272.467 18.9705 272.36 18.9996 272.25 19Z" fill="black" fill-opacity="0.04"/>
<path d="M273.328 17.7453C272.894 16.9984 272.25 14.8852 272.25 12.125C272.25 10.4674 271.591 8.87769 270.419 7.70558C269.247 6.53348 267.658 5.875 266 5.875C264.342 5.875 262.753 6.53348 261.581 7.70558C260.408 8.87769 259.75 10.4674 259.75 12.125C259.75 14.8859 259.105 16.9984 258.671 17.7453C258.56 17.9352 258.502 18.1509 258.501 18.3707C258.5 18.5905 258.557 18.8066 258.667 18.9973C258.776 19.1879 258.934 19.3463 259.124 19.4565C259.314 19.5667 259.53 19.6248 259.75 19.625H262.938C263.082 20.3306 263.466 20.9647 264.024 21.4201C264.582 21.8756 265.28 22.1243 266 22.1243C266.72 22.1243 267.418 21.8756 267.976 21.4201C268.534 20.9647 268.917 20.3306 269.062 19.625H272.25C272.47 19.6247 272.685 19.5665 272.876 19.4562C273.066 19.346 273.223 19.1875 273.333 18.9969C273.442 18.8063 273.499 18.5903 273.498 18.3705C273.497 18.1508 273.439 17.9351 273.328 17.7453ZM266 20.875C265.612 20.8749 265.234 20.7546 264.918 20.5308C264.601 20.3069 264.362 19.9905 264.233 19.625H267.767C267.638 19.9905 267.399 20.3069 267.082 20.5308C266.766 20.7546 266.388 20.8749 266 20.875ZM259.75 18.375C260.352 17.3406 261 14.9438 261 12.125C261 10.7989 261.527 9.52715 262.464 8.58947C263.402 7.65178 264.674 7.125 266 7.125C267.326 7.125 268.598 7.65178 269.535 8.58947C270.473 9.52715 271 10.7989 271 12.125C271 14.9414 271.647 17.3383 272.25 18.375H259.75Z" fill="black"/>
<path d="M298.875 7.75V20.25H295.125C294.959 20.25 294.8 20.1842 294.683 20.0669C294.566 19.9497 294.5 19.7908 294.5 19.625V8.375C294.5 8.20924 294.566 8.05027 294.683 7.93306C294.8 7.81585 294.959 7.75 295.125 7.75H298.875Z" fill="black" fill-opacity="0.04"/>
<path d="M308.875 7.125H295.125C294.793 7.125 294.476 7.2567 294.241 7.49112C294.007 7.72554 293.875 8.04348 293.875 8.375V19.625C293.875 19.9565 294.007 20.2745 294.241 20.5089C294.476 20.7433 294.793 20.875 295.125 20.875H308.875C309.207 20.875 309.524 20.7433 309.759 20.5089C309.993 20.2745 310.125 19.9565 310.125 19.625V8.375C310.125 8.04348 309.993 7.72554 309.759 7.49112C309.524 7.2567 309.207 7.125 308.875 7.125ZM295.125 15.875H296.375C296.541 15.875 296.7 15.8092 296.817 15.6919C296.934 15.5747 297 15.4158 297 15.25C297 15.0842 296.934 14.9253 296.817 14.8081C296.7 14.6908 296.541 14.625 296.375 14.625H295.125V13.375H296.375C296.541 13.375 296.7 13.3092 296.817 13.1919C296.934 13.0747 297 12.9158 297 12.75C297 12.5842 296.934 12.4253 296.817 12.3081C296.7 12.1908 296.541 12.125 296.375 12.125H295.125V10.875H296.375C296.541 10.875 296.7 10.8092 296.817 10.6919C296.934 10.5747 297 10.4158 297 10.25C297 10.0842 296.934 9.92527 296.817 9.80806C296.7 9.69085 296.541 9.625 296.375 9.625H295.125V8.375H298.25V19.625H295.125V15.875ZM308.875 19.625H299.5V8.375H308.875V19.625Z" fill="black"/>
</svg>
