<svg width="28" height="28" viewBox="0 0 28 28" fill="none" xmlns="http://www.w3.org/2000/svg">
<path fill-rule="evenodd" clip-rule="evenodd" d="M16.625 4.375C16.625 3.89175 17.0168 3.5 17.5 3.5H21C22.933 3.5 24.5 5.067 24.5 7V10.5C24.5 10.9832 24.1082 11.375 23.625 11.375C23.1418 11.375 22.75 10.9832 22.75 10.5V7C22.75 6.0335 21.9665 5.25 21 5.25H17.5C17.0168 5.25 16.625 4.85825 16.625 4.375ZM11.375 23.625C11.375 24.1082 10.9832 24.5 10.5 24.5H7C5.067 24.5 3.5 22.933 3.5 21V17.5C3.5 17.0168 3.89175 16.625 4.375 16.625C4.85825 16.625 5.25 17.0168 5.25 17.5L5.25 21C5.25 21.9665 6.0335 22.75 7 22.75H10.5C10.9832 22.75 11.375 23.1418 11.375 23.625ZM3.5 10.5C3.5 10.9832 3.89175 11.375 4.375 11.375C4.85825 11.375 5.25 10.9832 5.25 10.5L5.25 7C5.25 6.0335 6.0335 5.25 7 5.25L10.5 5.25C10.9832 5.25 11.375 4.85825 11.375 4.375C11.375 3.89175 10.9832 3.5 10.5 3.5H7C5.067 3.5 3.5 5.067 3.5 7V10.5ZM23.625 16.625C24.1082 16.625 24.5 17.0168 24.5 17.5V21C24.5 22.933 22.933 24.5 21 24.5H17.5C17.0168 24.5 16.625 24.1082 16.625 23.625C16.625 23.1418 17.0168 22.75 17.5 22.75H21C21.9665 22.75 22.75 21.9665 22.75 21V17.5C22.75 17.0168 23.1418 16.625 23.625 16.625ZM14.3094 10.8094C14.1385 10.6385 13.8615 10.6385 13.6906 10.8094L10.7472 13.7528C10.5763 13.9237 10.5763 14.2007 10.7472 14.3715L13.6906 17.315C13.8615 17.4859 14.1385 17.4859 14.3094 17.315L17.2528 14.3715C17.4237 14.2007 17.4237 13.9237 17.2528 13.7528L14.3094 10.8094Z" fill="black" fill-opacity="0.04"/>
<path fill-rule="evenodd" clip-rule="evenodd" d="M15.5468 9.57198L18.4902 12.5154C19.3445 13.3697 19.3445 14.7548 18.4902 15.609L15.5468 18.5525C14.6925 19.4068 13.3075 19.4068 12.4532 18.5525L9.50972 15.609C8.65545 14.7548 8.65545 13.3697 9.50972 12.5154L12.4532 9.57198C13.3075 8.71771 14.6925 8.7177 15.5468 9.57198ZM14.3093 10.8094C14.1385 10.6386 13.8615 10.6386 13.6906 10.8094L10.7472 13.7529C10.5763 13.9237 10.5763 14.2007 10.7472 14.3716L13.6906 17.3151C13.8615 17.4859 14.1385 17.4859 14.3093 17.3151L17.2528 14.3716C17.4237 14.2007 17.4237 13.9237 17.2528 13.7529L14.3093 10.8094Z" fill="black"/>
</svg>
